<svg xmlns="http://www.w3.org/2000/svg" xmlns:xlink="http://www.w3.org/1999/xlink" contentStyleType="text/css" height="1303px" preserveAspectRatio="none" style="width:1138px;height:1303px;background:#FFFFFF;" version="1.1" viewBox="0 0 1138 1303" width="1138px" zoomAndPan="magnify"><title>Data Flow Diagram - File Processing Pipeline</title><defs/><g><text fill="#000000" font-family="sans-serif" font-size="14" font-weight="bold" lengthAdjust="spacing" textLength="325.5957" x="405.1216" y="33.5352">Data Flow Diagram - File Processing Pipeline</text><rect fill="none" height="21.1992" style="stroke:none;stroke-width:1;" width="1105.8389" x="15" y="49.7852"/><ellipse cx="90.1299" cy="85.9844" fill="#222222" rx="10" ry="10" style="stroke:#222222;stroke-width:1;"/><path d="M147.2529,105.9844 L147.2529,137.6055 L127.2529,141.6055 L147.2529,145.6055 L147.2529,177.2266 A0,0 0 0 0 147.2529,177.2266 L336.7197,177.2266 A0,0 0 0 0 336.7197,177.2266 L336.7197,115.9844 L326.7197,105.9844 L147.2529,105.9844 A0,0 0 0 0 147.2529,105.9844 " fill="#FEFFDD" style="stroke:#181818;stroke-width:0.5;"/><path d="M326.7197,105.9844 L326.7197,115.9844 L336.7197,115.9844 L326.7197,105.9844 " fill="#FEFFDD" style="stroke:#181818;stroke-width:0.5;"/><text fill="#000000" font-family="sans-serif" font-size="13" lengthAdjust="spacing" textLength="90.4478" x="153.2529" y="123.5527">User provides:</text><text fill="#000000" font-family="sans-serif" font-size="13" lengthAdjust="spacing" textLength="65.7681" x="153.2529" y="138.8633">- File path</text><text fill="#000000" font-family="sans-serif" font-size="13" lengthAdjust="spacing" textLength="149.5381" x="153.2529" y="154.1738">- Pipeline configuration</text><text fill="#000000" font-family="sans-serif" font-size="13" lengthAdjust="spacing" textLength="168.4668" x="153.2529" y="169.4844">- Encryption key (optional)</text><rect fill="#E3F2FD" height="34.1328" rx="12.5" ry="12.5" style="stroke:#2196F3;stroke-width:0.5;" width="74.2461" x="53.0068" y="124.5391"/><text fill="#000000" font-family="sans-serif" font-size="12" lengthAdjust="spacing" textLength="54.2461" x="63.0068" y="146.1406">Input File</text><rect fill="#E3F2FD" height="34.1328" rx="12.5" ry="12.5" style="stroke:#2196F3;stroke-width:0.5;" width="138.2598" x="21" y="1214.9141"/><text fill="#000000" font-family="sans-serif" font-size="12" lengthAdjust="spacing" textLength="118.2598" x="31" y="1236.5156">Output .adapipe File</text><ellipse cx="90.1299" cy="1280.0469" fill="none" rx="11" ry="11" style="stroke:#222222;stroke-width:1;"/><ellipse cx="90.1299" cy="1280.0469" fill="#222222" rx="6" ry="6" style="stroke:#222222;stroke-width:1;"/><line style="stroke:#000000;stroke-width:1.5;" x1="15" x2="15" y1="49.7852" y2="1291.0469"/><path d="M688.4756,187.2266 L688.4756,211.1924 L668.4756,215.1924 L688.4756,219.1924 L688.4756,243.1582 A0,0 0 0 0 688.4756,243.1582 L869.5444,243.1582 A0,0 0 0 0 869.5444,243.1582 L869.5444,197.2266 L859.5444,187.2266 L688.4756,187.2266 A0,0 0 0 0 688.4756,187.2266 " fill="#FEFFDD" style="stroke:#181818;stroke-width:0.5;"/><path d="M859.5444,187.2266 L859.5444,197.2266 L869.5444,197.2266 L859.5444,187.2266 " fill="#FEFFDD" style="stroke:#181818;stroke-width:0.5;"/><text fill="#000000" font-family="sans-serif" font-size="13" lengthAdjust="spacing" textLength="115.0513" x="694.4756" y="204.7949">- Check file exists</text><text fill="#000000" font-family="sans-serif" font-size="13" lengthAdjust="spacing" textLength="128.4702" x="694.4756" y="220.1055">- Verify permissions</text><text fill="#000000" font-family="sans-serif" font-size="13" lengthAdjust="spacing" textLength="160.0688" x="694.4756" y="235.416">- Validate pipeline config</text><rect fill="#E3F2FD" height="34.1328" rx="12.5" ry="12.5" style="stroke:#2196F3;stroke-width:0.5;" width="100.9531" x="567.5225" y="198.126"/><text fill="#000000" font-family="sans-serif" font-size="12" lengthAdjust="spacing" textLength="80.9531" x="577.5225" y="219.7275">Validate Input</text><rect fill="#E3F2FD" height="34.1328" rx="12.5" ry="12.5" style="stroke:#2196F3;stroke-width:0.5;" width="129.5352" x="553.2314" y="263.1582"/><text fill="#000000" font-family="sans-serif" font-size="12" lengthAdjust="spacing" textLength="109.5352" x="563.2314" y="284.7598">Read File Metadata</text><path d="M709.7188,307.291 L709.7188,338.9121 L689.7188,342.9121 L709.7188,346.9121 L709.7188,378.5332 A0,0 0 0 0 709.7188,378.5332 L836.769,378.5332 A0,0 0 0 0 836.769,378.5332 L836.769,317.291 L826.769,307.291 L709.7188,307.291 A0,0 0 0 0 709.7188,307.291 " fill="#FEFFDD" style="stroke:#181818;stroke-width:0.5;"/><path d="M826.769,307.291 L826.769,317.291 L836.769,317.291 L826.769,307.291 " fill="#FEFFDD" style="stroke:#181818;stroke-width:0.5;"/><text fill="#000000" font-family="sans-serif" font-size="13" lengthAdjust="spacing" textLength="106.0503" x="715.7188" y="324.8594">Chunk structure:</text><text fill="#000000" font-family="sans-serif" font-size="13" lengthAdjust="spacing" textLength="102.6733" x="715.7188" y="340.1699">- ID (sequential)</text><text fill="#000000" font-family="sans-serif" font-size="13" lengthAdjust="spacing" textLength="86.8677" x="715.7188" y="355.4805">- Data (bytes)</text><text fill="#000000" font-family="sans-serif" font-size="13" lengthAdjust="spacing" textLength="81.5991" x="715.7188" y="370.791">- Is final flag</text><rect fill="#E3F2FD" height="48.2656" rx="12.5" ry="12.5" style="stroke:#2196F3;stroke-width:0.5;" width="143.4395" x="546.2793" y="318.7793"/><text fill="#000000" font-family="sans-serif" font-size="12" lengthAdjust="spacing" textLength="123.4395" x="556.2793" y="340.3809">Split File into Chunks</text><text fill="#000000" font-family="sans-serif" font-size="12" lengthAdjust="spacing" textLength="82.3418" x="556.2793" y="354.5137">(Default: 1MB)</text><path d="M918.2783,421.2891 L918.2783,461.9102 L1113.9912,461.9102 L1113.9912,431.2891 L1103.9912,421.2891 L918.2783,421.2891 " fill="#FEFFDD" style="stroke:#181818;stroke-width:0.5;"/><path d="M1103.9912,421.2891 L1103.9912,431.2891 L1113.9912,431.2891 L1103.9912,421.2891 " fill="#FEFFDD" style="stroke:#181818;stroke-width:0.5;"/><text fill="#000000" font-family="sans-serif" font-size="13" lengthAdjust="spacing" textLength="160.6401" x="924.2783" y="438.8574">Parallel chunk processing</text><text fill="#000000" font-family="sans-serif" font-size="13" lengthAdjust="spacing" textLength="174.7129" x="924.2783" y="454.168">utilizing multiple CPU cores</text><rect fill="#555555" height="6" rx="2.5" ry="2.5" style="stroke:#555555;stroke-width:1;" width="560.5586" x="347.7197" y="398.5332"/><rect fill="#E3F2FD" height="34.1328" rx="12.5" ry="12.5" style="stroke:#2196F3;stroke-width:0.5;" width="116.8203" x="359.7197" y="424.5332"/><text fill="#000000" font-family="sans-serif" font-size="12" lengthAdjust="spacing" textLength="96.8203" x="369.7197" y="446.1348">Process Chunk 1</text><rect fill="#E3F2FD" height="34.1328" rx="12.5" ry="12.5" style="stroke:#2196F3;stroke-width:0.5;" width="116.8203" x="486.54" y="424.5332"/><text fill="#000000" font-family="sans-serif" font-size="12" lengthAdjust="spacing" textLength="96.8203" x="496.54" y="446.1348">Process Chunk 2</text><rect fill="#E3F2FD" height="34.1328" rx="12.5" ry="12.5" style="stroke:#2196F3;stroke-width:0.5;" width="116.8203" x="631.3604" y="424.5332"/><text fill="#000000" font-family="sans-serif" font-size="12" lengthAdjust="spacing" textLength="96.8203" x="641.3604" y="446.1348">Process Chunk 3</text><rect fill="#E3F2FD" height="34.1328" rx="12.5" ry="12.5" style="stroke:#2196F3;stroke-width:0.5;" width="118.0977" x="776.1807" y="424.5332"/><text fill="#000000" font-family="sans-serif" font-size="12" lengthAdjust="spacing" textLength="98.0977" x="786.1807" y="446.1348">Process Chunk N</text><rect fill="#555555" height="6" rx="2.5" ry="2.5" style="stroke:#555555;stroke-width:1;" width="560.5586" x="347.7197" y="478.666"/><rect fill="none" height="290.5254" style="stroke:#000000;stroke-width:1.5;" width="346.5239" x="534.3633" y="494.666"/><path d="M752.2783,494.666 L752.2783,504.1543 L742.2783,514.1543 L534.3633,514.1543 " fill="none" style="stroke:#000000;stroke-width:1.5;"/><text fill="#000000" font-family="sans-serif" font-size="14" lengthAdjust="spacing" textLength="207.915" x="537.3633" y="509.2012">Per-Chunk Pipeline Processing</text><path d="M711.6348,524.1543 L711.6348,563.4307 L691.6348,567.4307 L711.6348,571.4307 L711.6348,610.707 A0,0 0 0 0 711.6348,610.707 L855.5698,610.707 A0,0 0 0 0 855.5698,610.707 L855.5698,534.1543 L845.5698,524.1543 L711.6348,524.1543 A0,0 0 0 0 711.6348,524.1543 " fill="#FEFFDD" style="stroke:#181818;stroke-width:0.5;"/><path d="M845.5698,524.1543 L845.5698,534.1543 L855.5698,534.1543 L845.5698,524.1543 " fill="#FEFFDD" style="stroke:#181818;stroke-width:0.5;"/><text fill="#000000" font-family="sans-serif" font-size="13" lengthAdjust="spacing" textLength="73.7026" x="717.6348" y="541.7227">Algorithms:</text><text fill="#000000" font-family="sans-serif" font-size="13" lengthAdjust="spacing" textLength="117.4951" x="717.6348" y="557.0332">- Brotli (best ratio)</text><text fill="#000000" font-family="sans-serif" font-size="13" lengthAdjust="spacing" textLength="108.1831" x="717.6348" y="572.3438">- Zstd (balanced)</text><text fill="#000000" font-family="sans-serif" font-size="13" lengthAdjust="spacing" textLength="122.9351" x="717.6348" y="587.6543">- Gzip (compatible)</text><text fill="#000000" font-family="sans-serif" font-size="13" lengthAdjust="spacing" textLength="89.394" x="717.6348" y="602.9648">- LZ4 (fastest)</text><rect fill="#E3F2FD" height="34.1328" rx="12.5" ry="12.5" style="stroke:#2196F3;stroke-width:0.5;" width="147.2715" x="544.3633" y="550.3643"/><text fill="#000000" font-family="sans-serif" font-size="12" lengthAdjust="spacing" textLength="127.2715" x="554.3633" y="571.9658">Stage 1: Compression</text><path d="M704.1641,620.707 L704.1641,652.3281 L684.1641,656.3281 L704.1641,660.3281 L704.1641,691.9492 A0,0 0 0 0 704.1641,691.9492 L870.8872,691.9492 A0,0 0 0 0 870.8872,691.9492 L870.8872,630.707 L860.8872,620.707 L704.1641,620.707 A0,0 0 0 0 704.1641,620.707 " fill="#FEFFDD" style="stroke:#181818;stroke-width:0.5;"/><path d="M860.8872,620.707 L860.8872,630.707 L870.8872,630.707 L860.8872,620.707 " fill="#FEFFDD" style="stroke:#181818;stroke-width:0.5;"/><text fill="#000000" font-family="sans-serif" font-size="13" lengthAdjust="spacing" textLength="73.7026" x="710.1641" y="638.2754">Algorithms:</text><text fill="#000000" font-family="sans-serif" font-size="13" lengthAdjust="spacing" textLength="103.9429" x="710.1641" y="653.5859">- AES-256-GCM</text><text fill="#000000" font-family="sans-serif" font-size="13" lengthAdjust="spacing" textLength="142.6826" x="710.1641" y="668.8965">- ChaCha20-Poly1305</text><text fill="#000000" font-family="sans-serif" font-size="13" lengthAdjust="spacing" textLength="145.7231" x="710.1641" y="684.207">With AEAD for integrity</text><rect fill="#E3F2FD" height="34.1328" rx="12.5" ry="12.5" style="stroke:#2196F3;stroke-width:0.5;" width="132.3301" x="551.834" y="639.2617"/><text fill="#000000" font-family="sans-serif" font-size="12" lengthAdjust="spacing" textLength="112.3301" x="561.834" y="660.8633">Stage 2: Encryption</text><path d="M703.543,701.9492 L703.543,733.5703 L683.543,737.5703 L703.543,741.5703 L703.543,773.1914 A0,0 0 0 0 703.543,773.1914 L798.2456,773.1914 A0,0 0 0 0 798.2456,773.1914 L798.2456,711.9492 L788.2456,701.9492 L703.543,701.9492 A0,0 0 0 0 703.543,701.9492 " fill="#FEFFDD" style="stroke:#181818;stroke-width:0.5;"/><path d="M788.2456,701.9492 L788.2456,711.9492 L798.2456,711.9492 L788.2456,701.9492 " fill="#FEFFDD" style="stroke:#181818;stroke-width:0.5;"/><text fill="#000000" font-family="sans-serif" font-size="13" lengthAdjust="spacing" textLength="73.7026" x="709.543" y="719.5176">Algorithms:</text><text fill="#000000" font-family="sans-serif" font-size="13" lengthAdjust="spacing" textLength="69.3418" x="709.543" y="734.8281">- SHA-256</text><text fill="#000000" font-family="sans-serif" font-size="13" lengthAdjust="spacing" textLength="69.3418" x="709.543" y="750.1387">- SHA-512</text><text fill="#000000" font-family="sans-serif" font-size="13" lengthAdjust="spacing" textLength="58.7666" x="709.543" y="765.4492">- BLAKE3</text><rect fill="#E3F2FD" height="34.1328" rx="12.5" ry="12.5" style="stroke:#2196F3;stroke-width:0.5;" width="131.0879" x="552.4551" y="720.5039"/><text fill="#000000" font-family="sans-serif" font-size="12" lengthAdjust="spacing" textLength="111.0879" x="562.4551" y="742.1055">Stage 3: Checksum</text><rect fill="#E3F2FD" height="34.1328" rx="12.5" ry="12.5" style="stroke:#2196F3;stroke-width:0.5;" width="181.6191" x="527.1895" y="805.1914"/><text fill="#000000" font-family="sans-serif" font-size="12" lengthAdjust="spacing" textLength="161.6191" x="537.1895" y="826.793">Combine Processed Chunks</text><path d="M724.2031,849.3242 L724.2031,896.2559 L704.2031,900.2559 L724.2031,904.2559 L724.2031,951.1875 A0,0 0 0 0 724.2031,951.1875 L894.7412,951.1875 A0,0 0 0 0 894.7412,951.1875 L894.7412,859.3242 L884.7412,849.3242 L724.2031,849.3242 A0,0 0 0 0 724.2031,849.3242 " fill="#FEFFDD" style="stroke:#181818;stroke-width:0.5;"/><path d="M884.7412,849.3242 L884.7412,859.3242 L894.7412,859.3242 L884.7412,849.3242 " fill="#FEFFDD" style="stroke:#181818;stroke-width:0.5;"/><text fill="#000000" font-family="sans-serif" font-size="13" lengthAdjust="spacing" textLength="106.1519" x="730.2031" y="866.8926">Header contains:</text><text fill="#000000" font-family="sans-serif" font-size="13" lengthAdjust="spacing" textLength="145.1265" x="730.2031" y="882.2031">- Magic number "ADPI"</text><text fill="#000000" font-family="sans-serif" font-size="13" lengthAdjust="spacing" textLength="59.1348" x="730.2031" y="897.5137">- Version</text><text fill="#000000" font-family="sans-serif" font-size="13" lengthAdjust="spacing" textLength="149.5381" x="730.2031" y="912.8242">- Pipeline configuration</text><text fill="#000000" font-family="sans-serif" font-size="13" lengthAdjust="spacing" textLength="119.958" x="730.2031" y="928.1348">- Original filename</text><text fill="#000000" font-family="sans-serif" font-size="13" lengthAdjust="spacing" textLength="92.187" x="730.2031" y="943.4453">- Chunk count</text><rect fill="#E3F2FD" height="34.1328" rx="12.5" ry="12.5" style="stroke:#2196F3;stroke-width:0.5;" width="172.4082" x="531.7949" y="883.1895"/><text fill="#000000" font-family="sans-serif" font-size="12" lengthAdjust="spacing" textLength="152.4082" x="541.7949" y="904.791">Write .adapipe File Header</text><path d="M698.8994,961.1875 L698.8994,992.8086 L678.8994,996.8086 L698.8994,1000.8086 L698.8994,1032.4297 A0,0 0 0 0 698.8994,1032.4297 L863.7563,1032.4297 A0,0 0 0 0 863.7563,1032.4297 L863.7563,971.1875 L853.7563,961.1875 L698.8994,961.1875 A0,0 0 0 0 698.8994,961.1875 " fill="#FEFFDD" style="stroke:#181818;stroke-width:0.5;"/><path d="M853.7563,961.1875 L853.7563,971.1875 L863.7563,971.1875 L853.7563,961.1875 " fill="#FEFFDD" style="stroke:#181818;stroke-width:0.5;"/><text fill="#000000" font-family="sans-serif" font-size="13" lengthAdjust="spacing" textLength="100.2231" x="704.8994" y="978.7559">For each chunk:</text><text fill="#000000" font-family="sans-serif" font-size="13" lengthAdjust="spacing" textLength="113.5215" x="704.8994" y="994.0664">- Length (4 bytes)</text><text fill="#000000" font-family="sans-serif" font-size="13" lengthAdjust="spacing" textLength="143.8569" x="704.8994" y="1009.377">- Checksum (32 bytes)</text><text fill="#000000" font-family="sans-serif" font-size="13" lengthAdjust="spacing" textLength="102.5083" x="704.8994" y="1024.6875">- Data (variable)</text><rect fill="#E3F2FD" height="34.1328" rx="12.5" ry="12.5" style="stroke:#2196F3;stroke-width:0.5;" width="121.8008" x="557.0986" y="979.7422"/><text fill="#000000" font-family="sans-serif" font-size="12" lengthAdjust="spacing" textLength="101.8008" x="567.0986" y="1001.3438">Write Chunk Data</text><path d="M683.4365,1042.4297 L683.4365,1066.3955 L663.4365,1070.3955 L683.4365,1074.3955 L683.4365,1098.3613 A0,0 0 0 0 683.4365,1098.3613 L840.5811,1098.3613 A0,0 0 0 0 840.5811,1098.3613 L840.5811,1052.4297 L830.5811,1042.4297 L683.4365,1042.4297 A0,0 0 0 0 683.4365,1042.4297 " fill="#FEFFDD" style="stroke:#181818;stroke-width:0.5;"/><path d="M830.5811,1042.4297 L830.5811,1052.4297 L840.5811,1052.4297 L830.5811,1042.4297 " fill="#FEFFDD" style="stroke:#181818;stroke-width:0.5;"/><text fill="#000000" font-family="sans-serif" font-size="13" lengthAdjust="spacing" textLength="101.7974" x="689.4365" y="1059.998">Footer contains:</text><text fill="#000000" font-family="sans-serif" font-size="13" lengthAdjust="spacing" textLength="110.811" x="689.4365" y="1075.3086">- Total checksum</text><text fill="#000000" font-family="sans-serif" font-size="13" lengthAdjust="spacing" textLength="136.1445" x="689.4365" y="1090.6191">- Creation timestamp</text><rect fill="#E3F2FD" height="34.1328" rx="12.5" ry="12.5" style="stroke:#2196F3;stroke-width:0.5;" width="90.875" x="572.5615" y="1053.3291"/><text fill="#000000" font-family="sans-serif" font-size="12" lengthAdjust="spacing" textLength="70.875" x="582.5615" y="1074.9307">Write Footer</text><path d="M726.1895,1108.3613 L726.1895,1147.6377 L706.1895,1151.6377 L726.1895,1155.6377 L726.1895,1194.9141 A0,0 0 0 0 726.1895,1194.9141 L897.502,1194.9141 A0,0 0 0 0 897.502,1194.9141 L897.502,1118.3613 L887.502,1108.3613 L726.1895,1108.3613 A0,0 0 0 0 726.1895,1108.3613 " fill="#FEFFDD" style="stroke:#181818;stroke-width:0.5;"/><path d="M887.502,1108.3613 L887.502,1118.3613 L897.502,1118.3613 L887.502,1108.3613 " fill="#FEFFDD" style="stroke:#181818;stroke-width:0.5;"/><text fill="#000000" font-family="sans-serif" font-size="13" lengthAdjust="spacing" textLength="36.5244" x="732.1895" y="1125.9297">Store:</text><text fill="#000000" font-family="sans-serif" font-size="13" lengthAdjust="spacing" textLength="78.4253" x="732.1895" y="1141.2402">- Pipeline ID</text><text fill="#000000" font-family="sans-serif" font-size="13" lengthAdjust="spacing" textLength="72.395" x="732.1895" y="1156.5508">- File paths</text><text fill="#000000" font-family="sans-serif" font-size="13" lengthAdjust="spacing" textLength="43.7163" x="732.1895" y="1171.8613">- Sizes</text><text fill="#000000" font-family="sans-serif" font-size="13" lengthAdjust="spacing" textLength="150.3125" x="732.1895" y="1187.1719">- Processing timestamp</text><rect fill="#E3F2FD" height="34.1328" rx="12.5" ry="12.5" style="stroke:#2196F3;stroke-width:0.5;" width="176.3809" x="529.8086" y="1134.5713"/><text fill="#000000" font-family="sans-serif" font-size="12" lengthAdjust="spacing" textLength="156.3809" x="539.8086" y="1156.1729">Save Metadata to Database</text><line style="stroke:#000000;stroke-width:1.5;" x1="341.7197" x2="341.7197" y1="49.7852" y2="1291.0469"/><line style="stroke:#000000;stroke-width:1.5;" x1="1118.9912" x2="1118.9912" y1="49.7852" y2="1291.0469"/><line style="stroke:#1565C0;stroke-width:1;" x1="90.1299" x2="90.1299" y1="95.9844" y2="124.5391"/><polygon fill="#1565C0" points="86.1299,114.5391,90.1299,124.5391,94.1299,114.5391,90.1299,118.5391" style="stroke:#1565C0;stroke-width:1;"/><line style="stroke:#1565C0;stroke-width:1;" x1="90.1299" x2="90.1299" y1="1249.0469" y2="1269.0469"/><polygon fill="#1565C0" points="86.1299,1259.0469,90.1299,1269.0469,94.1299,1259.0469,90.1299,1263.0469" style="stroke:#1565C0;stroke-width:1;"/><line style="stroke:#1565C0;stroke-width:1;" x1="617.999" x2="617.999" y1="232.2588" y2="263.1582"/><polygon fill="#1565C0" points="613.999,253.1582,617.999,263.1582,621.999,253.1582,617.999,257.1582" style="stroke:#1565C0;stroke-width:1;"/><line style="stroke:#1565C0;stroke-width:1;" x1="617.999" x2="617.999" y1="297.291" y2="318.7793"/><polygon fill="#1565C0" points="613.999,308.7793,617.999,318.7793,621.999,308.7793,617.999,312.7793" style="stroke:#1565C0;stroke-width:1;"/><line style="stroke:#1565C0;stroke-width:1;" x1="418.1299" x2="418.1299" y1="404.5332" y2="424.5332"/><polygon fill="#1565C0" points="414.1299,414.5332,418.1299,424.5332,422.1299,414.5332,418.1299,418.5332" style="stroke:#1565C0;stroke-width:1;"/><line style="stroke:#1565C0;stroke-width:1;" x1="544.9502" x2="544.9502" y1="404.5332" y2="424.5332"/><polygon fill="#1565C0" points="540.9502,414.5332,544.9502,424.5332,548.9502,414.5332,544.9502,418.5332" style="stroke:#1565C0;stroke-width:1;"/><line style="stroke:#1565C0;stroke-width:1;" x1="689.7705" x2="689.7705" y1="404.5332" y2="424.5332"/><polygon fill="#1565C0" points="685.7705,414.5332,689.7705,424.5332,693.7705,414.5332,689.7705,418.5332" style="stroke:#1565C0;stroke-width:1;"/><line style="stroke:#1565C0;stroke-width:1;" x1="835.2295" x2="835.2295" y1="404.5332" y2="424.5332"/><polygon fill="#1565C0" points="831.2295,414.5332,835.2295,424.5332,839.2295,414.5332,835.2295,418.5332" style="stroke:#1565C0;stroke-width:1;"/><line style="stroke:#1565C0;stroke-width:1;" x1="418.1299" x2="418.1299" y1="458.666" y2="478.666"/><polygon fill="#1565C0" points="414.1299,468.666,418.1299,478.666,422.1299,468.666,418.1299,472.666" style="stroke:#1565C0;stroke-width:1;"/><line style="stroke:#1565C0;stroke-width:1;" x1="544.9502" x2="544.9502" y1="458.666" y2="478.666"/><polygon fill="#1565C0" points="540.9502,468.666,544.9502,478.666,548.9502,468.666,544.9502,472.666" style="stroke:#1565C0;stroke-width:1;"/><line style="stroke:#1565C0;stroke-width:1;" x1="689.7705" x2="689.7705" y1="458.666" y2="478.666"/><polygon fill="#1565C0" points="685.7705,468.666,689.7705,478.666,693.7705,468.666,689.7705,472.666" style="stroke:#1565C0;stroke-width:1;"/><line style="stroke:#1565C0;stroke-width:1;" x1="835.2295" x2="835.2295" y1="458.666" y2="478.666"/><polygon fill="#1565C0" points="831.2295,468.666,835.2295,478.666,839.2295,468.666,835.2295,472.666" style="stroke:#1565C0;stroke-width:1;"/><line style="stroke:#1565C0;stroke-width:1;" x1="617.999" x2="617.999" y1="367.0449" y2="398.5332"/><polygon fill="#1565C0" points="613.999,388.5332,617.999,398.5332,621.999,388.5332,617.999,392.5332" style="stroke:#1565C0;stroke-width:1;"/><line style="stroke:#1565C0;stroke-width:1;" x1="617.999" x2="617.999" y1="584.4971" y2="639.2617"/><polygon fill="#1565C0" points="613.999,629.2617,617.999,639.2617,621.999,629.2617,617.999,633.2617" style="stroke:#1565C0;stroke-width:1;"/><line style="stroke:#1565C0;stroke-width:1;" x1="617.999" x2="617.999" y1="673.3945" y2="720.5039"/><polygon fill="#1565C0" points="613.999,710.5039,617.999,720.5039,621.999,710.5039,617.999,714.5039" style="stroke:#1565C0;stroke-width:1;"/><line style="stroke:#1565C0;stroke-width:1;" x1="617.999" x2="617.999" y1="484.666" y2="550.3643"/><polygon fill="#1565C0" points="613.999,540.3643,617.999,550.3643,621.999,540.3643,617.999,544.3643" style="stroke:#1565C0;stroke-width:1;"/><line style="stroke:#1565C0;stroke-width:1;" x1="617.999" x2="617.999" y1="754.6367" y2="805.1914"/><polygon fill="#1565C0" points="613.999,795.1914,617.999,805.1914,621.999,795.1914,617.999,799.1914" style="stroke:#1565C0;stroke-width:1;"/><line style="stroke:#1565C0;stroke-width:1;" x1="617.999" x2="617.999" y1="839.3242" y2="883.1895"/><polygon fill="#1565C0" points="613.999,873.1895,617.999,883.1895,621.999,873.1895,617.999,877.1895" style="stroke:#1565C0;stroke-width:1;"/><line style="stroke:#1565C0;stroke-width:1;" x1="617.999" x2="617.999" y1="917.3223" y2="979.7422"/><polygon fill="#1565C0" points="613.999,969.7422,617.999,979.7422,621.999,969.7422,617.999,973.7422" style="stroke:#1565C0;stroke-width:1;"/><line style="stroke:#1565C0;stroke-width:1;" x1="617.999" x2="617.999" y1="1013.875" y2="1053.3291"/><polygon fill="#1565C0" points="613.999,1043.3291,617.999,1053.3291,621.999,1043.3291,617.999,1047.3291" style="stroke:#1565C0;stroke-width:1;"/><line style="stroke:#1565C0;stroke-width:1;" x1="617.999" x2="617.999" y1="1087.4619" y2="1134.5713"/><polygon fill="#1565C0" points="613.999,1124.5713,617.999,1134.5713,621.999,1124.5713,617.999,1128.5713" style="stroke:#1565C0;stroke-width:1;"/><line style="stroke:#1565C0;stroke-width:1;" x1="90.1299" x2="90.1299" y1="158.6719" y2="182.2266"/><line style="stroke:#1565C0;stroke-width:1;" x1="90.1299" x2="617.999" y1="182.2266" y2="182.2266"/><line style="stroke:#1565C0;stroke-width:1;" x1="617.999" x2="617.999" y1="182.2266" y2="198.126"/><polygon fill="#1565C0" points="613.999,188.126,617.999,198.126,621.999,188.126,617.999,192.126" style="stroke:#1565C0;stroke-width:1;"/><line style="stroke:#1565C0;stroke-width:1;" x1="617.999" x2="617.999" y1="1168.7041" y2="1199.3091"/><line style="stroke:#1565C0;stroke-width:1;" x1="617.999" x2="90.1299" y1="1199.3091" y2="1199.3091"/><line style="stroke:#1565C0;stroke-width:1;" x1="90.1299" x2="90.1299" y1="1199.3091" y2="1214.9141"/><polygon fill="#1565C0" points="86.1299,1204.9141,90.1299,1214.9141,94.1299,1204.9141,90.1299,1208.9141" style="stroke:#1565C0;stroke-width:1;"/><text fill="#000000" font-family="sans-serif" font-size="18" lengthAdjust="spacing" textLength="39.041" x="158.8394" y="67.1875">User</text><text fill="#000000" font-family="sans-serif" font-size="18" lengthAdjust="spacing" textLength="61.8398" x="699.4355" y="67.1875">System</text><!--SRC=[bLLDSzis4BtpLo3kHJweem_B4rCdMIHbJMHROyN9JAONY5nH69402u1EvRh_lGk0ueVYDXEE3kA-vRwtYzt5XmHsZ0DPBHTtdszNpo7vBHn7eoZmFbI8Cuw6DzVHk3O6iwTF3XXEhYVpGGtOE8kdC7p0G1-ZINXJGvNrQZwB9cSVF3xD7XOOB8gYSTXWZVdcus3WUUh0U44bpGcDDNjX-aZ-zWW-jpG-f5AKF9cBJCWc6uSAcO1qI6sSIIc-Ezif6MiF6Cq5JzwDwFHqt5gXA_GVpzDCPrWZgYc9Cl7TEAT6TPz4386r534enNXArgo035FrlBTd1VBDKvfAxVbBNfJQUayzBZGGoTAzHcRZHGefNbW2oaT35REWUc_VJX59BFYEfQMacWbkeP37ybYOLtA08-a9-vzcbnxmX1WQbB4vAWtvc-T_eHbBA59RBMSo-cI-X_X0TeOR_c9AAslz0fBjZgG0cJFCKF3AV8fLTDMrYFqde8dBvHuqHMywzVnDaJ5N1yAu5iXQyeFwW_S2sD4oqpuPtjzUdecpJaHfMSQwbE2gj0n8Jy6V9N3DJCh6Pa-ejprgKCwmL9WHLeJiCjeMjnFoO8_ThywkuXXEBKHeIXb_ps7qCuVnpnmUfbQ7LT1DSusJa6MGaTWw5dLN8LPgbh5Nqs4vLeaLMB_v-XchBa6ryi9Xmbur3N6n1jbtZ7K7DNrwKSsPlz4q1JBqoLpaXGHxn5CBTQJP0SjI8PdUvxPDpTCdjrBeZ679GMbYE_EonhufdI12CyfZI1hxufKLf1SZ7_flCsYGrRShqjjHx5UbdRN9hALsvBSw_nV4pi9DVpIvxY_czxLjlgVu6mtwQv4TX-F1f4A-uhVumImm1sLQ5L8CT_nlKMFVJP0gyr-GjBcR6KcTzybmrDHtDViKZhkik8zyFArjwqGXgGPfYjXN907oEqwS6KutQtSuYo3FniePpUHgxDLg-TpJbCM4b_aMeOjPi5vUd1Q1EksT_rb9ZnZS3HpISff3jLjC7yQuVNLxGpYb3WpiVkZeYx3oGEEzcmSdRmKynPFfNP7Mb9yAJthZKTlkri4BbOpQFlk1EXBu9d-WDSQpidmMcfh1T4IELOBDcsYMOyFIl6WJREXBi_W8RZeZPalL-VxVQ77QQ7LPbq7t7d0xTyDUmVrhtJVlSLStZ_zOQdFfT3fXYXUIABn_0G00]--></g></svg>