<svg xmlns="http://www.w3.org/2000/svg" xmlns:xlink="http://www.w3.org/1999/xlink" contentStyleType="text/css" height="1302px" preserveAspectRatio="none" style="width:314px;height:1302px;background:#FFFFFF;" version="1.1" viewBox="0 0 314 1302" width="314px" zoomAndPan="magnify"><title>Pipeline Processing Flow</title><defs/><g><text fill="#000000" font-family="Arial" font-size="22" font-weight="bold" lengthAdjust="spacing" textLength="265.2891" x="23.2344" y="35.6357">Pipeline Processing Flow</text><ellipse cx="99.7051" cy="61.2979" fill="#FFFFFF" rx="10" ry="10" style="stroke:#000000;stroke-width:1;"/><rect fill="#E3F2FD" height="33.7988" rx="12.5" ry="12.5" style="stroke:#1976D2;stroke-width:1;" width="167.3867" x="16.0117" y="91.2979"/><text fill="#000000" font-family="Arial" font-size="12" lengthAdjust="spacing" textLength="147.3867" x="26.0117" y="112.5537">User invokes CLI command</text><rect fill="#E3F2FD" height="75.1953" rx="12.5" ry="12.5" style="stroke:#1976D2;stroke-width:1;" width="152.7266" x="23.3418" y="145.0967"/><text fill="#000000" font-family="Arial" font-size="12" lengthAdjust="spacing" textLength="132.7266" x="33.3418" y="166.3525">Bootstrap layer initializes</text><text fill="#000000" font-family="Arial" font-size="12" lengthAdjust="spacing" textLength="78.709" x="33.3418" y="180.1514">- Configuration</text><text fill="#000000" font-family="Arial" font-size="12" lengthAdjust="spacing" textLength="84.0527" x="33.3418" y="193.9502">- Dependencies</text><text fill="#000000" font-family="Arial" font-size="12" lengthAdjust="spacing" textLength="58.6992" x="33.3418" y="207.749">- Database</text><rect fill="#E3F2FD" height="47.5977" rx="12.5" ry="12.5" style="stroke:#1976D2;stroke-width:1;" width="150.7344" x="24.3379" y="240.292"/><text fill="#000000" font-family="Arial" font-size="12" lengthAdjust="spacing" textLength="130.7344" x="34.3379" y="261.5479">Application layer creates</text><text fill="#000000" font-family="Arial" font-size="12" lengthAdjust="spacing" textLength="90.7266" x="34.3379" y="275.3467">Pipeline instance</text><rect fill="#FFFFFF" height="826.7813" style="stroke:#000000;stroke-width:1;" width="208.4102" x="6" y="297.8896"/><path d="M114.7305,297.8896 L114.7305,304.6885 L104.7305,314.6885 L6,314.6885 " fill="none" style="stroke:#000000;stroke-width:1;"/><text fill="#000000" font-family="Arial" font-size="12" lengthAdjust="spacing" textLength="98.7305" x="9" y="310.1455">Pipeline Execution</text><rect fill="#E3F2FD" height="33.7988" rx="12.5" ry="12.5" style="stroke:#1976D2;stroke-width:1;" width="94.7246" x="52.3428" y="331.6885"/><text fill="#000000" font-family="Arial" font-size="12" lengthAdjust="spacing" textLength="74.7246" x="62.3428" y="352.9443">Load input file</text><rect fill="#E3F2FD" height="33.7988" rx="12.5" ry="12.5" style="stroke:#1976D2;stroke-width:1;" width="126.0547" x="36.6777" y="385.4873"/><text fill="#000000" font-family="Arial" font-size="12" lengthAdjust="spacing" textLength="106.0547" x="46.6777" y="406.7432">Split file into chunks</text><rect fill="#FFFFFF" height="615.7871" style="stroke:#000000;stroke-width:1;" width="188.4102" x="16" y="429.2861"/><path d="M108.7109,429.2861 L108.7109,436.085 L98.7109,446.085 L16,446.085 " fill="none" style="stroke:#000000;stroke-width:1;"/><text fill="#000000" font-family="Arial" font-size="12" lengthAdjust="spacing" textLength="82.7109" x="19" y="441.542">For each chunk</text><rect fill="#E3F2FD" height="33.7988" rx="12.5" ry="12.5" style="stroke:#1976D2;stroke-width:1;" width="130.0508" x="34.6797" y="463.085"/><text fill="#000000" font-family="Arial" font-size="12" lengthAdjust="spacing" textLength="110.0508" x="44.6797" y="484.3408">Read chunk from file</text><rect fill="#E3F2FD" height="33.7988" rx="12.5" ry="12.5" style="stroke:#1976D2;stroke-width:1;" width="110.0352" x="44.6875" y="565.7832"/><text fill="#000000" font-family="Arial" font-size="12" lengthAdjust="spacing" textLength="90.0352" x="54.6875" y="587.0391">Compress chunk</text><polygon fill="#E3F2FD" points="38,516.8838,161.4102,516.8838,173.4102,528.8838,161.4102,540.8838,38,540.8838,26,528.8838,38,516.8838" style="stroke:#1976D2;stroke-width:1;"/><text fill="#000000" font-family="Arial" font-size="12" lengthAdjust="spacing" textLength="18.6738" x="103.7051" y="552.1396">yes</text><text fill="#000000" font-family="Arial" font-size="12" lengthAdjust="spacing" textLength="123.4102" x="38" y="533.2402">Compression enabled?</text><text fill="#000000" font-family="Arial" font-size="12" lengthAdjust="spacing" textLength="13.3477" x="173.4102" y="526.3408">no</text><polygon fill="#E3F2FD" points="99.7051,619.582,111.7051,631.582,99.7051,643.582,87.7051,631.582,99.7051,619.582" style="stroke:#1976D2;stroke-width:1;"/><rect fill="#E3F2FD" height="33.7988" rx="12.5" ry="12.5" style="stroke:#1976D2;stroke-width:1;" width="96.0371" x="51.6865" y="712.4814"/><text fill="#000000" font-family="Arial" font-size="12" lengthAdjust="spacing" textLength="76.0371" x="61.6865" y="733.7373">Encrypt chunk</text><polygon fill="#E3F2FD" points="44.999,663.582,154.4111,663.582,166.4111,675.582,154.4111,687.582,44.999,687.582,32.999,675.582,44.999,663.582" style="stroke:#1976D2;stroke-width:1;"/><text fill="#000000" font-family="Arial" font-size="12" lengthAdjust="spacing" textLength="18.6738" x="103.7051" y="698.8379">yes</text><text fill="#000000" font-family="Arial" font-size="12" lengthAdjust="spacing" textLength="109.4121" x="44.999" y="679.9385">Encryption enabled?</text><text fill="#000000" font-family="Arial" font-size="12" lengthAdjust="spacing" textLength="13.3477" x="166.4111" y="673.0391">no</text><polygon fill="#E3F2FD" points="99.7051,766.2803,111.7051,778.2803,99.7051,790.2803,87.7051,778.2803,99.7051,766.2803" style="stroke:#1976D2;stroke-width:1;"/><rect fill="#E3F2FD" height="33.7988" rx="12.5" ry="12.5" style="stroke:#1976D2;stroke-width:1;" width="127.3789" x="36.0156" y="810.2803"/><text fill="#000000" font-family="Arial" font-size="12" lengthAdjust="spacing" textLength="107.3789" x="46.0156" y="831.5361">Calculate checksum</text><rect fill="#E3F2FD" height="47.5977" rx="12.5" ry="12.5" style="stroke:#1976D2;stroke-width:1;" width="137.4043" x="31.0029" y="864.0791"/><text fill="#000000" font-family="Arial" font-size="12" lengthAdjust="spacing" textLength="117.4043" x="41.0029" y="885.335">Store chunk metadata</text><text fill="#000000" font-family="Arial" font-size="12" lengthAdjust="spacing" textLength="62.0508" x="41.0029" y="899.1338">in database</text><rect fill="#E3F2FD" height="47.5977" rx="12.5" ry="12.5" style="stroke:#1976D2;stroke-width:1;" width="142.0508" x="28.6797" y="931.6768"/><text fill="#000000" font-family="Arial" font-size="12" lengthAdjust="spacing" textLength="122.0508" x="38.6797" y="952.9326">Write processed chunk</text><text fill="#000000" font-family="Arial" font-size="12" lengthAdjust="spacing" textLength="65.3789" x="38.6797" y="966.7314">to output file</text><rect fill="#E3F2FD" height="33.7988" rx="12.5" ry="12.5" style="stroke:#1976D2;stroke-width:1;" width="86" x="56.7051" y="999.2744"/><text fill="#000000" font-family="Arial" font-size="12" lengthAdjust="spacing" textLength="66" x="66.7051" y="1020.5303">Emit metrics</text><rect fill="#E3F2FD" height="47.5977" rx="12.5" ry="12.5" style="stroke:#1976D2;stroke-width:1;" width="146.75" x="26.3301" y="1065.0732"/><text fill="#000000" font-family="Arial" font-size="12" lengthAdjust="spacing" textLength="126.75" x="36.3301" y="1086.3291">Store pipeline metadata</text><text fill="#000000" font-family="Arial" font-size="12" lengthAdjust="spacing" textLength="62.0508" x="36.3301" y="1100.1279">in database</text><rect fill="#E3F2FD" height="33.7988" rx="12.5" ry="12.5" style="stroke:#1976D2;stroke-width:1;" width="157.3848" x="21.0127" y="1144.6709"/><text fill="#000000" font-family="Arial" font-size="12" lengthAdjust="spacing" textLength="137.3848" x="31.0127" y="1165.9268">Generate summary report</text><path d="M130.7051,1188.4697 L130.7051,1237.7656 L110.7051,1241.7656 L130.7051,1245.7656 L130.7051,1295.0615 A0,0 0 0 0 130.7051,1295.0615 L307.7578,1295.0615 A0,0 0 0 0 307.7578,1295.0615 L307.7578,1198.4697 L297.7578,1188.4697 L130.7051,1188.4697 A0,0 0 0 0 130.7051,1188.4697 " fill="#FFFFFF" style="stroke:#000000;stroke-width:1;"/><path d="M297.7578,1188.4697 L297.7578,1198.4697 L307.7578,1198.4697 L297.7578,1188.4697 " fill="#FFFFFF" style="stroke:#000000;stroke-width:1;"/><text fill="#000000" font-family="Arial" font-size="12" font-weight="bold" lengthAdjust="spacing" textLength="107.3789" x="136.7051" y="1204.7256">Processing Stages</text><text fill="#000000" font-family="Arial" font-size="12" lengthAdjust="spacing" textLength="137.3965" x="136.7051" y="1218.5244">1. Compression (optional)</text><text fill="#000000" font-family="Arial" font-size="12" lengthAdjust="spacing" textLength="123.3984" x="136.7051" y="1232.3232">2. Encryption (optional)</text><text fill="#000000" font-family="Arial" font-size="12" lengthAdjust="spacing" textLength="156.0527" x="136.7051" y="1246.1221">3. Integrity check (checksum)</text><text fill="#000000" font-family="Arial" font-size="12" lengthAdjust="spacing" textLength="3.334" x="136.7051" y="1259.9209">&#160;</text><text fill="#000000" font-family="Arial" font-size="12" lengthAdjust="spacing" textLength="140.7539" x="136.7051" y="1273.7197">Each stage is configurable</text><text fill="#000000" font-family="Arial" font-size="12" lengthAdjust="spacing" textLength="153.4629" x="136.7051" y="1287.5186">and can be enabled/disabled</text><ellipse cx="99.7051" cy="1241.7656" fill="none" rx="11" ry="11" style="stroke:#000000;stroke-width:1;"/><ellipse cx="99.7051" cy="1241.7656" fill="#FFFFFF" rx="6" ry="6" style="stroke:#000000;stroke-width:1;"/><line style="stroke:#000000;stroke-width:1;" x1="99.7051" x2="99.7051" y1="71.2979" y2="91.2979"/><polygon fill="#000000" points="95.7051,81.2979,99.7051,91.2979,103.7051,81.2979,99.7051,85.2979" style="stroke:#000000;stroke-width:1;"/><line style="stroke:#000000;stroke-width:1;" x1="99.7051" x2="99.7051" y1="125.0967" y2="145.0967"/><polygon fill="#000000" points="95.7051,135.0967,99.7051,145.0967,103.7051,135.0967,99.7051,139.0967" style="stroke:#000000;stroke-width:1;"/><line style="stroke:#000000;stroke-width:1;" x1="99.7051" x2="99.7051" y1="220.292" y2="240.292"/><polygon fill="#000000" points="95.7051,230.292,99.7051,240.292,103.7051,230.292,99.7051,234.292" style="stroke:#000000;stroke-width:1;"/><line style="stroke:#000000;stroke-width:1;" x1="99.7051" x2="99.7051" y1="365.4873" y2="385.4873"/><polygon fill="#000000" points="95.7051,375.4873,99.7051,385.4873,103.7051,375.4873,99.7051,379.4873" style="stroke:#000000;stroke-width:1;"/><line style="stroke:#000000;stroke-width:1;" x1="99.7051" x2="99.7051" y1="540.8838" y2="565.7832"/><polygon fill="#000000" points="95.7051,555.7832,99.7051,565.7832,103.7051,555.7832,99.7051,559.7832" style="stroke:#000000;stroke-width:1;"/><line style="stroke:#000000;stroke-width:1;" x1="173.4102" x2="185.4102" y1="528.8838" y2="528.8838"/><polygon fill="#000000" points="181.4102,572.6826,185.4102,582.6826,189.4102,572.6826,185.4102,576.6826" style="stroke:#000000;stroke-width:1;"/><line style="stroke:#000000;stroke-width:1;" x1="185.4102" x2="185.4102" y1="528.8838" y2="631.582"/><line style="stroke:#000000;stroke-width:1;" x1="185.4102" x2="111.7051" y1="631.582" y2="631.582"/><polygon fill="#000000" points="121.7051,627.582,111.7051,631.582,121.7051,635.582,117.7051,631.582" style="stroke:#000000;stroke-width:1;"/><line style="stroke:#000000;stroke-width:1;" x1="99.7051" x2="99.7051" y1="599.582" y2="619.582"/><polygon fill="#000000" points="95.7051,609.582,99.7051,619.582,103.7051,609.582,99.7051,613.582" style="stroke:#000000;stroke-width:1;"/><line style="stroke:#000000;stroke-width:1;" x1="99.7051" x2="99.7051" y1="496.8838" y2="516.8838"/><polygon fill="#000000" points="95.7051,506.8838,99.7051,516.8838,103.7051,506.8838,99.7051,510.8838" style="stroke:#000000;stroke-width:1;"/><line style="stroke:#000000;stroke-width:1;" x1="99.7051" x2="99.7051" y1="687.582" y2="712.4814"/><polygon fill="#000000" points="95.7051,702.4814,99.7051,712.4814,103.7051,702.4814,99.7051,706.4814" style="stroke:#000000;stroke-width:1;"/><line style="stroke:#000000;stroke-width:1;" x1="166.4111" x2="178.4111" y1="675.582" y2="675.582"/><polygon fill="#000000" points="174.4111,719.3809,178.4111,729.3809,182.4111,719.3809,178.4111,723.3809" style="stroke:#000000;stroke-width:1;"/><line style="stroke:#000000;stroke-width:1;" x1="178.4111" x2="178.4111" y1="675.582" y2="778.2803"/><line style="stroke:#000000;stroke-width:1;" x1="178.4111" x2="111.7051" y1="778.2803" y2="778.2803"/><polygon fill="#000000" points="121.7051,774.2803,111.7051,778.2803,121.7051,782.2803,117.7051,778.2803" style="stroke:#000000;stroke-width:1;"/><line style="stroke:#000000;stroke-width:1;" x1="99.7051" x2="99.7051" y1="746.2803" y2="766.2803"/><polygon fill="#000000" points="95.7051,756.2803,99.7051,766.2803,103.7051,756.2803,99.7051,760.2803" style="stroke:#000000;stroke-width:1;"/><line style="stroke:#000000;stroke-width:1;" x1="99.7051" x2="99.7051" y1="643.582" y2="663.582"/><polygon fill="#000000" points="95.7051,653.582,99.7051,663.582,103.7051,653.582,99.7051,657.582" style="stroke:#000000;stroke-width:1;"/><line style="stroke:#000000;stroke-width:1;" x1="99.7051" x2="99.7051" y1="790.2803" y2="810.2803"/><polygon fill="#000000" points="95.7051,800.2803,99.7051,810.2803,103.7051,800.2803,99.7051,804.2803" style="stroke:#000000;stroke-width:1;"/><line style="stroke:#000000;stroke-width:1;" x1="99.7051" x2="99.7051" y1="844.0791" y2="864.0791"/><polygon fill="#000000" points="95.7051,854.0791,99.7051,864.0791,103.7051,854.0791,99.7051,858.0791" style="stroke:#000000;stroke-width:1;"/><line style="stroke:#000000;stroke-width:1;" x1="99.7051" x2="99.7051" y1="911.6768" y2="931.6768"/><polygon fill="#000000" points="95.7051,921.6768,99.7051,931.6768,103.7051,921.6768,99.7051,925.6768" style="stroke:#000000;stroke-width:1;"/><line style="stroke:#000000;stroke-width:1;" x1="99.7051" x2="99.7051" y1="979.2744" y2="999.2744"/><polygon fill="#000000" points="95.7051,989.2744,99.7051,999.2744,103.7051,989.2744,99.7051,993.2744" style="stroke:#000000;stroke-width:1;"/><line style="stroke:#000000;stroke-width:1;" x1="99.7051" x2="99.7051" y1="419.2861" y2="463.085"/><polygon fill="#000000" points="95.7051,453.085,99.7051,463.085,103.7051,453.085,99.7051,457.085" style="stroke:#000000;stroke-width:1;"/><line style="stroke:#000000;stroke-width:1;" x1="99.7051" x2="99.7051" y1="1033.0732" y2="1065.0732"/><polygon fill="#000000" points="95.7051,1055.0732,99.7051,1065.0732,103.7051,1055.0732,99.7051,1059.0732" style="stroke:#000000;stroke-width:1;"/><line style="stroke:#000000;stroke-width:1;" x1="99.7051" x2="99.7051" y1="287.8896" y2="331.6885"/><polygon fill="#000000" points="95.7051,321.6885,99.7051,331.6885,103.7051,321.6885,99.7051,325.6885" style="stroke:#000000;stroke-width:1;"/><line style="stroke:#000000;stroke-width:1;" x1="99.7051" x2="99.7051" y1="1112.6709" y2="1144.6709"/><polygon fill="#000000" points="95.7051,1134.6709,99.7051,1144.6709,103.7051,1134.6709,99.7051,1138.6709" style="stroke:#000000;stroke-width:1;"/><line style="stroke:#000000;stroke-width:1;" x1="99.7051" x2="99.7051" y1="1178.4697" y2="1230.7656"/><polygon fill="#000000" points="95.7051,1220.7656,99.7051,1230.7656,103.7051,1220.7656,99.7051,1224.7656" style="stroke:#000000;stroke-width:1;"/><!--SRC=[ZLDDRnD13Btlhp3baaQYAAa48ZsWDX-eKeLG8yIb5tVMIQpCUaOpta90_7SykqcRIaLmc_LxyyP-p_jADzGGH8yiLTwoH4pOG4qhRBqkWkXdDFmoCVgNyIN_91YDZq1qoW-ikwkGQahJu4E2rwCFxz_DNcIXswvJQANUC-VdY_5YLbNAwWc-S2JFOeSK7ENCieQ53z-hAYichQh9rqm9M1x2bZ9CRwx1XQP1gIyCkmf1ioQCu77NqLXj4civtyaRc0PPyRfDg1oa56OKIMeInprXXehtcAbeNSResNNKlPfBX5g8ZqsoM5VY2j-cj0aA-UGHdlyWrvRQ2Vog02Ot0Mkx4rk55VjooufBUwR_DaW3k4qhsznXHveBiuhGRNgurxFBjsIANGbMAJHFiW2yWi4qD34L5qs21EyzrHzFmNP0OB2ZVDeHJUR0wwKkkZBvJ32Gq9FC9buz2S_5fLtKV-dkQVybEvcYTwqtXurERflRPZ_9PAaXqNxCXXHhY-bEMA1-ogiZVajirsE_EhHtvgwu6bfzPdjfhZ7VJIwnowMtttqStLln4E5VdZFkv1C9fTAkTTfWsa6Y699Ub5KDiQea69PulL7J7GwF5dgfkAOy75fzT0R78Gr2PohwOi_u38vyVWQTdy6rAArjtbrl5mmEhfsMEUPbLt9v1zXYFIo-9MMW_ItWKE2U3kczhJbtXyeIWT9vzGS0]--></g></svg>