<svg xmlns="http://www.w3.org/2000/svg" xmlns:xlink="http://www.w3.org/1999/xlink" contentStyleType="text/css" height="890px" preserveAspectRatio="none" style="width:2214px;height:890px;background:#FFFFFF;" version="1.1" viewBox="0 0 2214 890" width="2214px" zoomAndPan="magnify"><title>Component Interaction Diagram - Pipeline Processing</title><defs/><g><text fill="#000000" font-family="sans-serif" font-size="14" font-weight="bold" lengthAdjust="spacing" textLength="389.8809" x="905.0596" y="23.5352">Component Interaction Diagram - Pipeline Processing</text><!--cluster Presentation Layer--><g id="cluster_Presentation Layer"><path d="M706.5,43.4883 L841.9492,43.4883 A3.75,3.75 0 0 1 844.4492,45.9883 L851.4492,65.9766 L1040.5,65.9766 A2.5,2.5 0 0 1 1043,68.4766 L1043,138.4683 A2.5,2.5 0 0 1 1040.5,140.9683 L706.5,140.9683 A2.5,2.5 0 0 1 704,138.4683 L704,45.9883 A2.5,2.5 0 0 1 706.5,43.4883 " fill="none" style="stroke:#000000;stroke-width:1.5;"/><line style="stroke:#000000;stroke-width:1.5;" x1="704" x2="851.4492" y1="65.9766" y2="65.9766"/><text fill="#000000" font-family="sans-serif" font-size="14" font-weight="bold" lengthAdjust="spacing" textLength="134.4492" x="708" y="59.0234">Presentation Layer</text></g><!--cluster Application Layer--><g id="cluster_Application Layer"><path d="M600.5,189.9683 L727.2266,189.9683 A3.75,3.75 0 0 1 729.7266,192.4683 L736.7266,212.4566 L1006.5,212.4566 A2.5,2.5 0 0 1 1009,214.9566 L1009,420.8283 A2.5,2.5 0 0 1 1006.5,423.3283 L600.5,423.3283 A2.5,2.5 0 0 1 598,420.8283 L598,192.4683 A2.5,2.5 0 0 1 600.5,189.9683 " fill="none" style="stroke:#000000;stroke-width:1.5;"/><line style="stroke:#000000;stroke-width:1.5;" x1="598" x2="736.7266" y1="212.4566" y2="212.4566"/><text fill="#000000" font-family="sans-serif" font-size="14" font-weight="bold" lengthAdjust="spacing" textLength="125.7266" x="602" y="205.5034">Application Layer</text></g><!--cluster Domain Layer--><g id="cluster_Domain Layer"><path d="M8.5,472.3283 L108.8125,472.3283 A3.75,3.75 0 0 1 111.3125,474.8283 L118.3125,494.8166 L725.5,494.8166 A2.5,2.5 0 0 1 728,497.3166 L728,731.8383 A2.5,2.5 0 0 1 725.5,734.3383 L8.5,734.3383 A2.5,2.5 0 0 1 6,731.8383 L6,474.8283 A2.5,2.5 0 0 1 8.5,472.3283 " fill="none" style="stroke:#000000;stroke-width:1.5;"/><line style="stroke:#000000;stroke-width:1.5;" x1="6" x2="118.3125" y1="494.8166" y2="494.8166"/><text fill="#000000" font-family="sans-serif" font-size="14" font-weight="bold" lengthAdjust="spacing" textLength="99.3125" x="10" y="487.8634">Domain Layer</text></g><!--cluster Infrastructure Layer--><g id="cluster_Infrastructure Layer"><path d="M754.5,636.8483 L899.4854,636.8483 A3.75,3.75 0 0 1 901.9854,639.3483 L908.9854,659.3366 L2204.5,659.3366 A2.5,2.5 0 0 1 2207,661.8366 L2207,731.8383 A2.5,2.5 0 0 1 2204.5,734.3383 L754.5,734.3383 A2.5,2.5 0 0 1 752,731.8383 L752,639.3483 A2.5,2.5 0 0 1 754.5,636.8483 " fill="none" style="stroke:#000000;stroke-width:1.5;"/><line style="stroke:#000000;stroke-width:1.5;" x1="752" x2="908.9854" y1="659.3366" y2="659.3366"/><text fill="#000000" font-family="sans-serif" font-size="14" font-weight="bold" lengthAdjust="spacing" textLength="143.9854" x="756" y="652.3834">Infrastructure Layer</text></g><!--entity CLI--><g id="elem_CLI"><rect fill="#E3F2FD" height="46.4883" rx="2.5" ry="2.5" style="stroke:#2196F3;stroke-width:0.5;" width="124.9502" x="719.52" y="78.4883"/><rect fill="#E3F2FD" height="10" style="stroke:#2196F3;stroke-width:0.5;" width="15" x="824.4702" y="83.4883"/><rect fill="#E3F2FD" height="2" style="stroke:#2196F3;stroke-width:0.5;" width="4" x="822.4702" y="85.4883"/><rect fill="#E3F2FD" height="2" style="stroke:#2196F3;stroke-width:0.5;" width="4" x="822.4702" y="89.4883"/><text fill="#000000" font-family="sans-serif" font-size="14" lengthAdjust="spacing" textLength="84.9502" x="734.52" y="112.0234">CLI Interface</text></g><!--entity Config--><g id="elem_Config"><rect fill="#E3F2FD" height="46.4883" rx="2.5" ry="2.5" style="stroke:#2196F3;stroke-width:0.5;" width="147.7959" x="879.1" y="78.4883"/><rect fill="#E3F2FD" height="10" style="stroke:#2196F3;stroke-width:0.5;" width="15" x="1006.8959" y="83.4883"/><rect fill="#E3F2FD" height="2" style="stroke:#2196F3;stroke-width:0.5;" width="4" x="1004.8959" y="85.4883"/><rect fill="#E3F2FD" height="2" style="stroke:#2196F3;stroke-width:0.5;" width="4" x="1004.8959" y="89.4883"/><text fill="#000000" font-family="sans-serif" font-size="14" lengthAdjust="spacing" textLength="107.7959" x="894.1" y="112.0234">Config Manager</text></g><!--entity ProcessUC--><g id="elem_ProcessUC"><rect fill="#E3F2FD" height="46.4883" rx="2.5" ry="2.5" style="stroke:#2196F3;stroke-width:0.5;" width="171.7012" x="821.15" y="360.8383"/><rect fill="#E3F2FD" height="10" style="stroke:#2196F3;stroke-width:0.5;" width="15" x="972.8512" y="365.8383"/><rect fill="#E3F2FD" height="2" style="stroke:#2196F3;stroke-width:0.5;" width="4" x="970.8512" y="367.8383"/><rect fill="#E3F2FD" height="2" style="stroke:#2196F3;stroke-width:0.5;" width="4" x="970.8512" y="371.8383"/><text fill="#000000" font-family="sans-serif" font-size="14" lengthAdjust="spacing" textLength="131.7012" x="836.15" y="394.3734">ProcessFileUseCase</text></g><!--entity RestoreUC--><g id="elem_RestoreUC"><rect fill="#E3F2FD" height="46.4883" rx="2.5" ry="2.5" style="stroke:#2196F3;stroke-width:0.5;" width="171.5439" x="614.23" y="360.8383"/><rect fill="#E3F2FD" height="10" style="stroke:#2196F3;stroke-width:0.5;" width="15" x="765.7739" y="365.8383"/><rect fill="#E3F2FD" height="2" style="stroke:#2196F3;stroke-width:0.5;" width="4" x="763.7739" y="367.8383"/><rect fill="#E3F2FD" height="2" style="stroke:#2196F3;stroke-width:0.5;" width="4" x="763.7739" y="371.8383"/><text fill="#000000" font-family="sans-serif" font-size="14" lengthAdjust="spacing" textLength="131.5439" x="629.23" y="394.3734">RestoreFileUseCase</text></g><!--entity CmdHandler--><g id="elem_CmdHandler"><rect fill="#E3F2FD" height="46.4883" rx="2.5" ry="2.5" style="stroke:#2196F3;stroke-width:0.5;" width="167.1826" x="786.41" y="224.9683"/><rect fill="#E3F2FD" height="10" style="stroke:#2196F3;stroke-width:0.5;" width="15" x="933.5926" y="229.9683"/><rect fill="#E3F2FD" height="2" style="stroke:#2196F3;stroke-width:0.5;" width="4" x="931.5926" y="231.9683"/><rect fill="#E3F2FD" height="2" style="stroke:#2196F3;stroke-width:0.5;" width="4" x="931.5926" y="235.9683"/><text fill="#000000" font-family="sans-serif" font-size="14" lengthAdjust="spacing" textLength="127.1826" x="801.41" y="258.5034">Command Handler</text></g><!--entity Pipeline--><g id="elem_Pipeline"><rect fill="#E3F2FD" height="46.4883" rx="2.5" ry="2.5" style="stroke:#2196F3;stroke-width:0.5;" width="92.9785" x="21.51" y="507.3283"/><rect fill="#E3F2FD" height="10" style="stroke:#2196F3;stroke-width:0.5;" width="15" x="94.4885" y="512.3283"/><rect fill="#E3F2FD" height="2" style="stroke:#2196F3;stroke-width:0.5;" width="4" x="92.4885" y="514.3283"/><rect fill="#E3F2FD" height="2" style="stroke:#2196F3;stroke-width:0.5;" width="4" x="92.4885" y="518.3283"/><text fill="#000000" font-family="sans-serif" font-size="14" lengthAdjust="spacing" textLength="52.9785" x="36.51" y="540.8634">Pipeline</text></g><!--entity Stage--><g id="elem_Stage"><rect fill="#E3F2FD" height="46.4883" rx="2.5" ry="2.5" style="stroke:#2196F3;stroke-width:0.5;" width="130.0156" x="21.99" y="671.8483"/><rect fill="#E3F2FD" height="10" style="stroke:#2196F3;stroke-width:0.5;" width="15" x="132.0056" y="676.8483"/><rect fill="#E3F2FD" height="2" style="stroke:#2196F3;stroke-width:0.5;" width="4" x="130.0056" y="678.8483"/><rect fill="#E3F2FD" height="2" style="stroke:#2196F3;stroke-width:0.5;" width="4" x="130.0056" y="682.8483"/><text fill="#000000" font-family="sans-serif" font-size="14" lengthAdjust="spacing" textLength="90.0156" x="36.99" y="705.3834">PipelineStage</text></g><!--entity CompSvc--><g id="elem_CompSvc"><rect fill="#E3F2FD" height="46.4883" rx="2.5" ry="2.5" style="stroke:#2196F3;stroke-width:0.5;" width="176.6367" x="535.68" y="507.3283"/><rect fill="#E3F2FD" height="10" style="stroke:#2196F3;stroke-width:0.5;" width="15" x="692.3167" y="512.3283"/><rect fill="#E3F2FD" height="2" style="stroke:#2196F3;stroke-width:0.5;" width="4" x="690.3167" y="514.3283"/><rect fill="#E3F2FD" height="2" style="stroke:#2196F3;stroke-width:0.5;" width="4" x="690.3167" y="518.3283"/><text fill="#000000" font-family="sans-serif" font-size="14" lengthAdjust="spacing" textLength="136.6367" x="550.68" y="540.8634">CompressionService</text></g><!--entity EncSvc--><g id="elem_EncSvc"><rect fill="#E3F2FD" height="46.4883" rx="2.5" ry="2.5" style="stroke:#2196F3;stroke-width:0.5;" width="159.2051" x="149.4" y="507.3283"/><rect fill="#E3F2FD" height="10" style="stroke:#2196F3;stroke-width:0.5;" width="15" x="288.6051" y="512.3283"/><rect fill="#E3F2FD" height="2" style="stroke:#2196F3;stroke-width:0.5;" width="4" x="286.6051" y="514.3283"/><rect fill="#E3F2FD" height="2" style="stroke:#2196F3;stroke-width:0.5;" width="4" x="286.6051" y="518.3283"/><text fill="#000000" font-family="sans-serif" font-size="14" lengthAdjust="spacing" textLength="119.2051" x="164.4" y="540.8634">EncryptionService</text></g><!--entity CheckSvc--><g id="elem_CheckSvc"><rect fill="#E3F2FD" height="46.4883" rx="2.5" ry="2.5" style="stroke:#2196F3;stroke-width:0.5;" width="157.7559" x="343.12" y="507.3283"/><rect fill="#E3F2FD" height="10" style="stroke:#2196F3;stroke-width:0.5;" width="15" x="480.8759" y="512.3283"/><rect fill="#E3F2FD" height="2" style="stroke:#2196F3;stroke-width:0.5;" width="4" x="478.8759" y="514.3283"/><rect fill="#E3F2FD" height="2" style="stroke:#2196F3;stroke-width:0.5;" width="4" x="478.8759" y="518.3283"/><text fill="#000000" font-family="sans-serif" font-size="14" lengthAdjust="spacing" textLength="117.7559" x="358.12" y="540.8634">ChecksumService</text></g><!--entity Brotli--><g id="elem_Brotli"><rect fill="#E3F2FD" height="46.4883" rx="2.5" ry="2.5" style="stroke:#2196F3;stroke-width:0.5;" width="129.4893" x="1131.26" y="671.8483"/><rect fill="#E3F2FD" height="10" style="stroke:#2196F3;stroke-width:0.5;" width="15" x="1240.7493" y="676.8483"/><rect fill="#E3F2FD" height="2" style="stroke:#2196F3;stroke-width:0.5;" width="4" x="1238.7493" y="678.8483"/><rect fill="#E3F2FD" height="2" style="stroke:#2196F3;stroke-width:0.5;" width="4" x="1238.7493" y="682.8483"/><text fill="#000000" font-family="sans-serif" font-size="14" lengthAdjust="spacing" textLength="89.4893" x="1146.26" y="705.3834">BrotliAdapter</text></g><!--entity Zstd--><g id="elem_Zstd"><rect fill="#E3F2FD" height="46.4883" rx="2.5" ry="2.5" style="stroke:#2196F3;stroke-width:0.5;" width="123.4258" x="1295.29" y="671.8483"/><rect fill="#E3F2FD" height="10" style="stroke:#2196F3;stroke-width:0.5;" width="15" x="1398.7158" y="676.8483"/><rect fill="#E3F2FD" height="2" style="stroke:#2196F3;stroke-width:0.5;" width="4" x="1396.7158" y="678.8483"/><rect fill="#E3F2FD" height="2" style="stroke:#2196F3;stroke-width:0.5;" width="4" x="1396.7158" y="682.8483"/><text fill="#000000" font-family="sans-serif" font-size="14" lengthAdjust="spacing" textLength="83.4258" x="1310.29" y="705.3834">ZstdAdapter</text></g><!--entity AES--><g id="elem_AES"><rect fill="#E3F2FD" height="46.4883" rx="2.5" ry="2.5" style="stroke:#2196F3;stroke-width:0.5;" width="148.7324" x="767.63" y="671.8483"/><rect fill="#E3F2FD" height="10" style="stroke:#2196F3;stroke-width:0.5;" width="15" x="896.3624" y="676.8483"/><rect fill="#E3F2FD" height="2" style="stroke:#2196F3;stroke-width:0.5;" width="4" x="894.3624" y="678.8483"/><rect fill="#E3F2FD" height="2" style="stroke:#2196F3;stroke-width:0.5;" width="4" x="894.3624" y="682.8483"/><text fill="#000000" font-family="sans-serif" font-size="14" lengthAdjust="spacing" textLength="108.7324" x="782.63" y="705.3834">AesGcmAdapter</text></g><!--entity SHA--><g id="elem_SHA"><rect fill="#E3F2FD" height="46.4883" rx="2.5" ry="2.5" style="stroke:#2196F3;stroke-width:0.5;" width="144.2959" x="951.85" y="671.8483"/><rect fill="#E3F2FD" height="10" style="stroke:#2196F3;stroke-width:0.5;" width="15" x="1076.1459" y="676.8483"/><rect fill="#E3F2FD" height="2" style="stroke:#2196F3;stroke-width:0.5;" width="4" x="1074.1459" y="678.8483"/><rect fill="#E3F2FD" height="2" style="stroke:#2196F3;stroke-width:0.5;" width="4" x="1074.1459" y="682.8483"/><text fill="#000000" font-family="sans-serif" font-size="14" lengthAdjust="spacing" textLength="104.2959" x="966.85" y="705.3834">Sha256Adapter</text></g><!--entity Repo--><g id="elem_Repo"><rect fill="#E3F2FD" height="46.4883" rx="2.5" ry="2.5" style="stroke:#2196F3;stroke-width:0.5;" width="165.1045" x="1453.45" y="671.8483"/><rect fill="#E3F2FD" height="10" style="stroke:#2196F3;stroke-width:0.5;" width="15" x="1598.5545" y="676.8483"/><rect fill="#E3F2FD" height="2" style="stroke:#2196F3;stroke-width:0.5;" width="4" x="1596.5545" y="678.8483"/><rect fill="#E3F2FD" height="2" style="stroke:#2196F3;stroke-width:0.5;" width="4" x="1596.5545" y="682.8483"/><text fill="#000000" font-family="sans-serif" font-size="14" lengthAdjust="spacing" textLength="125.1045" x="1468.45" y="705.3834">PipelineRepository</text></g><!--entity Writer--><g id="elem_Writer"><rect fill="#E3F2FD" height="46.4883" rx="2.5" ry="2.5" style="stroke:#2196F3;stroke-width:0.5;" width="145.4785" x="1840.26" y="671.8483"/><rect fill="#E3F2FD" height="10" style="stroke:#2196F3;stroke-width:0.5;" width="15" x="1965.7385" y="676.8483"/><rect fill="#E3F2FD" height="2" style="stroke:#2196F3;stroke-width:0.5;" width="4" x="1963.7385" y="678.8483"/><rect fill="#E3F2FD" height="2" style="stroke:#2196F3;stroke-width:0.5;" width="4" x="1963.7385" y="682.8483"/><text fill="#000000" font-family="sans-serif" font-size="14" lengthAdjust="spacing" textLength="105.4785" x="1855.26" y="705.3834">BinaryFileWriter</text></g><!--entity Reader--><g id="elem_Reader"><rect fill="#E3F2FD" height="46.4883" rx="2.5" ry="2.5" style="stroke:#2196F3;stroke-width:0.5;" width="151.6855" x="1653.16" y="671.8483"/><rect fill="#E3F2FD" height="10" style="stroke:#2196F3;stroke-width:0.5;" width="15" x="1784.8455" y="676.8483"/><rect fill="#E3F2FD" height="2" style="stroke:#2196F3;stroke-width:0.5;" width="4" x="1782.8455" y="678.8483"/><rect fill="#E3F2FD" height="2" style="stroke:#2196F3;stroke-width:0.5;" width="4" x="1782.8455" y="682.8483"/><text fill="#000000" font-family="sans-serif" font-size="14" lengthAdjust="spacing" textLength="111.6855" x="1668.16" y="705.3834">BinaryFileReader</text></g><!--entity ChunkReader--><g id="elem_ChunkReader"><rect fill="#E3F2FD" height="46.4883" rx="2.5" ry="2.5" style="stroke:#2196F3;stroke-width:0.5;" width="170.6689" x="2020.67" y="671.8483"/><rect fill="#E3F2FD" height="10" style="stroke:#2196F3;stroke-width:0.5;" width="15" x="2171.3389" y="676.8483"/><rect fill="#E3F2FD" height="2" style="stroke:#2196F3;stroke-width:0.5;" width="4" x="2169.3389" y="678.8483"/><rect fill="#E3F2FD" height="2" style="stroke:#2196F3;stroke-width:0.5;" width="4" x="2169.3389" y="682.8483"/><text fill="#000000" font-family="sans-serif" font-size="14" lengthAdjust="spacing" textLength="130.6689" x="2035.67" y="705.3834">ChunkedFileReader</text></g><!--entity DB--><g id="elem_DB"><path d="M1519.97,827.8683 C1519.97,817.8683 1584.9993,817.8683 1584.9993,817.8683 C1584.9993,817.8683 1650.0286,817.8683 1650.0286,827.8683 L1650.0286,853.3566 C1650.0286,863.3566 1584.9993,863.3566 1584.9993,863.3566 C1584.9993,863.3566 1519.97,863.3566 1519.97,853.3566 L1519.97,827.8683 " fill="#E8F5E9" style="stroke:#4CAF50;stroke-width:0.5;"/><path d="M1519.97,827.8683 C1519.97,837.8683 1584.9993,837.8683 1584.9993,837.8683 C1584.9993,837.8683 1650.0286,837.8683 1650.0286,827.8683 " fill="none" style="stroke:#4CAF50;stroke-width:0.5;"/><text fill="#000000" font-family="sans-serif" font-size="14" lengthAdjust="spacing" textLength="110.0586" x="1529.97" y="855.4034">SQLite Database</text></g><!--entity FS--><g id="elem_FS"><rect fill="#F1F1F1" height="36.4883" rx="35" ry="35" style="stroke:#181818;stroke-width:0.5;" width="95.9268" x="2058.04" y="822.3683"/><text fill="#000000" font-family="sans-serif" font-size="14" lengthAdjust="spacing" textLength="75.9268" x="2068.04" y="845.9034">File System</text></g><!--entity AdapipeFS--><g id="elem_AdapipeFS"><rect fill="#F1F1F1" height="36.4883" rx="35" ry="35" style="stroke:#181818;stroke-width:0.5;" width="113.1396" x="1754.43" y="822.3683"/><text fill="#000000" font-family="sans-serif" font-size="14" lengthAdjust="spacing" textLength="93.1396" x="1764.43" y="845.9034">.adapipe Files</text></g><g id="elem_GMN53"><path d="M747.24,487.2983 L747.24,573.851 L950.7605,573.851 L950.7605,497.2983 L940.7605,487.2983 L747.24,487.2983 " fill="#FEFFDD" style="stroke:#181818;stroke-width:0.5;"/><path d="M940.7605,487.2983 L940.7605,497.2983 L950.7605,497.2983 L940.7605,487.2983 " fill="#FEFFDD" style="stroke:#181818;stroke-width:1;"/><text fill="#000000" font-family="sans-serif" font-size="13" lengthAdjust="spacing" textLength="182.5205" x="753.24" y="504.8666">Aggregate root that enforces</text><text fill="#000000" font-family="sans-serif" font-size="13" lengthAdjust="spacing" textLength="117.0825" x="753.24" y="520.1772">domain invariants:</text><text fill="#000000" font-family="sans-serif" font-size="13" lengthAdjust="spacing" textLength="160.2529" x="753.24" y="535.4877">- Stage order uniqueness</text><text fill="#000000" font-family="sans-serif" font-size="13" lengthAdjust="spacing" textLength="176.4775" x="753.24" y="550.7983">- Valid stage configurations</text><text fill="#000000" font-family="sans-serif" font-size="13" lengthAdjust="spacing" textLength="159.8657" x="753.24" y="566.1088">- Compatible stage types</text></g><g id="elem_GMN56"><path d="M1406.16,502.6083 L1406.16,558.5399 L1633.8397,558.5399 L1633.8397,512.6083 L1623.8397,502.6083 L1406.16,502.6083 " fill="#FEFFDD" style="stroke:#181818;stroke-width:0.5;"/><path d="M1623.8397,502.6083 L1623.8397,512.6083 L1633.8397,512.6083 L1623.8397,502.6083 " fill="#FEFFDD" style="stroke:#181818;stroke-width:1;"/><text fill="#000000" font-family="sans-serif" font-size="13" lengthAdjust="spacing" textLength="152.6294" x="1412.16" y="520.1766">Domain service defining</text><text fill="#000000" font-family="sans-serif" font-size="13" lengthAdjust="spacing" textLength="183.4219" x="1412.16" y="535.4872">compression/decompression</text><text fill="#000000" font-family="sans-serif" font-size="13" lengthAdjust="spacing" textLength="206.6797" x="1412.16" y="550.7977">contract without implementation</text></g><g id="elem_GMN59"><path d="M1237.4,797.3383 L1237.4,883.891 A0,0 0 0 0 1237.4,883.891 L1484.5987,883.891 A0,0 0 0 0 1484.5987,883.891 L1484.5987,807.3383 L1474.5987,797.3383 L1416.92,797.3383 L1508.27,718.8283 L1408.92,797.3383 L1237.4,797.3383 A0,0 0 0 0 1237.4,797.3383 " fill="#FEFFDD" style="stroke:#181818;stroke-width:0.5;"/><path d="M1474.5987,797.3383 L1474.5987,807.3383 L1484.5987,807.3383 L1474.5987,797.3383 " fill="#FEFFDD" style="stroke:#181818;stroke-width:0.5;"/><text fill="#000000" font-family="sans-serif" font-size="13" lengthAdjust="spacing" textLength="168.9556" x="1243.4" y="814.9066">Repository pattern isolates</text><text fill="#000000" font-family="sans-serif" font-size="13" lengthAdjust="spacing" textLength="196.0791" x="1243.4" y="830.2172">persistence from domain logic.</text><text fill="#000000" font-family="sans-serif" font-size="13" lengthAdjust="spacing" textLength="226.1987" x="1243.4" y="845.5277">Supports multiple implementations:</text><text fill="#000000" font-family="sans-serif" font-size="13" lengthAdjust="spacing" textLength="133.1675" x="1243.4" y="860.8383">- SQLite (production)</text><text fill="#000000" font-family="sans-serif" font-size="13" lengthAdjust="spacing" textLength="130.2158" x="1243.4" y="876.1488">- InMemory (testing)</text></g><g id="elem_GMN62"><path d="M1024.57,212.5983 L1024.57,244.2183 L953.84,248.2183 L1024.57,252.2183 L1024.57,283.8405 A0,0 0 0 0 1024.57,283.8405 L1223.4377,283.8405 A0,0 0 0 0 1223.4377,283.8405 L1223.4377,222.5983 L1213.4377,212.5983 L1024.57,212.5983 A0,0 0 0 0 1024.57,212.5983 " fill="#FEFFDD" style="stroke:#181818;stroke-width:0.5;"/><path d="M1213.4377,212.5983 L1213.4377,222.5983 L1223.4377,222.5983 L1213.4377,212.5983 " fill="#FEFFDD" style="stroke:#181818;stroke-width:0.5;"/><text fill="#000000" font-family="sans-serif" font-size="13" lengthAdjust="spacing" textLength="137.979" x="1030.57" y="230.1666">Orchestrates use case</text><text fill="#000000" font-family="sans-serif" font-size="13" lengthAdjust="spacing" textLength="155.2383" x="1030.57" y="245.4772">execution and translates</text><text fill="#000000" font-family="sans-serif" font-size="13" lengthAdjust="spacing" textLength="177.8677" x="1030.57" y="260.7877">between CLI and application</text><text fill="#000000" font-family="sans-serif" font-size="13" lengthAdjust="spacing" textLength="30.291" x="1030.57" y="276.0983">layer</text></g><!--link CLI to CmdHandler--><g id="link_CLI_CmdHandler"><path d="M783.86,125.3583 C785.81,139.9583 789.81,158.9483 798,173.9683 C808.66,193.5483 821.5748,207.5056 836.6048,220.7256 " fill="none" id="CLI-to-CmdHandler" style="stroke:#1565C0;stroke-width:1;"/><polygon fill="#1565C0" points="841.11,224.6883,836.9939,215.7408,837.3556,221.386,831.7104,221.7477,841.11,224.6883" style="stroke:#1565C0;stroke-width:1;"/><text fill="#000000" font-family="sans-serif" font-size="13" lengthAdjust="spacing" textLength="106.6406" x="799" y="170.5366">Parse commands</text></g><!--link Config to CmdHandler--><g id="link_Config_CmdHandler"><path d="M940.03,125.3083 C924.44,152.4483 901.4186,192.5256 885.8686,219.5956 " fill="none" id="Config-to-CmdHandler" style="stroke:#1565C0;stroke-width:1;"/><polygon fill="#1565C0" points="882.88,224.7983,890.8314,218.9866,885.3705,220.4627,883.8945,215.0018,882.88,224.7983" style="stroke:#1565C0;stroke-width:1;"/><text fill="#000000" font-family="sans-serif" font-size="13" lengthAdjust="spacing" textLength="89.8701" x="922.38" y="170.5366">Provide config</text></g><!--link CmdHandler to ProcessUC--><g id="link_CmdHandler_ProcessUC"><path d="M876.28,271.9283 C883.12,296.6883 892.411,330.2953 899.221,354.9253 " fill="none" id="CmdHandler-to-ProcessUC" style="stroke:#1565C0;stroke-width:1;"/><polygon fill="#1565C0" points="900.82,360.7083,902.2769,350.9678,899.4875,355.8891,894.5662,353.0997,900.82,360.7083" style="stroke:#1565C0;stroke-width:1;"/><text fill="#000000" font-family="sans-serif" font-size="13" lengthAdjust="spacing" textLength="121.7798" x="892.81" y="327.4066">Execute processing</text></g><!--link CmdHandler to RestoreUC--><g id="link_CmdHandler_RestoreUC"><path d="M821.61,271.9183 C800.61,282.9783 776.43,297.4483 757,313.8383 C740.93,327.3883 729.497,341.0617 718.937,355.5317 " fill="none" id="CmdHandler-to-RestoreUC" style="stroke:#1565C0;stroke-width:1;"/><polygon fill="#1565C0" points="715.4,360.3783,723.9366,355.4664,718.3475,356.3394,717.4744,350.7504,715.4,360.3783" style="stroke:#1565C0;stroke-width:1;"/><text fill="#000000" font-family="sans-serif" font-size="13" lengthAdjust="spacing" textLength="122.4146" x="758" y="327.4066">Execute restoration</text></g><!--link ProcessUC to Pipeline--><g id="link_ProcessUC_Pipeline"><path d="M863.51,407.7783 C845.26,416.4083 823.54,425.5483 803,431.3283 C776.68,438.7383 768.87,434.2683 742,439.3283 C710.96,445.1683 704.32,452.2883 673,456.3283 C643.19,460.1683 159.63,452.4883 132,464.3283 C111.58,473.0783 97.9731,486.9782 86.5531,502.1182 " fill="none" id="ProcessUC-to-Pipeline" style="stroke:#1565C0;stroke-width:1;"/><polygon fill="#1565C0" points="82.94,506.9083,91.5531,502.1319,85.951,502.9165,85.1663,497.3143,82.94,506.9083" style="stroke:#1565C0;stroke-width:1;"/><text fill="#000000" font-family="sans-serif" font-size="13" lengthAdjust="spacing" textLength="116.6255" x="743" y="452.8966">Configure pipeline</text></g><!--link ProcessUC to CompSvc--><g id="link_ProcessUC_CompSvc"><path d="M993.27,388.5283 C1071.19,394.5483 1167.36,411.0583 1123,456.3283 C1107.72,471.9283 750.95,458.1683 730,464.3283 C700.77,472.9283 676.3777,488.2453 656.0577,503.5053 " fill="none" id="ProcessUC-to-CompSvc" style="stroke:#1565C0;stroke-width:1;"/><polygon fill="#1565C0" points="651.26,507.1083,660.8586,504.9022,655.2581,504.1058,656.0546,498.5053,651.26,507.1083" style="stroke:#1565C0;stroke-width:1;"/><text fill="#000000" font-family="sans-serif" font-size="13" lengthAdjust="spacing" textLength="94.6309" x="1134.45" y="452.8966">Compress data</text></g><!--link ProcessUC to EncSvc--><g id="link_ProcessUC_EncSvc"><path d="M901.24,407.6983 C895.7,424.3183 885.51,445.7783 868,456.3283 C842.21,471.8683 354.74,455.3283 326,464.3283 C298.69,472.8783 276.66,487.97 258.22,503.25 " fill="none" id="ProcessUC-to-EncSvc" style="stroke:#1565C0;stroke-width:1;"/><polygon fill="#1565C0" points="253.6,507.0783,263.0822,504.4159,257.45,503.8881,257.9778,498.2559,253.6,507.0783" style="stroke:#1565C0;stroke-width:1;"/><text fill="#000000" font-family="sans-serif" font-size="13" lengthAdjust="spacing" textLength="78.4443" x="886.25" y="452.8966">Encrypt data</text></g><!--link ProcessUC to CheckSvc--><g id="link_ProcessUC_CheckSvc"><path d="M959.82,407.7283 C984.4,421.2783 1004.87,439.1683 988,456.3283 C978.85,465.6383 530.45,460.3783 518,464.3283 C490.91,472.9083 469.1386,487.9743 450.9186,503.2443 " fill="none" id="ProcessUC-to-CheckSvc" style="stroke:#1565C0;stroke-width:1;"/><polygon fill="#1565C0" points="446.32,507.0983,455.7872,504.383,450.1521,503.8866,450.6485,498.2516,446.32,507.0983" style="stroke:#1565C0;stroke-width:1;"/><text fill="#000000" font-family="sans-serif" font-size="13" lengthAdjust="spacing" textLength="93.2725" x="995.15" y="452.8966">Verify integrity</text></g><!--link RestoreUC to Pipeline--><g id="link_RestoreUC_Pipeline"><path d="M614.05,387.7383 C513.17,392.3683 341.44,405.0083 198,439.3283 C167.49,446.6283 158.26,447.1783 132,464.3283 C114.33,475.8683 101.6575,488.4751 89.7975,502.2951 " fill="none" id="RestoreUC-to-Pipeline" style="stroke:#1565C0;stroke-width:1;"/><polygon fill="#1565C0" points="85.89,506.8483,94.7867,502.6234,89.1462,503.0539,88.7157,497.4135,85.89,506.8483" style="stroke:#1565C0;stroke-width:1;"/><text fill="#000000" font-family="sans-serif" font-size="13" lengthAdjust="spacing" textLength="108.3735" x="199" y="452.8966">Get restore order</text></g><!--link RestoreUC to CompSvc--><g id="link_RestoreUC_CompSvc"><path d="M613.73,398.4583 C590.56,406.4283 568.05,419.1283 554,439.3283 C537.53,463.0183 557.5589,485.3838 582.0889,503.3438 " fill="none" id="RestoreUC-to-CompSvc" style="stroke:#1565C0;stroke-width:1;"/><polygon fill="#1565C0" points="586.93,506.8883,582.0313,498.3441,582.8957,503.9345,577.3053,504.7989,586.93,506.8883" style="stroke:#1565C0;stroke-width:1;"/><text fill="#000000" font-family="sans-serif" font-size="13" lengthAdjust="spacing" textLength="109.2749" x="555" y="452.8966">Decompress data</text></g><!--link RestoreUC to EncSvc--><g id="link_RestoreUC_EncSvc"><path d="M613.92,386.0183 C539.65,389.6283 430.93,401.7183 344,439.3283 C307.2,455.2483 276.3032,481.6866 254.7632,502.8166 " fill="none" id="RestoreUC-to-EncSvc" style="stroke:#1565C0;stroke-width:1;"/><polygon fill="#1565C0" points="250.48,507.0183,259.7059,503.5712,254.0493,503.5169,254.1037,497.8603,250.48,507.0183" style="stroke:#1565C0;stroke-width:1;"/><text fill="#000000" font-family="sans-serif" font-size="13" lengthAdjust="spacing" textLength="80.3105" x="345" y="452.8966">Decrypt data</text></g><!--link RestoreUC to CheckSvc--><g id="link_RestoreUC_CheckSvc"><path d="M613.8,393.8283 C549.92,402.0383 469.97,416.5183 446,439.3283 C427.68,456.7583 423.0705,480.4658 422.0405,501.0058 " fill="none" id="RestoreUC-to-CheckSvc" style="stroke:#1565C0;stroke-width:1;"/><polygon fill="#1565C0" points="421.74,506.9983,426.1857,498.2099,421.9904,502.0046,418.1958,497.8092,421.74,506.9983" style="stroke:#1565C0;stroke-width:1;"/><text fill="#000000" font-family="sans-serif" font-size="13" lengthAdjust="spacing" textLength="93.2725" x="447" y="452.8966">Verify integrity</text></g><!--reverse link Pipeline to Stage--><g id="link_Pipeline_Stage"><path d="M72.0336,566.0871 C75.6536,597.0471 80.73,640.4283 84.35,671.4283 " fill="none" id="Pipeline-backto-Stage" style="stroke:#1565C0;stroke-width:1;"/><polygon fill="#1565C0" points="70.64,554.1683,67.3639,560.5922,72.0336,566.0871,75.3097,559.6631,70.64,554.1683" style="stroke:#1565C0;stroke-width:1;"/><text fill="#000000" font-family="sans-serif" font-size="13" lengthAdjust="spacing" textLength="100.2993" x="79.07" y="617.4166">Contains stages</text></g><!--link CompSvc to Brotli--><g id="link_CompSvc_Brotli"><path d="M658.31,554.1483 C693.48,575.8983 750.57,607.4083 805,620.8483 C838.34,629.0783 1081.73,617.0983 1114,628.8483 C1137.93,637.5583 1155.9507,652.0224 1171.2307,667.1824 " fill="none" id="CompSvc-to-Brotli" style="stroke:#1565C0;stroke-width:1;stroke-dasharray:7.0,7.0;"/><polygon fill="#1565C0" points="1175.49,671.4083,1171.9183,662.2299,1171.9406,667.8867,1166.2837,667.909,1175.49,671.4083" style="stroke:#1565C0;stroke-width:1;"/><text fill="#000000" font-family="sans-serif" font-size="13" lengthAdjust="spacing" textLength="42.1865" x="806" y="617.4166">&#171;uses&#187;</text></g><!--link CompSvc to Zstd--><g id="link_CompSvc_Zstd"><path d="M675.67,554.2183 C692.75,561.1483 711.99,568.3883 730,573.8483 C778.05,588.4183 901.13,614.9883 951,620.8483 C987.1,625.0883 1243.95,616.1283 1278,628.8483 C1301.33,637.5583 1318.6006,651.9436 1333.2406,667.0936 " fill="none" id="CompSvc-to-Zstd" style="stroke:#1565C0;stroke-width:1;stroke-dasharray:7.0,7.0;"/><polygon fill="#1565C0" points="1337.41,671.4083,1334.0323,662.1567,1333.9355,667.8127,1328.2795,667.7159,1337.41,671.4083" style="stroke:#1565C0;stroke-width:1;"/><text fill="#000000" font-family="sans-serif" font-size="13" lengthAdjust="spacing" textLength="42.1865" x="952" y="617.4166">&#171;uses&#187;</text></g><!--link EncSvc to AES--><g id="link_EncSvc_AES"><path d="M275.59,554.2883 C291.32,561.3083 309.17,568.5683 326,573.8483 C428.05,605.8383 455.85,607.7883 562,620.8483 C598.66,625.3583 692.55,618.4983 728,628.8483 C758.65,637.7883 784.921,653.076 806.921,668.156 " fill="none" id="EncSvc-to-AES" style="stroke:#1565C0;stroke-width:1;stroke-dasharray:7.0,7.0;"/><polygon fill="#1565C0" points="811.87,671.5483,806.7081,663.1605,807.7459,668.7214,802.185,669.7592,811.87,671.5483" style="stroke:#1565C0;stroke-width:1;"/><text fill="#000000" font-family="sans-serif" font-size="13" lengthAdjust="spacing" textLength="42.1865" x="563" y="617.4166">&#171;uses&#187;</text></g><!--link CheckSvc to SHA--><g id="link_CheckSvc_SHA"><path d="M469.22,554.2683 C484.56,561.1283 501.8,568.2983 518,573.8483 C599.48,601.7483 620.72,608.8283 706,620.8483 C756.2,627.9183 886.06,612.3583 934,628.8483 C959.55,637.6283 979.5917,652.3252 996.5717,667.4652 " fill="none" id="CheckSvc-to-SHA" style="stroke:#1565C0;stroke-width:1;stroke-dasharray:7.0,7.0;"/><polygon fill="#1565C0" points="1001.05,671.4583,996.9945,662.4831,997.3181,668.1307,991.6705,668.4543,1001.05,671.4583" style="stroke:#1565C0;stroke-width:1;"/><text fill="#000000" font-family="sans-serif" font-size="13" lengthAdjust="spacing" textLength="42.1865" x="707" y="617.4166">&#171;uses&#187;</text></g><!--link ProcessUC to Repo--><g id="link_ProcessUC_Repo"><path d="M993.04,387.9083 C1179.51,394.9083 1607.66,416.1183 1651,464.3283 C1683.55,500.5183 1669.13,528.6683 1651,573.8483 C1634.49,614.9983 1601.1814,646.3644 1573.3514,667.8244 " fill="none" id="ProcessUC-to-Repo" style="stroke:#1565C0;stroke-width:1;"/><polygon fill="#1565C0" points="1568.6,671.4883,1578.1697,669.1601,1572.5595,668.4351,1573.2846,662.8249,1568.6,671.4883" style="stroke:#1565C0;stroke-width:1;"/><text fill="#000000" font-family="sans-serif" font-size="13" lengthAdjust="spacing" textLength="91.0889" x="1671.37" y="535.6366">Save metadata</text></g><!--link ProcessUC to Writer--><g id="link_ProcessUC_Writer"><path d="M993.14,388.2283 C1199.15,396.4283 1707.88,420.8783 1771,464.3283 C1847.09,516.7083 1888.2437,618.8525 1904.0537,665.7625 " fill="none" id="ProcessUC-to-Writer" style="stroke:#1565C0;stroke-width:1;"/><polygon fill="#1565C0" points="1905.97,671.4483,1906.8861,661.6421,1904.3731,666.7101,1899.3051,664.1971,1905.97,671.4483" style="stroke:#1565C0;stroke-width:1;"/><text fill="#000000" font-family="sans-serif" font-size="13" lengthAdjust="spacing" textLength="90.4351" x="1862.81" y="535.6366">Write .adapipe</text></g><!--link ProcessUC to ChunkReader--><g id="link_ProcessUC_ChunkReader"><path d="M993.26,386.9683 C1230.56,392.7883 1880.88,413.2683 1962,464.3283 C2040.88,513.9783 2082.0338,618.5626 2097.4638,665.9926 " fill="none" id="ProcessUC-to-ChunkReader" style="stroke:#1565C0;stroke-width:1;"/><polygon fill="#1565C0" points="2099.32,671.6983,2100.3395,661.9023,2097.7732,666.9436,2092.732,664.3772,2099.32,671.6983" style="stroke:#1565C0;stroke-width:1;"/><text fill="#000000" font-family="sans-serif" font-size="13" lengthAdjust="spacing" textLength="80.0249" x="2057.75" y="535.6366">Read chunks</text></g><!--link RestoreUC to Repo--><g id="link_RestoreUC_Repo"><path d="M697.4,407.6183 C696.92,423.7383 699.37,444.5983 713,456.3283 C723.74,465.5783 954.56,459.8283 968,464.3283 C1047.98,491.1183 1045.13,541.4283 1123,573.8483 C1253.39,628.1383 1304.63,576.9783 1436,628.8483 C1462.22,639.1983 1484.0112,653.3667 1503.1712,667.7467 " fill="none" id="RestoreUC-to-Repo" style="stroke:#1565C0;stroke-width:1;"/><polygon fill="#1565C0" points="1507.97,671.3483,1503.1729,662.7467,1503.971,668.3469,1498.3707,669.1451,1507.97,671.3483" style="stroke:#1565C0;stroke-width:1;"/><text fill="#000000" font-family="sans-serif" font-size="13" lengthAdjust="spacing" textLength="113.5532" x="1124" y="535.6366">Retrieve metadata</text></g><!--link RestoreUC to Reader--><g id="link_RestoreUC_Reader"><path d="M740.69,407.7183 C759.38,416.9083 782.2,426.4883 804,431.3283 C827.49,436.5383 1216.86,426.1683 1237,439.3283 C1292.11,475.3283 1246.61,533.9883 1299,573.8483 C1359.39,619.7883 1565.73,600.2283 1636,628.8483 C1661.02,639.0383 1681.2565,653.2086 1698.9765,667.7086 " fill="none" id="RestoreUC-to-Reader" style="stroke:#1565C0;stroke-width:1;"/><polygon fill="#1565C0" points="1703.62,671.5083,1699.1879,662.713,1699.7504,668.3419,1694.1216,668.9044,1703.62,671.5083" style="stroke:#1565C0;stroke-width:1;"/><text fill="#000000" font-family="sans-serif" font-size="13" lengthAdjust="spacing" textLength="88.9561" x="1300" y="535.6366">Read .adapipe</text></g><!--link Repo to DB--><g id="link_Repo_DB"><path d="M1543.76,718.8283 C1552.99,745.8683 1566.352,784.9899 1575.492,811.7699 " fill="none" id="Repo-to-DB" style="stroke:#1565C0;stroke-width:1;"/><polygon fill="#1565C0" points="1577.43,817.4483,1578.3085,807.6387,1575.815,812.7163,1570.7374,810.2227,1577.43,817.4483" style="stroke:#1565C0;stroke-width:1;"/><text fill="#000000" font-family="sans-serif" font-size="13" lengthAdjust="spacing" textLength="73.1377" x="1560.03" y="763.9066">Persist data</text></g><!--link Writer to AdapipeFS--><g id="link_Writer_AdapipeFS"><path d="M1896.84,718.8283 C1876.5,747.4483 1845.4853,791.0872 1827.0253,817.0672 " fill="none" id="Writer-to-AdapipeFS" style="stroke:#1565C0;stroke-width:1;"/><polygon fill="#1565C0" points="1823.55,821.9583,1832.0237,816.9386,1826.4461,817.8824,1825.5023,812.3049,1823.55,821.9583" style="stroke:#1565C0;stroke-width:1;"/><text fill="#000000" font-family="sans-serif" font-size="13" lengthAdjust="spacing" textLength="62.5815" x="1875.14" y="763.9066">Write files</text></g><!--link Reader to AdapipeFS--><g id="link_Reader_AdapipeFS"><path d="M1740.66,718.7283 C1748.01,732.8283 1757.83,751.2583 1767,767.3383 C1777.77,786.2183 1787.6228,802.3385 1796.6928,816.8685 " fill="none" id="Reader-to-AdapipeFS" style="stroke:#1565C0;stroke-width:1;"/><polygon fill="#1565C0" points="1799.87,821.9583,1798.4974,812.2055,1797.2224,817.7168,1791.7111,816.4417,1799.87,821.9583" style="stroke:#1565C0;stroke-width:1;"/><text fill="#000000" font-family="sans-serif" font-size="13" lengthAdjust="spacing" textLength="61.1025" x="1768" y="763.9066">Read files</text></g><!--link ChunkReader to FS--><g id="link_ChunkReader_FS"><path d="M2106,718.8283 C2106,747.4483 2106,789.9783 2106,815.9583 " fill="none" id="ChunkReader-to-FS" style="stroke:#1565C0;stroke-width:1;"/><polygon fill="#1565C0" points="2106,821.9583,2110,812.9583,2106,816.9583,2102,812.9583,2106,821.9583" style="stroke:#1565C0;stroke-width:1;"/><text fill="#000000" font-family="sans-serif" font-size="13" lengthAdjust="spacing" textLength="67.8755" x="2107" y="763.9066">Read input</text></g><!--link Pipeline to GMN53--><g id="link_Pipeline_GMN53"><path d="M82.76,507.0883 C97.01,486.8983 120.64,459.2883 149.5,447.8283 C207.43,424.8183 650.41,431.2483 710.5,447.8283 C739.26,455.7583 768.06,471.4183 791.89,486.9883 " fill="none" id="Pipeline-GMN53" style="stroke:#1565C0;stroke-width:1;stroke-dasharray:7.0,7.0;"/></g><!--link CompSvc to GMN56--><g id="link_CompSvc_GMN56"><path d="M649.08,507.1383 C672.51,486.9783 709.47,459.3883 747.5,447.8283 C812.77,427.9783 1295.24,431.5683 1361.5,447.8283 C1404.31,458.3283 1448.39,482.6383 1479.17,502.2083 " fill="none" id="CompSvc-GMN56" style="stroke:#1565C0;stroke-width:1;stroke-dasharray:7.0,7.0;"/></g><!--SRC=[VLRRRkCs47tNLt3LXoO5akvccw2xM0HmV4cCPjlKQhP0YpumqbWc8f5QadBMAFhldI6fY-aaVZ2acQEPCrVoJG5h8O7TBgzl_hYwlP-px-Rl5sUBMV8cQBpmxDs7YyNxNZYRh7xnYdVd5-VJjxt2sRbUpUU_eg6V5-Vp3xqgI7-QJXRdRvF4F0hPSCrhbgkwKHAaPVyc37zNF7yijMfbCLMLqWCthrMw0EqrlN2YjNhoievQyj_OHy4jV-06NdFX21xuy58qPeMjW4rxiajfGVFS2YNPJF2It9omEz50HU7UQPM3CKAMITAWEru2I-yq6FoMkuzk-Gvq6XWDIVXxUhlqnjSyXtyODmmb1o0brw9adxb4mzgZd8YezlucJLE9_7LtWUX2L71lO8f9SjQ2-7uQurTWhD8GuuFu48yPgxais0t-LHtLkWYlUtHdgkRY5QOXjvvVU7a9b5aqwP3kwHbMZQRwA9c1teekqoZEjdcCdijSxneRWL7w37QwWVpHjFMUMP8HTXpjKgurDrQtkMqrl1ZrbLQs4fE2DpPapqjYt5_65cCKlSUO2PZhl1wZ9lCi1cKRVdP-CGPbDvENqho2HXc1bT-5BcZKGG12ShsZVlbJYywaVtmPkW9U1AX_F4npAn-XYB1E6Zx0NFTZdsQ_tw93DWk2bC2pguHwrXM3xB1iPopKJhV81jqfnrnWl8n0ngadNeAev7jVEIQ6VM3OaLKDiuezA6jLVPpGJ9-SN8uQdtt4TS0rSilzW9Wq2KFz352hhIW8Ie0qIKPgGlV3Ik3vDyXRZBNfDr0Qu_jX7UEr4xfbWHu6ayv1jzOGxrbIopP1caReC4KUxEVCRU0OvmV8SV03zYog6nx2VG4jrZkNwn8xQ8T4XrXYejTWGr30t4PF8_28vmpoVQRxo84f0aTC8tklC-sv_N1ouhTIIAV5hMUO8Gbs0NPKM8JOGD6IE2gW0Lc0pCdq5ZGjC6ol4CZfwMNO3cJvqwVMWBcyJFVqj1VsjI4uKk8wYBxiGY8jxe5zRLGfcdu2P7mBh0RBdokddto2kIVMJTTXsVjH9Z0ziPnavg3edTyLM2rWptSCt3CtkCQSHvd6tCCt92fvnOpR2oPnViZExCfD9QNVTAqGuY9rlns6ADTkTII1m078qGcOSU04727mEjDQP2iLpQieDvQfzVWed9IbXfAJLYdBx8PR1dAjD2OMrONlA-mShWMNrdn4OTUBRaHOAyNN5YJMmQc-y4eKlZN3zcdzYl1gQYnyVS3bwJ5srw0dR55676Ecm_4QEjpuGvAvEoBTbVoE3oVpZmMCtfnEMjgnx4dOZMej4tLJGTrTgMA_VlkIut0k3QSLGzfKNIQCgZ1V54xZwud3XVNI-658LwLAaPyY86kRHcbhMDrMLg3do7-NJd_M7E42Bbft81mx-L9-Xffy7w4_Yz4UnuGhMFiy3VSZndxJ-GRncbYobWuCFC1G3cvlqzMEhbUebwQBv07i4u2aYwDJyk4UYDgApgl1zVy0]--></g></svg>