<svg xmlns="http://www.w3.org/2000/svg" xmlns:xlink="http://www.w3.org/1999/xlink" contentStyleType="text/css" height="784px" preserveAspectRatio="none" style="width:1707px;height:784px;background:#FFFFFF;" version="1.1" viewBox="0 0 1707 784" width="1707px" zoomAndPan="magnify"><title>Layered Architecture</title><defs/><g><text fill="#000000" font-family="Arial" font-size="22" font-weight="bold" lengthAdjust="spacing" textLength="220.0859" x="739.0582" y="35.6357">Layered Architecture</text><!--cluster presentation--><g id="cluster_presentation"><path d="M128.5,57.2979 L237.541,57.2979 A3.75,3.75 0 0 1 240.041,59.7979 L247.041,77.0967 L443.5,77.0967 A2.5,2.5 0 0 1 446,79.5967 L446,136.5979 A2.5,2.5 0 0 1 443.5,139.0979 L128.5,139.0979 A2.5,2.5 0 0 1 126,136.5979 L126,59.7979 A2.5,2.5 0 0 1 128.5,57.2979 " fill="#E8F5E9" style="stroke:#000000;stroke-width:1;"/><line style="stroke:#000000;stroke-width:1;" x1="126" x2="247.041" y1="77.0967" y2="77.0967"/><text fill="#000000" font-family="Arial" font-size="12" font-weight="bold" lengthAdjust="spacing" textLength="108.041" x="130" y="70.5537">Presentation Layer</text></g><!--cluster application--><g id="cluster_application"><path d="M215.5,172.0979 L317.1875,172.0979 A3.75,3.75 0 0 1 319.6875,174.5979 L326.6875,191.8967 L523.5,191.8967 A2.5,2.5 0 0 1 526,194.3967 L526,346.1979 A2.5,2.5 0 0 1 523.5,348.6979 L215.5,348.6979 A2.5,2.5 0 0 1 213,346.1979 L213,174.5979 A2.5,2.5 0 0 1 215.5,172.0979 " fill="#E3F2FD" style="stroke:#000000;stroke-width:1;"/><line style="stroke:#000000;stroke-width:1;" x1="213" x2="326.6875" y1="191.8967" y2="191.8967"/><text fill="#000000" font-family="Arial" font-size="12" font-weight="bold" lengthAdjust="spacing" textLength="100.6875" x="217" y="185.3537">Application Layer</text></g><!--cluster domain--><g id="cluster_domain"><path d="M13.5,389.6979 L93.8594,389.6979 A3.75,3.75 0 0 1 96.3594,392.1979 L103.3594,409.4967 L651.5,409.4967 A2.5,2.5 0 0 1 654,411.9967 L654,643.4879 A2.5,2.5 0 0 1 651.5,645.9879 L13.5,645.9879 A2.5,2.5 0 0 1 11,643.4879 L11,392.1979 A2.5,2.5 0 0 1 13.5,389.6979 " fill="#FFF3E0" style="stroke:#000000;stroke-width:1;"/><line style="stroke:#000000;stroke-width:1;" x1="11" x2="103.3594" y1="409.4967" y2="409.4967"/><text fill="#000000" font-family="Arial" font-size="12" font-weight="bold" lengthAdjust="spacing" textLength="79.3594" x="15" y="402.9537">Domain Layer</text></g><!--cluster infrastructure--><g id="cluster_infrastructure"><path d="M696.5,548.1879 L810.873,548.1879 A3.75,3.75 0 0 1 813.373,550.6879 L820.373,567.9867 L1481.5,567.9867 A2.5,2.5 0 0 1 1484,570.4867 L1484,643.4879 A2.5,2.5 0 0 1 1481.5,645.9879 L696.5,645.9879 A2.5,2.5 0 0 1 694,643.4879 L694,550.6879 A2.5,2.5 0 0 1 696.5,548.1879 " fill="#F3E5F5" style="stroke:#000000;stroke-width:1;"/><line style="stroke:#000000;stroke-width:1;" x1="694" x2="820.373" y1="567.9867" y2="567.9867"/><text fill="#000000" font-family="Arial" font-size="12" font-weight="bold" lengthAdjust="spacing" textLength="113.373" x="698" y="561.4437">Infrastructure Layer</text></g><!--cluster external--><g id="cluster_external"><path d="M757.5,686.9879 L858.5547,686.9879 A3.75,3.75 0 0 1 861.0547,689.4879 L868.0547,706.7867 L1098.5,706.7867 A2.5,2.5 0 0 1 1101,709.2867 L1101,775.2879 A2.5,2.5 0 0 1 1098.5,777.7879 L757.5,777.7879 A2.5,2.5 0 0 1 755,775.2879 L755,689.4879 A2.5,2.5 0 0 1 757.5,686.9879 " fill="#ECEFF1" style="stroke:#000000;stroke-width:1;"/><line style="stroke:#000000;stroke-width:1;" x1="755" x2="868.0547" y1="706.7867" y2="706.7867"/><text fill="#000000" font-family="Arial" font-size="12" font-weight="bold" lengthAdjust="spacing" textLength="100.0547" x="759" y="700.2437">External Systems</text></g><!--entity cli--><g id="elem_cli"><rect fill="#FFFFFF" height="33.7988" rx="2.5" ry="2.5" style="stroke:#000000;stroke-width:1;" width="88.7012" x="141.65" y="89.2979"/><text fill="#000000" font-family="Arial" font-size="12" lengthAdjust="spacing" textLength="68.7012" x="151.65" y="110.5537">CLI Interface</text></g><!--entity config--><g id="elem_config"><rect fill="#FFFFFF" height="33.7988" rx="2.5" ry="2.5" style="stroke:#000000;stroke-width:1;" width="164.7559" x="265.62" y="89.2979"/><text fill="#000000" font-family="Arial" font-size="12" lengthAdjust="spacing" textLength="144.7559" x="275.62" y="110.5537">Configuration Management</text></g><!--entity pipeline_svc--><g id="elem_pipeline_svc"><rect fill="#FFFFFF" height="33.7988" rx="2.5" ry="2.5" style="stroke:#000000;stroke-width:1;" width="106.0449" x="228.98" y="204.0979"/><text fill="#000000" font-family="Arial" font-size="12" lengthAdjust="spacing" textLength="86.0449" x="238.98" y="225.3537">Pipeline Service</text></g><!--entity file_proc_svc--><g id="elem_file_proc_svc"><rect fill="#FFFFFF" height="33.7988" rx="2.5" ry="2.5" style="stroke:#000000;stroke-width:1;" width="140.0352" x="369.98" y="204.0979"/><text fill="#000000" font-family="Arial" font-size="12" lengthAdjust="spacing" textLength="120.0352" x="379.98" y="225.3537">File Processor Service</text></g><!--entity use_cases--><g id="elem_use_cases"><rect fill="#FFFFFF" height="33.7988" rx="2.5" ry="2.5" style="stroke:#000000;stroke-width:1;" width="78.6875" x="232.66" y="298.8979"/><text fill="#000000" font-family="Arial" font-size="12" lengthAdjust="spacing" textLength="58.6875" x="242.66" y="320.1537">Use Cases</text></g><!--entity pipeline_entity--><g id="elem_pipeline_entity"><rect fill="#FFFFFF" height="33.7988" rx="2.5" ry="2.5" style="stroke:#000000;stroke-width:1;" width="96.043" x="199.98" y="429.6979"/><text fill="#000000" font-family="Arial" font-size="12" lengthAdjust="spacing" textLength="76.043" x="209.98" y="450.9537">Pipeline Entity</text></g><!--entity stage_entity--><g id="elem_stage_entity"><rect fill="#FFFFFF" height="33.7988" rx="2.5" ry="2.5" style="stroke:#000000;stroke-width:1;" width="130.7363" x="34.63" y="429.6979"/><text fill="#000000" font-family="Arial" font-size="12" lengthAdjust="spacing" textLength="110.7363" x="44.63" y="450.9537">Pipeline Stage Entity</text></g><!--entity value_objects--><g id="elem_value_objects"><rect fill="#FFFFFF" height="33.7988" rx="2.5" ry="2.5" style="stroke:#000000;stroke-width:1;" width="94.707" x="200.65" y="588.1879"/><text fill="#000000" font-family="Arial" font-size="12" lengthAdjust="spacing" textLength="74.707" x="210.65" y="609.4437">Value Objects</text></g><!--entity domain_services--><g id="elem_domain_services"><rect fill="#FFFFFF" height="33.7988" rx="2.5" ry="2.5" style="stroke:#000000;stroke-width:1;" width="110.6973" x="499.65" y="429.6979"/><text fill="#000000" font-family="Arial" font-size="12" lengthAdjust="spacing" textLength="90.6973" x="509.65" y="450.9537">Domain Services</text></g><!--entity repo_interfaces--><g id="elem_repo_interfaces"><rect fill="#FFFFFF" height="33.7988" rx="2.5" ry="2.5" style="stroke:#000000;stroke-width:1;" width="133.3848" x="331.31" y="429.6979"/><text fill="#000000" font-family="Arial" font-size="12" lengthAdjust="spacing" textLength="113.3848" x="341.31" y="450.9537">Repository Interfaces</text></g><!--entity sqlite_repo--><g id="elem_sqlite_repo"><rect fill="#FFFFFF" height="33.7988" rx="2.5" ry="2.5" style="stroke:#000000;stroke-width:1;" width="117.377" x="718.31" y="588.1879"/><text fill="#000000" font-family="Arial" font-size="12" lengthAdjust="spacing" textLength="97.377" x="728.31" y="609.4437">SQLite Repository</text></g><!--entity metrics--><g id="elem_metrics"><rect fill="#FFFFFF" height="33.7988" rx="2.5" ry="2.5" style="stroke:#000000;stroke-width:1;" width="109.3496" x="870.33" y="588.1879"/><text fill="#000000" font-family="Arial" font-size="12" lengthAdjust="spacing" textLength="89.3496" x="880.33" y="609.4437">Metrics Collector</text></g><!--entity file_io--><g id="elem_file_io"><rect fill="#FFFFFF" height="33.7988" rx="2.5" ry="2.5" style="stroke:#000000;stroke-width:1;" width="102.0195" x="1014.99" y="588.1879"/><text fill="#000000" font-family="Arial" font-size="12" lengthAdjust="spacing" textLength="82.0195" x="1024.99" y="609.4437">File I/O Service</text></g><!--entity compression--><g id="elem_compression"><rect fill="#FFFFFF" height="33.7988" rx="2.5" ry="2.5" style="stroke:#000000;stroke-width:1;" width="134.041" x="1151.98" y="588.1879"/><text fill="#000000" font-family="Arial" font-size="12" lengthAdjust="spacing" textLength="114.041" x="1161.98" y="609.4437">Compression Service</text></g><!--entity encryption--><g id="elem_encryption"><rect fill="#FFFFFF" height="33.7988" rx="2.5" ry="2.5" style="stroke:#000000;stroke-width:1;" width="120.043" x="1320.98" y="588.1879"/><text fill="#000000" font-family="Arial" font-size="12" lengthAdjust="spacing" textLength="100.043" x="1330.98" y="609.4437">Encryption Service</text></g><!--entity db--><g id="elem_db"><path d="M770.66,728.9879 C770.66,718.9879 809.0047,718.9879 809.0047,718.9879 C809.0047,718.9879 847.3495,718.9879 847.3495,728.9879 L847.3495,751.7867 C847.3495,761.7867 809.0047,761.7867 809.0047,761.7867 C809.0047,761.7867 770.66,761.7867 770.66,751.7867 L770.66,728.9879 " fill="#FFFFFF" style="stroke:#000000;stroke-width:1;"/><path d="M770.66,728.9879 C770.66,738.9879 809.0047,738.9879 809.0047,738.9879 C809.0047,738.9879 847.3495,738.9879 847.3495,728.9879 " fill="none" style="stroke:#000000;stroke-width:1;"/><text fill="#000000" font-family="Arial" font-size="12" lengthAdjust="spacing" textLength="56.6895" x="780.66" y="754.2437">SQLite DB</text></g><!--entity fs--><g id="elem_fs"><rect fill="#FFFFFF" height="33.7988" rx="35" ry="35" style="stroke:#000000;stroke-width:1;" width="82.6777" x="1002.66" y="723.4879"/><text fill="#000000" font-family="Arial" font-size="12" lengthAdjust="spacing" textLength="62.6777" x="1012.66" y="744.7437">File System</text></g><!--entity prometheus--><g id="elem_prometheus"><rect fill="#FFFFFF" height="33.7988" rx="2.5" ry="2.5" style="stroke:#000000;stroke-width:1;" width="84.6992" x="882.65" y="723.4879"/><text fill="#000000" font-family="Arial" font-size="12" lengthAdjust="spacing" textLength="64.6992" x="892.65" y="744.7437">Prometheus</text></g><g id="elem_GMN46"><path d="M681.12,413.9979 L681.12,479.1932 L848.8798,479.1932 L848.8798,423.9979 L838.8798,413.9979 L681.12,413.9979 " fill="#FFFFFF" style="stroke:#000000;stroke-width:1;"/><path d="M838.8798,413.9979 L838.8798,423.9979 L848.8798,423.9979 L838.8798,413.9979 " fill="#FFFFFF" style="stroke:#000000;stroke-width:1;"/><text fill="#000000" font-family="Arial" font-size="12" font-weight="bold" lengthAdjust="spacing" textLength="79.3594" x="687.12" y="430.2537">Domain Layer</text><text fill="#000000" font-family="Arial" font-size="12" lengthAdjust="spacing" textLength="84.0352" x="687.12" y="444.0525">- Business logic</text><text fill="#000000" font-family="Arial" font-size="12" lengthAdjust="spacing" textLength="146.7598" x="687.12" y="457.8514">- No external dependencies</text><text fill="#000000" font-family="Arial" font-size="12" lengthAdjust="spacing" textLength="103.377" x="687.12" y="471.6502">- Defines interfaces</text></g><g id="elem_GMN49"><path d="M1511.8,572.4879 L1511.8,637.6832 L1700.2023,637.6832 L1700.2023,582.4879 L1690.2023,572.4879 L1511.8,572.4879 " fill="#FFFFFF" style="stroke:#000000;stroke-width:1;"/><path d="M1690.2023,572.4879 L1690.2023,582.4879 L1700.2023,582.4879 L1690.2023,572.4879 " fill="#FFFFFF" style="stroke:#000000;stroke-width:1;"/><text fill="#000000" font-family="Arial" font-size="12" font-weight="bold" lengthAdjust="spacing" textLength="113.373" x="1517.8" y="588.7437">Infrastructure Layer</text><text fill="#000000" font-family="Arial" font-size="12" lengthAdjust="spacing" textLength="167.4023" x="1517.8" y="602.5425">- Implements domain interfaces</text><text fill="#000000" font-family="Arial" font-size="12" lengthAdjust="spacing" textLength="142.7227" x="1517.8" y="616.3414">- External system adapters</text><text fill="#000000" font-family="Arial" font-size="12" lengthAdjust="spacing" textLength="142.7344" x="1517.8" y="630.1402">- Technology-specific code</text></g><!--link cli to pipeline_svc--><g id="link_cli_pipeline_svc"><path d="M199.75,123.3579 C218,144.7979 246.1411,177.8688 264.3811,199.2988 " fill="none" id="cli-to-pipeline_svc" style="stroke:#000000;stroke-width:1;"/><polygon fill="#000000" points="268.27,203.8679,265.4827,194.4217,265.0292,200.0603,259.3906,199.6069,268.27,203.8679" style="stroke:#000000;stroke-width:1;"/></g><!--link config to pipeline_svc--><g id="link_config_pipeline_svc"><path d="M338.54,123.3579 C326,144.7979 307.0103,177.2593 294.4703,198.6893 " fill="none" id="config-to-pipeline_svc" style="stroke:#000000;stroke-width:1;"/><polygon fill="#000000" points="291.44,203.8679,299.4378,198.1202,293.9652,199.5524,292.5331,194.0798,291.44,203.8679" style="stroke:#000000;stroke-width:1;"/></g><!--link pipeline_svc to use_cases--><g id="link_pipeline_svc_use_cases"><path d="M280.26,238.1579 C278.43,255.0879 276.2194,275.562 274.3994,292.542 " fill="none" id="pipeline_svc-to-use_cases" style="stroke:#000000;stroke-width:1;"/><polygon fill="#000000" points="273.76,298.5079,278.6964,289.9854,274.2929,293.5363,270.742,289.1328,273.76,298.5079" style="stroke:#000000;stroke-width:1;"/></g><!--link file_proc_svc to domain_services--><g id="link_file_proc_svc_domain_services"><path d="M448.27,238.0779 C469.44,279.2279 522.6559,382.7021 543.9059,424.0221 " fill="none" id="file_proc_svc-to-domain_services" style="stroke:#000000;stroke-width:1;"/><polygon fill="#000000" points="546.65,429.3579,546.0911,419.5249,544.3633,424.9114,538.9768,423.1836,546.65,429.3579" style="stroke:#000000;stroke-width:1;"/></g><!--link use_cases to pipeline_entity--><g id="link_use_cases_pipeline_entity"><path d="M268.96,333.1079 C264.34,357.8779 256.7213,398.8198 252.1113,423.5098 " fill="none" id="use_cases-to-pipeline_entity" style="stroke:#000000;stroke-width:1;"/><polygon fill="#000000" points="251.01,429.4079,256.5939,421.2949,251.9277,424.4928,248.7298,419.8266,251.01,429.4079" style="stroke:#000000;stroke-width:1;"/></g><!--link use_cases to stage_entity--><g id="link_use_cases_stage_entity"><path d="M243.68,333.1379 C225.57,343.9679 201.84,358.8679 182,373.6979 C158.34,391.3779 137.446,410.1029 121.306,425.2429 " fill="none" id="use_cases-to-stage_entity" style="stroke:#000000;stroke-width:1;"/><polygon fill="#000000" points="116.93,429.3479,126.2307,426.1078,120.5767,425.9271,120.7575,420.2731,116.93,429.3479" style="stroke:#000000;stroke-width:1;"/></g><!--link use_cases to repo_interfaces--><g id="link_use_cases_repo_interfaces"><path d="M287.96,333.1079 C312.19,357.8779 353.8136,400.4294 377.9736,425.1194 " fill="none" id="use_cases-to-repo_interfaces" style="stroke:#000000;stroke-width:1;"/><polygon fill="#000000" points="382.17,429.4079,378.7344,420.1776,378.673,425.8342,373.0165,425.7728,382.17,429.4079" style="stroke:#000000;stroke-width:1;"/></g><!--link pipeline_entity to value_objects--><g id="link_pipeline_entity_value_objects"><path d="M248,463.7479 C248,493.7379 248,551.6879 248,581.7879 " fill="none" id="pipeline_entity-to-value_objects" style="stroke:#000000;stroke-width:1;"/><polygon fill="#000000" points="248,587.7879,252,578.7879,248,582.7879,244,578.7879,248,587.7879" style="stroke:#000000;stroke-width:1;"/></g><!--link stage_entity to value_objects--><g id="link_stage_entity_value_objects"><path d="M115.28,463.7479 C143.64,493.7379 199.9978,553.3281 228.4578,583.4281 " fill="none" id="stage_entity-to-value_objects" style="stroke:#000000;stroke-width:1;"/><polygon fill="#000000" points="232.58,587.7879,229.3032,578.5001,229.1448,584.1547,223.4902,583.9964,232.58,587.7879" style="stroke:#000000;stroke-width:1;"/></g><!--link domain_services to value_objects--><g id="link_domain_services_value_objects"><path d="M519.69,463.8679 C507.83,469.0679 494.45,474.6479 482,479.1879 C438.41,495.0979 423.7,488.8479 382,509.1879 C337.42,530.9379 296.1341,563.0986 271.3141,583.9486 " fill="none" id="domain_services-to-value_objects" style="stroke:#000000;stroke-width:1;"/><polygon fill="#000000" points="266.72,587.8079,276.184,585.0817,270.5484,584.5918,271.0383,578.9562,266.72,587.8079" style="stroke:#000000;stroke-width:1;"/></g><!--reverse link repo_interfaces to sqlite_repo--><g id="link_repo_interfaces_sqlite_repo"><path d="M435.5608,473.791 C462.4008,491.941 494.22,510.5979 539,524.1879 C576.16,535.4679 588.56,521.9079 626,532.1879 C671.92,544.7979 720.97,570.7579 750.3,587.7879 " fill="none" id="repo_interfaces-backto-sqlite_repo" style="stroke:#000000;stroke-width:1;stroke-dasharray:7.0,7.0;"/><polygon fill="none" points="420.65,463.7079,432.1997,478.7612,438.9218,468.8207,420.65,463.7079" style="stroke:#000000;stroke-width:1;"/><text fill="#000000" font-family="Arial" font-size="12" lengthAdjust="spacing" textLength="61.3535" x="540" y="521.4437">implements</text></g><!--reverse link domain_services to file_io--><g id="link_domain_services_file_io"><path d="M586.0739,466.9193 C596.0739,472.5693 602.63,475.4679 614,479.1879 C748.81,523.3479 789.34,505.7779 930,524.1879 C959.74,528.0779 970.16,518.8079 997,532.1879 C1022.39,544.8479 1043.57,570.7979 1055.51,587.8079 " fill="none" id="domain_services-backto-file_io" style="stroke:#000000;stroke-width:1;stroke-dasharray:7.0,7.0;"/><polygon fill="#000000" points="580.85,463.9679,586.7181,471.8777,585.2032,466.4274,590.6535,464.9125,580.85,463.9679" style="stroke:#000000;stroke-width:1;"/><text fill="#000000" font-family="Arial" font-size="12" lengthAdjust="spacing" textLength="46.0254" x="931" y="521.4437">supports</text></g><!--reverse link domain_services to compression--><g id="link_domain_services_compression"><path d="M585.06,466.8312 C595.24,472.6912 602.19,475.7079 614,479.1879 C837.26,544.9679 923.3,435.4679 1135,532.1879 C1163.63,545.2779 1190.05,571.0979 1205.35,587.9779 " fill="none" id="domain_services-backto-compression" style="stroke:#000000;stroke-width:1;stroke-dasharray:7.0,7.0;"/><polygon fill="#000000" points="579.86,463.8379,585.6645,471.7945,584.1933,466.3323,589.6556,464.8612,579.86,463.8379" style="stroke:#000000;stroke-width:1;"/><text fill="#000000" font-family="Arial" font-size="12" lengthAdjust="spacing" textLength="46.0254" x="1111.18" y="521.4437">supports</text></g><!--reverse link domain_services to encryption--><g id="link_domain_services_encryption"><path d="M584.7209,466.8469 C594.9509,472.7769 602.03,475.8379 614,479.1879 C732.3,512.3079 1043.89,495.7379 1166,509.1879 C1227.81,515.9979 1248.23,504.6879 1304,532.1879 C1330.74,545.3779 1354.64,570.9179 1368.48,587.7379 " fill="none" id="domain_services-backto-encryption" style="stroke:#000000;stroke-width:1;stroke-dasharray:7.0,7.0;"/><polygon fill="#000000" points="579.53,463.8379,585.3104,471.812,583.8558,466.3454,589.3224,464.8908,579.53,463.8379" style="stroke:#000000;stroke-width:1;"/><text fill="#000000" font-family="Arial" font-size="12" lengthAdjust="spacing" textLength="46.0254" x="1286.32" y="521.4437">supports</text></g><!--link sqlite_repo to db--><g id="link_sqlite_repo_db"><path d="M780.92,622.4379 C786.73,646.6279 796.2086,686.1338 802.5886,712.6938 " fill="none" id="sqlite_repo-to-db" style="stroke:#000000;stroke-width:1;"/><polygon fill="#000000" points="803.99,718.5279,805.7773,708.8425,802.8222,713.6661,797.9985,710.7111,803.99,718.5279" style="stroke:#000000;stroke-width:1;"/></g><!--link file_io to fs--><g id="link_file_io_fs"><path d="M1063.3,622.4379 C1059.06,648.1579 1051.8478,691.8581 1047.6278,717.4081 " fill="none" id="file_io-to-fs" style="stroke:#000000;stroke-width:1;"/><polygon fill="#000000" points="1046.65,723.3279,1052.0632,715.1,1047.4648,718.3947,1044.1701,713.7963,1046.65,723.3279" style="stroke:#000000;stroke-width:1;"/></g><!--link metrics to prometheus--><g id="link_metrics_prometheus"><path d="M925,622.4379 C925,648.1579 925,691.7779 925,717.3279 " fill="none" id="metrics-to-prometheus" style="stroke:#000000;stroke-width:1;"/><polygon fill="#000000" points="925,723.3279,929,714.3279,925,718.3279,921,714.3279,925,723.3279" style="stroke:#000000;stroke-width:1;"/></g><!--link domain to GMN46--><g id="link_domain_GMN46"><path d="M654.0935,446.5879 C654.1381,446.5879 654.1828,446.5879 654.2274,446.5879 C654.3167,446.5879 654.4059,446.5879 654.4952,446.5879 C654.6737,446.5879 654.8523,446.5879 655.0308,446.5879 C657.8872,446.5879 660.7431,446.5879 663.5987,446.5879 C669.31,446.5879 675.02,446.5879 680.73,446.5879 " fill="none" id="domain-GMN46" style="stroke:#000000;stroke-width:1;stroke-dasharray:7.0,7.0;"/></g><!--link infrastructure to GMN49--><g id="link_infrastructure_GMN49"><path d="M1484.0562,605.0879 C1484.1463,605.0879 1484.2364,605.0879 1484.3265,605.0879 C1484.6868,605.0879 1485.0471,605.0879 1485.4073,605.0879 C1488.2897,605.0879 1491.1719,605.0879 1494.0538,605.0879 C1499.8175,605.0879 1505.58,605.0879 1511.34,605.0879 " fill="none" id="infrastructure-GMN49" style="stroke:#000000;stroke-width:1;stroke-dasharray:7.0,7.0;"/></g><!--SRC=[XLLTRzCm57tFhp3h0r2fWssQ13mWRMqYLTeN57X1g7ATczOiiOtjR9IF_ywrdIPEkh6t-joJU-_nFTTzPZTG0L4bvI8njrmegcb5cAoK523imcvB81gOfM9TGaJ9eQ1rQJCfx1N556UQq_BX-8B_0d9qd2IMMynsGRUW8SSls8PRJ5rhI195sIrT0pcuqM2mChLSYi0z8DGG5SEZz4rschublnD2laulvcGkBEY2ClZckApaFY15mTUr3jzSKe7vAymHE3wO_8qgdobLSZOiJ2Dqb9vanzairBtX2aekW2n0t_6cj6h0fRbZZfHnL7oZ9GDZfEvH2mmj5OPstCy6o9GQC3vS6rWoT-hrE9CLZYfgBm_0ACkoa_JreBDKu9Ll-us1n_e2hCiTaOq38kONMjP0hbVVSLgXkpk7B6L07ALfh14OIA6tfMamH_i8IXfkfTvsCmjaZP4bRx6UwhaeD3LMrzuiaNhU3upm3awpqt0BYmyNQ2_ILGpIVfI8BbqrHxe4gpapP2hB4gL8xKbLGDi1pbzTxu-Eos2oobdJE7l45DRXZfOAfhVA3bdGmZszwK-y1a5BijWQ2vNnMc47Zj9fccL7NcLEBLsXIyX18tTs7conmg11FJwV5n5o-MZXfBLBxdPEekGDrARPjTtHTVMSp421oB5N3eQyi59DSdalNYQuPyJ_dBpl6pyiryEn93wrbCxjlRLeuqCh9Uq7-rKQt-upUhRU3myTc0mojiI- -UEiZr06tJ_2mfiU69rNglHFLhldKNkHaybXhGx_x2aWxw8CIMDQpzsxKAIQMYcfaHXPzsbov-2dkVi2hMnjtTFJZdtLjhs3qBlDUdQJx_oQ28bBeFbwOuaiccRGxEDn_7AEnmXDo7bjSBh6a5AkEVFGLTSG_eLrjlV16HIE7my12SIL71RkFqo-WOSUiQQH-V_cx0ZjWs3y4XEQKuL827u2jX4IDMmdHW7Z1MUut3bqpVq3]--></g></svg>