<svg xmlns="http://www.w3.org/2000/svg" xmlns:xlink="http://www.w3.org/1999/xlink" contentStyleType="text/css" height="966px" preserveAspectRatio="none" style="width:1221px;height:966px;background:#FFFFFF;" version="1.1" viewBox="0 0 1221 966" width="1221px" zoomAndPan="magnify"><title>Stage Execution Sequence</title><defs/><g><text fill="#000000" font-family="Arial" font-size="22" font-weight="bold" lengthAdjust="spacing" textLength="281.1982" x="474.1367" y="35.6357">Stage Execution Sequence</text><rect fill="#FFFFFF" height="713.9707" style="stroke:#000000;stroke-width:1;" width="10" x="188.75" y="155.8955"/><rect fill="#FFFFFF" height="658.373" style="stroke:#000000;stroke-width:1;" width="10" x="414.5547" y="183.6943"/><rect fill="#FFFFFF" height="491.5801" style="stroke:#000000;stroke-width:1;" width="10" x="610.3184" y="267.0908"/><rect fill="#FFFFFF" height="27.7988" style="stroke:#000000;stroke-width:1;" width="10" x="761.375" y="436.8838"/><rect fill="#FFFFFF" height="27.7988" style="stroke:#000000;stroke-width:1;" width="10" x="869.0693" y="522.2803"/><rect fill="#FFFFFF" height="27.7988" style="stroke:#000000;stroke-width:1;" width="10" x="969.7588" y="584.8779"/><rect fill="#FFFFFF" height="27.7988" style="stroke:#000000;stroke-width:1;" width="10" x="1070.7793" y="211.4932"/><rect fill="#FFFFFF" height="27.7988" style="stroke:#000000;stroke-width:1;" width="10" x="1070.7793" y="640.4756"/><rect fill="#FFFFFF" height="27.7988" style="stroke:#000000;stroke-width:1;" width="10" x="1070.7793" y="786.4697"/><rect fill="#FFFFFF" height="27.7988" style="stroke:#000000;stroke-width:1;" width="10" x="1163.4648" y="294.8896"/><rect fill="#FFFFFF" height="27.7988" style="stroke:#000000;stroke-width:1;" width="10" x="1163.4648" y="696.0732"/><rect fill="#FFFFFF" height="394.1836" style="stroke:#000000;stroke-width:1;" width="675.4971" x="539.9746" y="337.6885"/><rect fill="#FFFFFF" height="71.3965" style="stroke:#000000;stroke-width:1;" width="278.7471" x="549.9746" y="401.2861"/><rect fill="#FFFFFF" height="71.3965" style="stroke:#000000;stroke-width:1;" width="379.4424" x="549.9746" y="486.6826"/><line style="stroke:#000000;stroke-width:1;" x1="25" x2="25" y1="126.0967" y2="887.8662"/><line style="stroke:#000000;stroke-width:1;" x1="193.4131" x2="193.4131" y1="126.0967" y2="887.8662"/><line style="stroke:#000000;stroke-width:1;" x1="419.5322" x2="419.5322" y1="126.0967" y2="887.8662"/><line style="stroke:#000000;stroke-width:1;" x1="614.9746" x2="614.9746" y1="126.0967" y2="887.8662"/><line style="stroke:#000000;stroke-width:1;" x1="766.0283" x2="766.0283" y1="126.0967" y2="887.8662"/><line style="stroke:#000000;stroke-width:1;" x1="873.7217" x2="873.7217" y1="126.0967" y2="887.8662"/><line style="stroke:#000000;stroke-width:1;" x1="974.417" x2="974.417" y1="126.0967" y2="887.8662"/><line style="stroke:#000000;stroke-width:1;" x1="1075.1006" x2="1075.1006" y1="126.0967" y2="887.8662"/><line style="stroke:#000000;stroke-width:1;" x1="1168.458" x2="1168.458" y1="126.0967" y2="887.8662"/><text fill="#000000" font-family="Arial" font-size="12" lengthAdjust="spacing" textLength="25.3359" x="10" y="123.5537">User</text><ellipse cx="25.668" cy="60.2979" fill="#FFFFFF" rx="8" ry="8" style="stroke:#000000;stroke-width:1;"/><path d="M25.668,68.2979 L25.668,95.2979 M12.668,76.2979 L38.668,76.2979 M25.668,95.2979 L12.668,110.2979 M25.668,95.2979 L38.668,110.2979 " fill="none" style="stroke:#000000;stroke-width:1;"/><text fill="#000000" font-family="Arial" font-size="12" lengthAdjust="spacing" textLength="25.3359" x="10" y="898.1221">User</text><ellipse cx="25.668" cy="909.665" fill="#FFFFFF" rx="8" ry="8" style="stroke:#000000;stroke-width:1;"/><path d="M25.668,917.665 L25.668,944.665 M12.668,925.665 L38.668,925.665 M25.668,944.665 L12.668,959.665 M25.668,944.665 L38.668,959.665 " fill="none" style="stroke:#000000;stroke-width:1;"/><rect fill="#FFFFFF" height="27.7988" rx="2.5" ry="2.5" style="stroke:#000000;stroke-width:1;" width="32.6738" x="177.4131" y="97.2979"/><text fill="#000000" font-family="Arial" font-size="12" lengthAdjust="spacing" textLength="18.6738" x="184.4131" y="115.5537">CLI</text><rect fill="#FFFFFF" height="27.7988" rx="2.5" ry="2.5" style="stroke:#000000;stroke-width:1;" width="32.6738" x="177.4131" y="886.8662"/><text fill="#000000" font-family="Arial" font-size="12" lengthAdjust="spacing" textLength="18.6738" x="184.4131" y="905.1221">CLI</text><rect fill="#FFFFFF" height="27.7988" rx="2.5" ry="2.5" style="stroke:#000000;stroke-width:1;" width="100.0449" x="369.5322" y="97.2979"/><text fill="#000000" font-family="Arial" font-size="12" lengthAdjust="spacing" textLength="86.0449" x="376.5322" y="115.5537">Pipeline Service</text><rect fill="#FFFFFF" height="27.7988" rx="2.5" ry="2.5" style="stroke:#000000;stroke-width:1;" width="100.0449" x="369.5322" y="886.8662"/><text fill="#000000" font-family="Arial" font-size="12" lengthAdjust="spacing" textLength="86.0449" x="376.5322" y="905.1221">Pipeline Service</text><rect fill="#FFFFFF" height="41.5977" rx="2.5" ry="2.5" style="stroke:#000000;stroke-width:1;" width="90.6875" x="569.9746" y="83.499"/><text fill="#000000" font-family="Arial" font-size="12" lengthAdjust="spacing" textLength="76.6875" x="576.9746" y="101.7549">File Processor</text><text fill="#000000" font-family="Arial" font-size="12" lengthAdjust="spacing" textLength="40.0137" x="595.3115" y="115.5537">Service</text><rect fill="#FFFFFF" height="41.5977" rx="2.5" ry="2.5" style="stroke:#000000;stroke-width:1;" width="90.6875" x="569.9746" y="886.8662"/><text fill="#000000" font-family="Arial" font-size="12" lengthAdjust="spacing" textLength="76.6875" x="576.9746" y="905.1221">File Processor</text><text fill="#000000" font-family="Arial" font-size="12" lengthAdjust="spacing" textLength="40.0137" x="595.3115" y="918.9209">Service</text><rect fill="#FFFFFF" height="41.5977" rx="2.5" ry="2.5" style="stroke:#000000;stroke-width:1;" width="84.6934" x="724.0283" y="83.499"/><text fill="#000000" font-family="Arial" font-size="12" lengthAdjust="spacing" textLength="70.6934" x="731.0283" y="101.7549">Compression</text><text fill="#000000" font-family="Arial" font-size="12" lengthAdjust="spacing" textLength="40.0137" x="746.3682" y="115.5537">Service</text><rect fill="#FFFFFF" height="41.5977" rx="2.5" ry="2.5" style="stroke:#000000;stroke-width:1;" width="84.6934" x="724.0283" y="886.8662"/><text fill="#000000" font-family="Arial" font-size="12" lengthAdjust="spacing" textLength="70.6934" x="731.0283" y="905.1221">Compression</text><text fill="#000000" font-family="Arial" font-size="12" lengthAdjust="spacing" textLength="40.0137" x="746.3682" y="918.9209">Service</text><rect fill="#FFFFFF" height="41.5977" rx="2.5" ry="2.5" style="stroke:#000000;stroke-width:1;" width="70.6953" x="838.7217" y="83.499"/><text fill="#000000" font-family="Arial" font-size="12" lengthAdjust="spacing" textLength="56.6953" x="845.7217" y="101.7549">Encryption</text><text fill="#000000" font-family="Arial" font-size="12" lengthAdjust="spacing" textLength="40.0137" x="854.0625" y="115.5537">Service</text><rect fill="#FFFFFF" height="41.5977" rx="2.5" ry="2.5" style="stroke:#000000;stroke-width:1;" width="70.6953" x="838.7217" y="886.8662"/><text fill="#000000" font-family="Arial" font-size="12" lengthAdjust="spacing" textLength="56.6953" x="845.7217" y="905.1221">Encryption</text><text fill="#000000" font-family="Arial" font-size="12" lengthAdjust="spacing" textLength="40.0137" x="854.0625" y="918.9209">Service</text><rect fill="#FFFFFF" height="41.5977" rx="2.5" ry="2.5" style="stroke:#000000;stroke-width:1;" width="70.6836" x="939.417" y="83.499"/><text fill="#000000" font-family="Arial" font-size="12" lengthAdjust="spacing" textLength="56.6836" x="946.417" y="101.7549">Checksum</text><text fill="#000000" font-family="Arial" font-size="12" lengthAdjust="spacing" textLength="40.0137" x="954.752" y="115.5537">Service</text><rect fill="#FFFFFF" height="41.5977" rx="2.5" ry="2.5" style="stroke:#000000;stroke-width:1;" width="70.6836" x="939.417" y="886.8662"/><text fill="#000000" font-family="Arial" font-size="12" lengthAdjust="spacing" textLength="56.6836" x="946.417" y="905.1221">Checksum</text><text fill="#000000" font-family="Arial" font-size="12" lengthAdjust="spacing" textLength="40.0137" x="954.752" y="918.9209">Service</text><rect fill="#FFFFFF" height="27.7988" rx="2.5" ry="2.5" style="stroke:#000000;stroke-width:1;" width="71.3574" x="1040.1006" y="97.2979"/><text fill="#000000" font-family="Arial" font-size="12" lengthAdjust="spacing" textLength="57.3574" x="1047.1006" y="115.5537">Repository</text><rect fill="#FFFFFF" height="27.7988" rx="2.5" ry="2.5" style="stroke:#000000;stroke-width:1;" width="71.3574" x="1040.1006" y="886.8662"/><text fill="#000000" font-family="Arial" font-size="12" lengthAdjust="spacing" textLength="57.3574" x="1047.1006" y="905.1221">Repository</text><rect fill="#FFFFFF" height="41.5977" rx="2.5" ry="2.5" style="stroke:#000000;stroke-width:1;" width="54.0137" x="1141.458" y="83.499"/><text fill="#000000" font-family="Arial" font-size="12" lengthAdjust="spacing" textLength="38.6719" x="1149.1289" y="101.7549">File I/O</text><text fill="#000000" font-family="Arial" font-size="12" lengthAdjust="spacing" textLength="40.0137" x="1148.458" y="115.5537">Service</text><rect fill="#FFFFFF" height="41.5977" rx="2.5" ry="2.5" style="stroke:#000000;stroke-width:1;" width="54.0137" x="1141.458" y="886.8662"/><text fill="#000000" font-family="Arial" font-size="12" lengthAdjust="spacing" textLength="38.6719" x="1149.1289" y="905.1221">File I/O</text><text fill="#000000" font-family="Arial" font-size="12" lengthAdjust="spacing" textLength="40.0137" x="1148.458" y="918.9209">Service</text><rect fill="#FFFFFF" height="713.9707" style="stroke:#000000;stroke-width:1;" width="10" x="188.75" y="155.8955"/><rect fill="#FFFFFF" height="658.373" style="stroke:#000000;stroke-width:1;" width="10" x="414.5547" y="183.6943"/><rect fill="#FFFFFF" height="491.5801" style="stroke:#000000;stroke-width:1;" width="10" x="610.3184" y="267.0908"/><rect fill="#FFFFFF" height="27.7988" style="stroke:#000000;stroke-width:1;" width="10" x="761.375" y="436.8838"/><rect fill="#FFFFFF" height="27.7988" style="stroke:#000000;stroke-width:1;" width="10" x="869.0693" y="522.2803"/><rect fill="#FFFFFF" height="27.7988" style="stroke:#000000;stroke-width:1;" width="10" x="969.7588" y="584.8779"/><rect fill="#FFFFFF" height="27.7988" style="stroke:#000000;stroke-width:1;" width="10" x="1070.7793" y="211.4932"/><rect fill="#FFFFFF" height="27.7988" style="stroke:#000000;stroke-width:1;" width="10" x="1070.7793" y="640.4756"/><rect fill="#FFFFFF" height="27.7988" style="stroke:#000000;stroke-width:1;" width="10" x="1070.7793" y="786.4697"/><rect fill="#FFFFFF" height="27.7988" style="stroke:#000000;stroke-width:1;" width="10" x="1163.4648" y="294.8896"/><rect fill="#FFFFFF" height="27.7988" style="stroke:#000000;stroke-width:1;" width="10" x="1163.4648" y="696.0732"/><polygon fill="#000000" points="176.75,151.8955,186.75,155.8955,176.75,159.8955,180.75,155.8955" style="stroke:#000000;stroke-width:1;"/><line style="stroke:#000000;stroke-width:1;" x1="25.668" x2="182.75" y1="155.8955" y2="155.8955"/><text fill="#000000" font-family="Arial" font-size="12" lengthAdjust="spacing" textLength="144.082" x="35.168" y="151.3525">Execute pipeline command</text><polygon fill="#000000" points="402.5547,179.6943,412.5547,183.6943,402.5547,187.6943,406.5547,183.6943" style="stroke:#000000;stroke-width:1;"/><line style="stroke:#000000;stroke-width:1;" x1="198.75" x2="408.5547" y1="183.6943" y2="183.6943"/><text fill="#000000" font-family="Arial" font-size="12" lengthAdjust="spacing" textLength="196.8047" x="208.25" y="179.1514">create_and_execute_pipeline(config)</text><polygon fill="#000000" points="1058.7793,207.4932,1068.7793,211.4932,1058.7793,215.4932,1062.7793,211.4932" style="stroke:#000000;stroke-width:1;"/><line style="stroke:#000000;stroke-width:1;" x1="424.5547" x2="1064.7793" y1="211.4932" y2="211.4932"/><text fill="#000000" font-family="Arial" font-size="12" lengthAdjust="spacing" textLength="130.0723" x="682.6309" y="206.9502">create_pipeline_record()</text><polygon fill="#000000" points="435.5547,235.292,425.5547,239.292,435.5547,243.292,431.5547,239.292" style="stroke:#000000;stroke-width:1;"/><line style="stroke:#000000;stroke-width:1;stroke-dasharray:2.0,2.0;" x1="429.5547" x2="1074.7793" y1="239.292" y2="239.292"/><text fill="#000000" font-family="Arial" font-size="12" lengthAdjust="spacing" textLength="57.3809" x="721.4766" y="234.749">pipeline_id</text><polygon fill="#000000" points="598.3184,263.0908,608.3184,267.0908,598.3184,271.0908,602.3184,267.0908" style="stroke:#000000;stroke-width:1;"/><line style="stroke:#000000;stroke-width:1;" x1="424.5547" x2="604.3184" y1="267.0908" y2="267.0908"/><text fill="#000000" font-family="Arial" font-size="12" lengthAdjust="spacing" textLength="166.7637" x="434.0547" y="262.5479">process_file(input_path, config)</text><polygon fill="#000000" points="1151.4648,290.8896,1161.4648,294.8896,1151.4648,298.8896,1155.4648,294.8896" style="stroke:#000000;stroke-width:1;"/><line style="stroke:#000000;stroke-width:1;" x1="620.3184" x2="1157.4648" y1="294.8896" y2="294.8896"/><text fill="#000000" font-family="Arial" font-size="12" lengthAdjust="spacing" textLength="154.7695" x="814.5068" y="290.3467">read_file_chunks(input_path)</text><polygon fill="#000000" points="631.3184,318.6885,621.3184,322.6885,631.3184,326.6885,627.3184,322.6885" style="stroke:#000000;stroke-width:1;"/><line style="stroke:#000000;stroke-width:1;stroke-dasharray:2.0,2.0;" x1="625.3184" x2="1167.4648" y1="322.6885" y2="322.6885"/><text fill="#000000" font-family="Arial" font-size="12" lengthAdjust="spacing" textLength="76.043" x="856.3701" y="318.1455">chunk_iterator</text><path d="M539.9746,337.6885 L610.2988,337.6885 L610.2988,343.4873 L600.2988,353.4873 L539.9746,353.4873 L539.9746,337.6885 " fill="#FFFFFF" style="stroke:#000000;stroke-width:1;"/><rect fill="none" height="394.1836" style="stroke:#000000;stroke-width:1;" width="675.4971" x="539.9746" y="337.6885"/><text fill="#000000" font-family="Arial" font-size="12" font-weight="bold" lengthAdjust="spacing" textLength="25.3242" x="554.9746" y="349.9443">loop</text><text fill="#000000" font-family="Arial" font-size="12" font-weight="bold" lengthAdjust="spacing" textLength="93.3457" x="625.2988" y="350.9443">[for each chunk]</text><line style="stroke:#000000;stroke-width:1;" x1="620.3184" x2="662.3184" y1="373.2861" y2="373.2861"/><line style="stroke:#000000;stroke-width:1;" x1="662.3184" x2="662.3184" y1="373.2861" y2="386.2861"/><line style="stroke:#000000;stroke-width:1;" x1="621.3184" x2="662.3184" y1="386.2861" y2="386.2861"/><polygon fill="#000000" points="631.3184,382.2861,621.3184,386.2861,631.3184,390.2861,627.3184,386.2861" style="stroke:#000000;stroke-width:1;"/><text fill="#000000" font-family="Arial" font-size="12" lengthAdjust="spacing" textLength="100.7344" x="627.3184" y="368.7432">read_chunk_data()</text><path d="M549.9746,401.2861 L608.9785,401.2861 L608.9785,407.085 L598.9785,417.085 L549.9746,417.085 L549.9746,401.2861 " fill="#FFFFFF" style="stroke:#000000;stroke-width:1;"/><rect fill="none" height="71.3965" style="stroke:#000000;stroke-width:1;" width="278.7471" x="549.9746" y="401.2861"/><text fill="#000000" font-family="Arial" font-size="12" font-weight="bold" lengthAdjust="spacing" textLength="14.0039" x="564.9746" y="413.542">alt</text><text fill="#000000" font-family="Arial" font-size="12" font-weight="bold" lengthAdjust="spacing" textLength="131.3613" x="623.9785" y="414.542">[compression enabled]</text><polygon fill="#000000" points="749.375,432.8838,759.375,436.8838,749.375,440.8838,753.375,436.8838" style="stroke:#000000;stroke-width:1;"/><line style="stroke:#000000;stroke-width:1;" x1="620.3184" x2="755.375" y1="436.8838" y2="436.8838"/><text fill="#000000" font-family="Arial" font-size="12" lengthAdjust="spacing" textLength="122.0566" x="629.8184" y="432.3408">compress(chunk_data)</text><polygon fill="#000000" points="631.3184,460.6826,621.3184,464.6826,631.3184,468.6826,627.3184,464.6826" style="stroke:#000000;stroke-width:1;"/><line style="stroke:#000000;stroke-width:1;stroke-dasharray:2.0,2.0;" x1="625.3184" x2="765.375" y1="464.6826" y2="464.6826"/><text fill="#000000" font-family="Arial" font-size="12" lengthAdjust="spacing" textLength="95.3906" x="645.6514" y="460.1396">compressed_data</text><path d="M549.9746,486.6826 L608.9785,486.6826 L608.9785,492.4814 L598.9785,502.4814 L549.9746,502.4814 L549.9746,486.6826 " fill="#FFFFFF" style="stroke:#000000;stroke-width:1;"/><rect fill="none" height="71.3965" style="stroke:#000000;stroke-width:1;" width="379.4424" x="549.9746" y="486.6826"/><text fill="#000000" font-family="Arial" font-size="12" font-weight="bold" lengthAdjust="spacing" textLength="14.0039" x="564.9746" y="498.9385">alt</text><text fill="#000000" font-family="Arial" font-size="12" font-weight="bold" lengthAdjust="spacing" textLength="118.0137" x="623.9785" y="499.9385">[encryption enabled]</text><polygon fill="#000000" points="857.0693,518.2803,867.0693,522.2803,857.0693,526.2803,861.0693,522.2803" style="stroke:#000000;stroke-width:1;"/><line style="stroke:#000000;stroke-width:1;" x1="620.3184" x2="863.0693" y1="522.2803" y2="522.2803"/><text fill="#000000" font-family="Arial" font-size="12" lengthAdjust="spacing" textLength="109.3945" x="689.9966" y="517.7373">encrypt(chunk_data)</text><polygon fill="#000000" points="631.3184,546.0791,621.3184,550.0791,631.3184,554.0791,627.3184,550.0791" style="stroke:#000000;stroke-width:1;"/><line style="stroke:#000000;stroke-width:1;stroke-dasharray:2.0,2.0;" x1="625.3184" x2="873.0693" y1="550.0791" y2="550.0791"/><text fill="#000000" font-family="Arial" font-size="12" lengthAdjust="spacing" textLength="82.7285" x="705.8296" y="545.5361">encrypted_data</text><polygon fill="#000000" points="957.7588,580.8779,967.7588,584.8779,957.7588,588.8779,961.7588,584.8779" style="stroke:#000000;stroke-width:1;"/><line style="stroke:#000000;stroke-width:1;" x1="620.3184" x2="963.7588" y1="584.8779" y2="584.8779"/><text fill="#000000" font-family="Arial" font-size="12" lengthAdjust="spacing" textLength="117.4043" x="736.3364" y="580.335">calculate(chunk_data)</text><polygon fill="#000000" points="631.3184,608.6768,621.3184,612.6768,631.3184,616.6768,627.3184,612.6768" style="stroke:#000000;stroke-width:1;"/><line style="stroke:#000000;stroke-width:1;stroke-dasharray:2.0,2.0;" x1="625.3184" x2="973.7588" y1="612.6768" y2="612.6768"/><text fill="#000000" font-family="Arial" font-size="12" lengthAdjust="spacing" textLength="89.3789" x="752.8491" y="608.1338">checksum_value</text><polygon fill="#000000" points="1058.7793,636.4756,1068.7793,640.4756,1058.7793,644.4756,1062.7793,640.4756" style="stroke:#000000;stroke-width:1;"/><line style="stroke:#000000;stroke-width:1;" x1="620.3184" x2="1064.7793" y1="640.4756" y2="640.4756"/><text fill="#000000" font-family="Arial" font-size="12" lengthAdjust="spacing" textLength="188.1152" x="751.4912" y="635.9326">store_chunk_metadata(chunk_info)</text><polygon fill="#000000" points="631.3184,664.2744,621.3184,668.2744,631.3184,672.2744,627.3184,668.2744" style="stroke:#000000;stroke-width:1;"/><line style="stroke:#000000;stroke-width:1;stroke-dasharray:2.0,2.0;" x1="625.3184" x2="1074.7793" y1="668.2744" y2="668.2744"/><text fill="#000000" font-family="Arial" font-size="12" lengthAdjust="spacing" textLength="43.3477" x="826.375" y="663.7314">success</text><polygon fill="#000000" points="1151.4648,692.0732,1161.4648,696.0732,1151.4648,700.0732,1155.4648,696.0732" style="stroke:#000000;stroke-width:1;"/><line style="stroke:#000000;stroke-width:1;" x1="620.3184" x2="1157.4648" y1="696.0732" y2="696.0732"/><text fill="#000000" font-family="Arial" font-size="12" lengthAdjust="spacing" textLength="204.1348" x="789.8242" y="691.5303">write_chunk(output_path, chunk_data)</text><polygon fill="#000000" points="631.3184,719.8721,621.3184,723.8721,631.3184,727.8721,627.3184,723.8721" style="stroke:#000000;stroke-width:1;"/><line style="stroke:#000000;stroke-width:1;stroke-dasharray:2.0,2.0;" x1="625.3184" x2="1167.4648" y1="723.8721" y2="723.8721"/><text fill="#000000" font-family="Arial" font-size="12" lengthAdjust="spacing" textLength="43.3477" x="872.7178" y="719.3291">success</text><polygon fill="#000000" points="435.5547,754.6709,425.5547,758.6709,435.5547,762.6709,431.5547,758.6709" style="stroke:#000000;stroke-width:1;"/><line style="stroke:#000000;stroke-width:1;stroke-dasharray:2.0,2.0;" x1="429.5547" x2="614.3184" y1="758.6709" y2="758.6709"/><text fill="#000000" font-family="Arial" font-size="12" lengthAdjust="spacing" textLength="113.3965" x="463.2383" y="754.1279">processing_complete</text><polygon fill="#000000" points="1058.7793,782.4697,1068.7793,786.4697,1058.7793,790.4697,1062.7793,786.4697" style="stroke:#000000;stroke-width:1;"/><line style="stroke:#000000;stroke-width:1;" x1="424.5547" x2="1064.7793" y1="786.4697" y2="786.4697"/><text fill="#000000" font-family="Arial" font-size="12" lengthAdjust="spacing" textLength="186.791" x="654.2715" y="781.9268">update_pipeline_status(completed)</text><polygon fill="#000000" points="435.5547,810.2686,425.5547,814.2686,435.5547,818.2686,431.5547,814.2686" style="stroke:#000000;stroke-width:1;"/><line style="stroke:#000000;stroke-width:1;stroke-dasharray:2.0,2.0;" x1="429.5547" x2="1074.7793" y1="814.2686" y2="814.2686"/><text fill="#000000" font-family="Arial" font-size="12" lengthAdjust="spacing" textLength="43.3477" x="728.4932" y="809.7256">success</text><polygon fill="#000000" points="209.75,838.0674,199.75,842.0674,209.75,846.0674,205.75,842.0674" style="stroke:#000000;stroke-width:1;"/><line style="stroke:#000000;stroke-width:1;stroke-dasharray:2.0,2.0;" x1="203.75" x2="418.5547" y1="842.0674" y2="842.0674"/><text fill="#000000" font-family="Arial" font-size="12" lengthAdjust="spacing" textLength="29.3438" x="294.4805" y="837.5244">result</text><polygon fill="#000000" points="36.668,865.8662,26.668,869.8662,36.668,873.8662,32.668,869.8662" style="stroke:#000000;stroke-width:1;"/><line style="stroke:#000000;stroke-width:1;stroke-dasharray:2.0,2.0;" x1="30.668" x2="192.75" y1="869.8662" y2="869.8662"/><text fill="#000000" font-family="Arial" font-size="12" lengthAdjust="spacing" textLength="92.0156" x="63.7012" y="865.3232">Display summary</text><!--SRC=[ZLLDRzim3BthLsWzfS2AOJlcCA1OMw30Fee5kmqmD9b9XCYIfezisQyV9SksP3lOBeajae-F51_zoX-X0sea4uguar26MTRH5lOiIF-abV_Cq7vl1PFhzftu0_JjkyBeu6S0nU4JECSES2_5GL4EoeCbn0ilWUuy6kZZR-312wteBeSGmhZNbdvpw8jeNd1XcFBqviF7vnlA7ELIr8ONOK0AXPXWpu93yZBvi75dNhi_2Kp_OZL7Sjf-LsNK7csDGTiijUwCHNSaMllpoL17F2fkByOl0c0ydsKu0Z-vqCtWysdj-nMCTWART4bE5bzNAdn-ysMbDg49YQsbT-zZ8xVv1c3iLoofOwgDro3E32sntmH_OaZPrItb5j2XGUy6UfXcSDXmhVRYS3l1L1T2ohS878iO0KUZ1QvjkobGKh7nXzujw8nleYKjr26BXEDDOrm_2qqysk081zyOve-lwQA6QJp8-3Y22Im0-RS9f-77e4wkW9l3u4ta_rHAmIU5DWB5ml2IorB6AvHQ6xf7cQ3js0SGIfUSUi34gaTjcMVOJtHcqfVZYvF9VaXeqJ83AfosuyjcWhjD8TEu59A8XZB7lD1iWZO19VUYsXe9S2OpxKb4rrbFFjlX-JhdGfNnlC2VCSwMAuGhcCotRcNMCvRE90yIWsQafk87wTFnSJad_NbpPZ80gNitXCyfz49pE5XvHfiEF4jZaUTExNN59Ec7qb5q1GCNU5HEdRhNszeqHeNyiZZOVUQD3huGsteVXf6dz8fQLZaCKUaI2YBBdT5hNwX34yTDWeU5u7h1hs-iODfgOpdFV41rPApsFrVNKCG_rjQmj54L-EqjlUljchOrEiTDlwKFmk7N_O99SBFRInaMT_jV]--></g></svg>