<svg xmlns="http://www.w3.org/2000/svg" xmlns:xlink="http://www.w3.org/1999/xlink" contentStyleType="text/css" height="614px" preserveAspectRatio="none" style="width:3632px;height:614px;background:#FFFFFF;" version="1.1" viewBox="0 0 3632 614" width="3632px" zoomAndPan="magnify"><title>Project Structure</title><defs/><g><text fill="#000000" font-family="Arial" font-size="22" font-weight="bold" lengthAdjust="spacing" textLength="178.4922" x="1722.6938" y="35.6357">Project Structure</text><!--cluster optimized_adaptive_pipeline_rs--><g id="cluster_optimized_adaptive_pipeline_rs"><rect fill="#FFFFFF" height="478.09" rx="2.5" ry="2.5" style="stroke:#000000;stroke-width:1;" width="3229" x="12" y="130.0879"/><text fill="#000000" font-family="Arial" font-size="12" font-weight="bold" lengthAdjust="spacing" textLength="181.3887" x="1535.8057" y="143.3437">optimized_adaptive_pipeline_rs</text></g><!--cluster pipelinefolder--><g id="cluster_pipelinefolder"><path d="M38.5,170.0879 L88.1738,170.0879 A3.75,3.75 0 0 1 90.6738,172.5879 L97.6738,189.8867 L1934.5,189.8867 A2.5,2.5 0 0 1 1937,192.3867 L1937,581.6779 A2.5,2.5 0 0 1 1934.5,584.1779 L38.5,584.1779 A2.5,2.5 0 0 1 36,581.6779 L36,172.5879 A2.5,2.5 0 0 1 38.5,170.0879 " fill="#FFFFFF" style="stroke:#000000;stroke-width:1;"/><line style="stroke:#000000;stroke-width:1;" x1="36" x2="97.6738" y1="189.8867" y2="189.8867"/><text fill="#000000" font-family="Arial" font-size="12" font-weight="bold" lengthAdjust="spacing" textLength="48.6738" x="40" y="183.3437">pipeline/</text></g><!--cluster src/--><g id="cluster_src/"><path d="M62.5,210.0879 L84.8516,210.0879 A3.75,3.75 0 0 1 87.3516,212.5879 L94.3516,229.8867 L1776.5,229.8867 A2.5,2.5 0 0 1 1779,232.3867 L1779,557.6779 A2.5,2.5 0 0 1 1776.5,560.1779 L62.5,560.1779 A2.5,2.5 0 0 1 60,557.6779 L60,212.5879 A2.5,2.5 0 0 1 62.5,210.0879 " fill="#FFFFFF" style="stroke:#000000;stroke-width:1;"/><line style="stroke:#000000;stroke-width:1;" x1="60" x2="94.3516" y1="229.8867" y2="229.8867"/><text fill="#000000" font-family="Arial" font-size="12" font-weight="bold" lengthAdjust="spacing" textLength="21.3516" x="64" y="223.3437">src/</text></g><!--cluster domain/--><g id="cluster_domain/"><path d="M86.5,250.0879 L133.502,250.0879 A3.75,3.75 0 0 1 136.002,252.5879 L143.002,269.8867 L386.5,269.8867 A2.5,2.5 0 0 1 389,272.3867 L389,453.8779 A2.5,2.5 0 0 1 386.5,456.3779 L86.5,456.3779 A2.5,2.5 0 0 1 84,453.8779 L84,252.5879 A2.5,2.5 0 0 1 86.5,250.0879 " fill="#FFFFFF" style="stroke:#000000;stroke-width:1;"/><line style="stroke:#000000;stroke-width:1;" x1="84" x2="143.002" y1="269.8867" y2="269.8867"/><text fill="#000000" font-family="Arial" font-size="12" font-weight="bold" lengthAdjust="spacing" textLength="46.002" x="88" y="263.3437">domain/</text></g><!--cluster application/--><g id="cluster_application/"><path d="M415.5,250.0879 L483.1738,250.0879 A3.75,3.75 0 0 1 485.6738,252.5879 L492.6738,269.8867 L723.5,269.8867 A2.5,2.5 0 0 1 726,272.3867 L726,339.3779 A2.5,2.5 0 0 1 723.5,341.8779 L415.5,341.8779 A2.5,2.5 0 0 1 413,339.3779 L413,252.5879 A2.5,2.5 0 0 1 415.5,250.0879 " fill="#FFFFFF" style="stroke:#000000;stroke-width:1;"/><line style="stroke:#000000;stroke-width:1;" x1="413" x2="492.6738" y1="269.8867" y2="269.8867"/><text fill="#000000" font-family="Arial" font-size="12" font-weight="bold" lengthAdjust="spacing" textLength="66.6738" x="417" y="263.3437">application/</text></g><!--cluster infrastructure/--><g id="cluster_infrastructure/"><path d="M752.5,250.0879 L834.8516,250.0879 A3.75,3.75 0 0 1 837.3516,252.5879 L844.3516,269.8867 L1008.5,269.8867 A2.5,2.5 0 0 1 1011,272.3867 L1011,453.8779 A2.5,2.5 0 0 1 1008.5,456.3779 L752.5,456.3779 A2.5,2.5 0 0 1 750,453.8779 L750,252.5879 A2.5,2.5 0 0 1 752.5,250.0879 " fill="#FFFFFF" style="stroke:#000000;stroke-width:1;"/><line style="stroke:#000000;stroke-width:1;" x1="750" x2="844.3516" y1="269.8867" y2="269.8867"/><text fill="#000000" font-family="Arial" font-size="12" font-weight="bold" lengthAdjust="spacing" textLength="81.3516" x="754" y="263.3437">infrastructure/</text></g><!--cluster presentation/--><g id="cluster_presentation/"><path d="M1037.5,250.0879 L1113.8457,250.0879 A3.75,3.75 0 0 1 1116.3457,252.5879 L1123.3457,269.8867 L1269.5,269.8867 A2.5,2.5 0 0 1 1272,272.3867 L1272,339.3779 A2.5,2.5 0 0 1 1269.5,341.8779 L1037.5,341.8779 A2.5,2.5 0 0 1 1035,339.3779 L1035,252.5879 A2.5,2.5 0 0 1 1037.5,250.0879 " fill="#FFFFFF" style="stroke:#000000;stroke-width:1;"/><line style="stroke:#000000;stroke-width:1;" x1="1035" x2="1123.3457" y1="269.8867" y2="269.8867"/><text fill="#000000" font-family="Arial" font-size="12" font-weight="bold" lengthAdjust="spacing" textLength="75.3457" x="1039" y="263.3437">presentation/</text></g><!--cluster domainfolder--><g id="cluster_domainfolder"><path d="M1963.5,243.1879 L2059.8379,243.1879 A3.75,3.75 0 0 1 2062.3379,245.6879 L2069.3379,262.9867 L2122.5,262.9867 A2.5,2.5 0 0 1 2125,265.4867 L2125,346.2779 A2.5,2.5 0 0 1 2122.5,348.7779 L1963.5,348.7779 A2.5,2.5 0 0 1 1961,346.2779 L1961,245.6879 A2.5,2.5 0 0 1 1963.5,243.1879 " fill="#FFFFFF" style="stroke:#000000;stroke-width:1;"/><line style="stroke:#000000;stroke-width:1;" x1="1961" x2="2069.3379" y1="262.9867" y2="262.9867"/><text fill="#000000" font-family="Arial" font-size="12" font-weight="bold" lengthAdjust="spacing" textLength="95.3379" x="1965" y="256.4437">pipeline-domain/</text></g><!--cluster bootstrapfolder--><g id="cluster_bootstrapfolder"><path d="M2151.5,243.1879 L2211.1641,243.1879 A3.75,3.75 0 0 1 2213.6641,245.6879 L2220.6641,262.9867 L2302.5,262.9867 A2.5,2.5 0 0 1 2305,265.4867 L2305,346.2779 A2.5,2.5 0 0 1 2302.5,348.7779 L2151.5,348.7779 A2.5,2.5 0 0 1 2149,346.2779 L2149,245.6879 A2.5,2.5 0 0 1 2151.5,243.1879 " fill="#FFFFFF" style="stroke:#000000;stroke-width:1;"/><line style="stroke:#000000;stroke-width:1;" x1="2149" x2="2220.6641" y1="262.9867" y2="262.9867"/><text fill="#000000" font-family="Arial" font-size="12" font-weight="bold" lengthAdjust="spacing" textLength="58.6641" x="2153" y="256.4437">bootstrap/</text></g><!--cluster docs/--><g id="cluster_docs/"><path d="M2331.5,243.1879 L2363.8418,243.1879 A3.75,3.75 0 0 1 2366.3418,245.6879 L2373.3418,262.9867 L2508.5,262.9867 A2.5,2.5 0 0 1 2511,265.4867 L2511,346.2779 A2.5,2.5 0 0 1 2508.5,348.7779 L2331.5,348.7779 A2.5,2.5 0 0 1 2329,346.2779 L2329,245.6879 A2.5,2.5 0 0 1 2331.5,243.1879 " fill="#FFFFFF" style="stroke:#000000;stroke-width:1;"/><line style="stroke:#000000;stroke-width:1;" x1="2329" x2="2373.3418" y1="262.9867" y2="262.9867"/><text fill="#000000" font-family="Arial" font-size="12" font-weight="bold" lengthAdjust="spacing" textLength="31.3418" x="2333" y="256.4437">docs/</text></g><!--cluster pipeline/docs/--><g id="cluster_pipeline/docs/"><path d="M2537.5,243.1879 L2618.5156,243.1879 A3.75,3.75 0 0 1 2621.0156,245.6879 L2628.0156,262.9867 L2690.5,262.9867 A2.5,2.5 0 0 1 2693,265.4867 L2693,346.2779 A2.5,2.5 0 0 1 2690.5,348.7779 L2537.5,348.7779 A2.5,2.5 0 0 1 2535,346.2779 L2535,245.6879 A2.5,2.5 0 0 1 2537.5,243.1879 " fill="#FFFFFF" style="stroke:#000000;stroke-width:1;"/><line style="stroke:#000000;stroke-width:1;" x1="2535" x2="2628.0156" y1="262.9867" y2="262.9867"/><text fill="#000000" font-family="Arial" font-size="12" font-weight="bold" lengthAdjust="spacing" textLength="80.0156" x="2539" y="256.4437">pipeline/docs/</text></g><!--cluster tools/--><g id="cluster_tools/"><path d="M2719.5,250.0879 L2752.498,250.0879 A3.75,3.75 0 0 1 2754.998,252.5879 L2761.998,269.8867 L3025.5,269.8867 A2.5,2.5 0 0 1 3028,272.3867 L3028,339.3779 A2.5,2.5 0 0 1 3025.5,341.8779 L2719.5,341.8779 A2.5,2.5 0 0 1 2717,339.3779 L2717,252.5879 A2.5,2.5 0 0 1 2719.5,250.0879 " fill="#FFFFFF" style="stroke:#000000;stroke-width:1;"/><line style="stroke:#000000;stroke-width:1;" x1="2717" x2="2761.998" y1="269.8867" y2="269.8867"/><text fill="#000000" font-family="Arial" font-size="12" font-weight="bold" lengthAdjust="spacing" textLength="31.998" x="2721" y="263.3437">tools/</text></g><!--entity cargo--><g id="elem_cargo"><path d="M3046.66,289.5879 L3046.66,318.3867 A2.5,2.5 0 0 0 3049.16,320.8867 L3122.8475,320.8867 A2.5,2.5 0 0 0 3125.3475,318.3867 L3125.3475,297.0879 L3115.3475,287.0879 L3049.16,287.0879 A2.5,2.5 0 0 0 3046.66,289.5879 " fill="#FFFFFF" style="stroke:#000000;stroke-width:1;"/><path d="M3115.3475,287.0879 L3115.3475,294.5879 A2.5,2.5 0 0 0 3117.8475,297.0879 L3125.3475,297.0879 " fill="#FFFFFF" style="stroke:#000000;stroke-width:1;"/><text fill="#000000" font-family="Arial" font-size="12" lengthAdjust="spacing" textLength="58.6875" x="3056.66" y="308.3437">Cargo.toml</text></g><!--entity makefile--><g id="elem_makefile"><path d="M3160.66,289.5879 L3160.66,318.3867 A2.5,2.5 0 0 0 3163.16,320.8867 L3222.8436,320.8867 A2.5,2.5 0 0 0 3225.3436,318.3867 L3225.3436,297.0879 L3215.3436,287.0879 L3163.16,287.0879 A2.5,2.5 0 0 0 3160.66,289.5879 " fill="#FFFFFF" style="stroke:#000000;stroke-width:1;"/><path d="M3215.3436,287.0879 L3215.3436,294.5879 A2.5,2.5 0 0 0 3217.8436,297.0879 L3225.3436,297.0879 " fill="#FFFFFF" style="stroke:#000000;stroke-width:1;"/><text fill="#000000" font-family="Arial" font-size="12" lengthAdjust="spacing" textLength="44.6836" x="3170.66" y="308.3437">Makefile</text></g><!--entity pipeline--><g id="elem_pipeline"><rect fill="#FFFFFF" height="57.5977" rx="2.5" ry="2.5" style="stroke:#000000;stroke-width:1;" width="122.7109" x="1798.64" y="275.1879"/><rect fill="#FFFFFF" height="10" style="stroke:#000000;stroke-width:1;" width="15" x="1901.3509" y="280.1879"/><rect fill="#FFFFFF" height="2" style="stroke:#000000;stroke-width:1;" width="4" x="1899.3509" y="282.1879"/><rect fill="#FFFFFF" height="2" style="stroke:#000000;stroke-width:1;" width="4" x="1899.3509" y="286.1879"/><text fill="#000000" font-family="Arial" font-size="12" lengthAdjust="spacing" textLength="82.7109" x="1813.64" y="306.4437">Pipeline Library</text><text fill="#000000" font-family="Arial" font-size="12" lengthAdjust="spacing" textLength="66.6797" x="1813.64" y="320.2425">(Main Crate)</text></g><!--entity lib.rs--><g id="elem_lib.rs"><rect fill="#FFFFFF" height="43.7988" rx="2.5" ry="2.5" style="stroke:#000000;stroke-width:1;" width="65.3359" x="1290.33" y="282.0879"/><rect fill="#FFFFFF" height="10" style="stroke:#000000;stroke-width:1;" width="15" x="1335.6659" y="287.0879"/><rect fill="#FFFFFF" height="2" style="stroke:#000000;stroke-width:1;" width="4" x="1333.6659" y="289.0879"/><rect fill="#FFFFFF" height="2" style="stroke:#000000;stroke-width:1;" width="4" x="1333.6659" y="293.0879"/><text fill="#000000" font-family="Arial" font-size="12" lengthAdjust="spacing" textLength="25.3359" x="1305.33" y="313.3437">lib.rs</text></g><!--entity main.rs--><g id="elem_main.rs"><rect fill="#FFFFFF" height="43.7988" rx="2.5" ry="2.5" style="stroke:#000000;stroke-width:1;" width="79.3398" x="1390.33" y="282.0879"/><rect fill="#FFFFFF" height="10" style="stroke:#000000;stroke-width:1;" width="15" x="1449.6698" y="287.0879"/><rect fill="#FFFFFF" height="2" style="stroke:#000000;stroke-width:1;" width="4" x="1447.6698" y="289.0879"/><rect fill="#FFFFFF" height="2" style="stroke:#000000;stroke-width:1;" width="4" x="1447.6698" y="293.0879"/><text fill="#000000" font-family="Arial" font-size="12" lengthAdjust="spacing" textLength="39.3398" x="1405.33" y="313.3437">main.rs</text></g><!--entity Introduction--><g id="elem_Introduction"><rect fill="#FFFFFF" height="43.7988" rx="2.5" ry="2.5" style="stroke:#000000;stroke-width:1;" width="102.707" x="1504.65" y="282.0879"/><rect fill="#FFFFFF" height="10" style="stroke:#000000;stroke-width:1;" width="15" x="1587.357" y="287.0879"/><rect fill="#FFFFFF" height="2" style="stroke:#000000;stroke-width:1;" width="4" x="1585.357" y="289.0879"/><rect fill="#FFFFFF" height="2" style="stroke:#000000;stroke-width:1;" width="4" x="1585.357" y="293.0879"/><text fill="#000000" font-family="Arial" font-size="12" lengthAdjust="spacing" textLength="62.707" x="1519.65" y="313.3437">Introduction</text></g><!--entity Getting Started--><g id="elem_Getting Started"><rect fill="#FFFFFF" height="43.7988" rx="2.5" ry="2.5" style="stroke:#000000;stroke-width:1;" width="120.7129" x="1642.64" y="282.0879"/><rect fill="#FFFFFF" height="10" style="stroke:#000000;stroke-width:1;" width="15" x="1743.3529" y="287.0879"/><rect fill="#FFFFFF" height="2" style="stroke:#000000;stroke-width:1;" width="4" x="1741.3529" y="289.0879"/><rect fill="#FFFFFF" height="2" style="stroke:#000000;stroke-width:1;" width="4" x="1741.3529" y="293.0879"/><text fill="#000000" font-family="Arial" font-size="12" lengthAdjust="spacing" textLength="80.7129" x="1657.64" y="313.3437">Getting Started</text></g><!--entity Architecture--><g id="elem_Architecture"><rect fill="#FFFFFF" height="43.7988" rx="2.5" ry="2.5" style="stroke:#000000;stroke-width:1;" width="104.0254" x="1189.99" y="396.5779"/><rect fill="#FFFFFF" height="10" style="stroke:#000000;stroke-width:1;" width="15" x="1274.0154" y="401.5779"/><rect fill="#FFFFFF" height="2" style="stroke:#000000;stroke-width:1;" width="4" x="1272.0154" y="403.5779"/><rect fill="#FFFFFF" height="2" style="stroke:#000000;stroke-width:1;" width="4" x="1272.0154" y="407.5779"/><text fill="#000000" font-family="Arial" font-size="12" lengthAdjust="spacing" textLength="64.0254" x="1204.99" y="427.8337">Architecture</text></g><!--entity Contributing--><g id="elem_Contributing"><rect fill="#FFFFFF" height="43.7988" rx="2.5" ry="2.5" style="stroke:#000000;stroke-width:1;" width="104.7051" x="1328.65" y="396.5779"/><rect fill="#FFFFFF" height="10" style="stroke:#000000;stroke-width:1;" width="15" x="1413.3551" y="401.5779"/><rect fill="#FFFFFF" height="2" style="stroke:#000000;stroke-width:1;" width="4" x="1411.3551" y="403.5779"/><rect fill="#FFFFFF" height="2" style="stroke:#000000;stroke-width:1;" width="4" x="1411.3551" y="407.5779"/><text fill="#000000" font-family="Arial" font-size="12" lengthAdjust="spacing" textLength="64.7051" x="1343.65" y="427.8337">Contributing</text></g><!--entity Fundamentals--><g id="elem_Fundamentals"><rect fill="#FFFFFF" height="43.7988" rx="2.5" ry="2.5" style="stroke:#000000;stroke-width:1;" width="116.043" x="1467.98" y="396.5779"/><rect fill="#FFFFFF" height="10" style="stroke:#000000;stroke-width:1;" width="15" x="1564.023" y="401.5779"/><rect fill="#FFFFFF" height="2" style="stroke:#000000;stroke-width:1;" width="4" x="1562.023" y="403.5779"/><rect fill="#FFFFFF" height="2" style="stroke:#000000;stroke-width:1;" width="4" x="1562.023" y="407.5779"/><text fill="#000000" font-family="Arial" font-size="12" lengthAdjust="spacing" textLength="76.043" x="1482.98" y="427.8337">Fundamentals</text></g><!--entity Architecture Details--><g id="elem_Architecture Details"><rect fill="#FFFFFF" height="43.7988" rx="2.5" ry="2.5" style="stroke:#000000;stroke-width:1;" width="144.0391" x="1618.98" y="396.5779"/><rect fill="#FFFFFF" height="10" style="stroke:#000000;stroke-width:1;" width="15" x="1743.0191" y="401.5779"/><rect fill="#FFFFFF" height="2" style="stroke:#000000;stroke-width:1;" width="4" x="1741.0191" y="403.5779"/><rect fill="#FFFFFF" height="2" style="stroke:#000000;stroke-width:1;" width="4" x="1741.0191" y="407.5779"/><text fill="#000000" font-family="Arial" font-size="12" lengthAdjust="spacing" textLength="104.0391" x="1633.98" y="427.8337">Architecture Details</text></g><!--entity Implementation--><g id="elem_Implementation"><rect fill="#FFFFFF" height="43.7988" rx="2.5" ry="2.5" style="stroke:#000000;stroke-width:1;" width="122.043" x="1180.98" y="500.3779"/><rect fill="#FFFFFF" height="10" style="stroke:#000000;stroke-width:1;" width="15" x="1283.023" y="505.3779"/><rect fill="#FFFFFF" height="2" style="stroke:#000000;stroke-width:1;" width="4" x="1281.023" y="507.3779"/><rect fill="#FFFFFF" height="2" style="stroke:#000000;stroke-width:1;" width="4" x="1281.023" y="511.3779"/><text fill="#000000" font-family="Arial" font-size="12" lengthAdjust="spacing" textLength="82.043" x="1195.98" y="531.6337">Implementation</text></g><!--entity Advanced Topics--><g id="elem_Advanced Topics"><rect fill="#FFFFFF" height="43.7988" rx="2.5" ry="2.5" style="stroke:#000000;stroke-width:1;" width="132.0508" x="1337.97" y="500.3779"/><rect fill="#FFFFFF" height="10" style="stroke:#000000;stroke-width:1;" width="15" x="1450.0208" y="505.3779"/><rect fill="#FFFFFF" height="2" style="stroke:#000000;stroke-width:1;" width="4" x="1448.0208" y="507.3779"/><rect fill="#FFFFFF" height="2" style="stroke:#000000;stroke-width:1;" width="4" x="1448.0208" y="511.3779"/><text fill="#000000" font-family="Arial" font-size="12" lengthAdjust="spacing" textLength="92.0508" x="1352.97" y="531.6337">Advanced Topics</text></g><!--entity Domain Entities--><g id="elem_Domain Entities"><rect fill="#FFFFFF" height="43.7988" rx="2.5" ry="2.5" style="stroke:#000000;stroke-width:1;" width="124.0352" x="99.98" y="282.0879"/><rect fill="#FFFFFF" height="10" style="stroke:#000000;stroke-width:1;" width="15" x="204.0152" y="287.0879"/><rect fill="#FFFFFF" height="2" style="stroke:#000000;stroke-width:1;" width="4" x="202.0152" y="289.0879"/><rect fill="#FFFFFF" height="2" style="stroke:#000000;stroke-width:1;" width="4" x="202.0152" y="293.0879"/><text fill="#000000" font-family="Arial" font-size="12" lengthAdjust="spacing" textLength="84.0352" x="114.98" y="313.3437">Domain Entities</text></g><!--entity Value Objects--><g id="elem_Value Objects"><rect fill="#FFFFFF" height="43.7988" rx="2.5" ry="2.5" style="stroke:#000000;stroke-width:1;" width="114.707" x="258.65" y="282.0879"/><rect fill="#FFFFFF" height="10" style="stroke:#000000;stroke-width:1;" width="15" x="353.357" y="287.0879"/><rect fill="#FFFFFF" height="2" style="stroke:#000000;stroke-width:1;" width="4" x="351.357" y="289.0879"/><rect fill="#FFFFFF" height="2" style="stroke:#000000;stroke-width:1;" width="4" x="351.357" y="293.0879"/><text fill="#000000" font-family="Arial" font-size="12" lengthAdjust="spacing" textLength="74.707" x="273.65" y="313.3437">Value Objects</text></g><!--entity Domain Services--><g id="elem_Domain Services"><rect fill="#FFFFFF" height="43.7988" rx="2.5" ry="2.5" style="stroke:#000000;stroke-width:1;" width="130.6973" x="99.65" y="396.5779"/><rect fill="#FFFFFF" height="10" style="stroke:#000000;stroke-width:1;" width="15" x="210.3473" y="401.5779"/><rect fill="#FFFFFF" height="2" style="stroke:#000000;stroke-width:1;" width="4" x="208.3473" y="403.5779"/><rect fill="#FFFFFF" height="2" style="stroke:#000000;stroke-width:1;" width="4" x="208.3473" y="407.5779"/><text fill="#000000" font-family="Arial" font-size="12" lengthAdjust="spacing" textLength="90.6973" x="114.65" y="427.8337">Domain Services</text></g><!--entity Use Cases--><g id="elem_Use Cases"><rect fill="#FFFFFF" height="43.7988" rx="2.5" ry="2.5" style="stroke:#000000;stroke-width:1;" width="98.6875" x="428.66" y="282.0879"/><rect fill="#FFFFFF" height="10" style="stroke:#000000;stroke-width:1;" width="15" x="507.3475" y="287.0879"/><rect fill="#FFFFFF" height="2" style="stroke:#000000;stroke-width:1;" width="4" x="505.3475" y="289.0879"/><rect fill="#FFFFFF" height="2" style="stroke:#000000;stroke-width:1;" width="4" x="505.3475" y="293.0879"/><text fill="#000000" font-family="Arial" font-size="12" lengthAdjust="spacing" textLength="58.6875" x="443.66" y="313.3437">Use Cases</text></g><!--entity Application Services--><g id="elem_Application Services"><rect fill="#FFFFFF" height="43.7988" rx="2.5" ry="2.5" style="stroke:#000000;stroke-width:1;" width="148.0527" x="561.97" y="282.0879"/><rect fill="#FFFFFF" height="10" style="stroke:#000000;stroke-width:1;" width="15" x="690.0227" y="287.0879"/><rect fill="#FFFFFF" height="2" style="stroke:#000000;stroke-width:1;" width="4" x="688.0227" y="289.0879"/><rect fill="#FFFFFF" height="2" style="stroke:#000000;stroke-width:1;" width="4" x="688.0227" y="293.0879"/><text fill="#000000" font-family="Arial" font-size="12" lengthAdjust="spacing" textLength="108.0527" x="576.97" y="313.3437">Application Services</text></g><!--entity Repositories--><g id="elem_Repositories"><rect fill="#FFFFFF" height="43.7988" rx="2.5" ry="2.5" style="stroke:#000000;stroke-width:1;" width="106.6973" x="765.65" y="282.0879"/><rect fill="#FFFFFF" height="10" style="stroke:#000000;stroke-width:1;" width="15" x="852.3473" y="287.0879"/><rect fill="#FFFFFF" height="2" style="stroke:#000000;stroke-width:1;" width="4" x="850.3473" y="289.0879"/><rect fill="#FFFFFF" height="2" style="stroke:#000000;stroke-width:1;" width="4" x="850.3473" y="293.0879"/><text fill="#000000" font-family="Arial" font-size="12" lengthAdjust="spacing" textLength="66.6973" x="780.65" y="313.3437">Repositories</text></g><!--entity Adapters--><g id="elem_Adapters"><rect fill="#FFFFFF" height="43.7988" rx="2.5" ry="2.5" style="stroke:#000000;stroke-width:1;" width="88.0293" x="906.99" y="282.0879"/><rect fill="#FFFFFF" height="10" style="stroke:#000000;stroke-width:1;" width="15" x="975.0193" y="287.0879"/><rect fill="#FFFFFF" height="2" style="stroke:#000000;stroke-width:1;" width="4" x="973.0193" y="289.0879"/><rect fill="#FFFFFF" height="2" style="stroke:#000000;stroke-width:1;" width="4" x="973.0193" y="293.0879"/><text fill="#000000" font-family="Arial" font-size="12" lengthAdjust="spacing" textLength="48.0293" x="921.99" y="313.3437">Adapters</text></g><!--entity Metrics--><g id="elem_Metrics"><rect fill="#FFFFFF" height="43.7988" rx="2.5" ry="2.5" style="stroke:#000000;stroke-width:1;" width="78.666" x="779.67" y="396.5779"/><rect fill="#FFFFFF" height="10" style="stroke:#000000;stroke-width:1;" width="15" x="838.336" y="401.5779"/><rect fill="#FFFFFF" height="2" style="stroke:#000000;stroke-width:1;" width="4" x="836.336" y="403.5779"/><rect fill="#FFFFFF" height="2" style="stroke:#000000;stroke-width:1;" width="4" x="836.336" y="407.5779"/><text fill="#000000" font-family="Arial" font-size="12" lengthAdjust="spacing" textLength="38.666" x="794.67" y="427.8337">Metrics</text></g><!--entity CLI--><g id="elem_CLI"><rect fill="#FFFFFF" height="43.7988" rx="2.5" ry="2.5" style="stroke:#000000;stroke-width:1;" width="58.6738" x="1050.66" y="282.0879"/><rect fill="#FFFFFF" height="10" style="stroke:#000000;stroke-width:1;" width="15" x="1089.3338" y="287.0879"/><rect fill="#FFFFFF" height="2" style="stroke:#000000;stroke-width:1;" width="4" x="1087.3338" y="289.0879"/><rect fill="#FFFFFF" height="2" style="stroke:#000000;stroke-width:1;" width="4" x="1087.3338" y="293.0879"/><text fill="#000000" font-family="Arial" font-size="12" lengthAdjust="spacing" textLength="18.6738" x="1065.66" y="313.3437">CLI</text></g><!--entity Configuration--><g id="elem_Configuration"><rect fill="#FFFFFF" height="43.7988" rx="2.5" ry="2.5" style="stroke:#000000;stroke-width:1;" width="111.3789" x="1144.31" y="282.0879"/><rect fill="#FFFFFF" height="10" style="stroke:#000000;stroke-width:1;" width="15" x="1235.6889" y="287.0879"/><rect fill="#FFFFFF" height="2" style="stroke:#000000;stroke-width:1;" width="4" x="1233.6889" y="289.0879"/><rect fill="#FFFFFF" height="2" style="stroke:#000000;stroke-width:1;" width="4" x="1233.6889" y="293.0879"/><text fill="#000000" font-family="Arial" font-size="12" lengthAdjust="spacing" textLength="71.3789" x="1159.31" y="313.3437">Configuration</text></g><!--entity domain--><g id="elem_domain"><rect fill="#FFFFFF" height="57.5977" rx="2.5" ry="2.5" style="stroke:#000000;stroke-width:1;" width="131.3711" x="1977.31" y="275.1879"/><rect fill="#FFFFFF" height="10" style="stroke:#000000;stroke-width:1;" width="15" x="2088.6811" y="280.1879"/><rect fill="#FFFFFF" height="2" style="stroke:#000000;stroke-width:1;" width="4" x="2086.6811" y="282.1879"/><rect fill="#FFFFFF" height="2" style="stroke:#000000;stroke-width:1;" width="4" x="2086.6811" y="286.1879"/><text fill="#000000" font-family="Arial" font-size="12" lengthAdjust="spacing" textLength="74.0273" x="1992.31" y="306.4437">Domain Crate</text><text fill="#000000" font-family="Arial" font-size="12" lengthAdjust="spacing" textLength="91.3711" x="1992.31" y="320.2425">(Shared Domain)</text></g><!--entity bootstrap--><g id="elem_bootstrap"><rect fill="#FFFFFF" height="57.5977" rx="2.5" ry="2.5" style="stroke:#000000;stroke-width:1;" width="124.041" x="2164.98" y="275.1879"/><rect fill="#FFFFFF" height="10" style="stroke:#000000;stroke-width:1;" width="15" x="2269.021" y="280.1879"/><rect fill="#FFFFFF" height="2" style="stroke:#000000;stroke-width:1;" width="4" x="2267.021" y="282.1879"/><rect fill="#FFFFFF" height="2" style="stroke:#000000;stroke-width:1;" width="4" x="2267.021" y="286.1879"/><text fill="#000000" font-family="Arial" font-size="12" lengthAdjust="spacing" textLength="84.041" x="2179.98" y="306.4437">Bootstrap Crate</text><text fill="#000000" font-family="Arial" font-size="12" lengthAdjust="spacing" textLength="70.6934" x="2179.98" y="320.2425">(Initialization)</text></g><!--entity Main Documentation\n(mdBook)--><g id="elem_Main Documentation\n(mdBook)"><rect fill="#FFFFFF" height="57.5977" rx="2.5" ry="2.5" style="stroke:#000000;stroke-width:1;" width="150.0566" x="2344.97" y="275.1879"/><rect fill="#FFFFFF" height="10" style="stroke:#000000;stroke-width:1;" width="15" x="2475.0266" y="280.1879"/><rect fill="#FFFFFF" height="2" style="stroke:#000000;stroke-width:1;" width="4" x="2473.0266" y="282.1879"/><rect fill="#FFFFFF" height="2" style="stroke:#000000;stroke-width:1;" width="4" x="2473.0266" y="286.1879"/><text fill="#000000" font-family="Arial" font-size="12" lengthAdjust="spacing" textLength="110.0566" x="2359.97" y="306.4437">Main Documentation</text><text fill="#000000" font-family="Arial" font-size="12" lengthAdjust="spacing" textLength="52.0137" x="2359.97" y="320.2425">(mdBook)</text></g><!--entity Technical Guide\n(mdBook)--><g id="elem_Technical Guide\n(mdBook)"><rect fill="#FFFFFF" height="57.5977" rx="2.5" ry="2.5" style="stroke:#000000;stroke-width:1;" width="126.7129" x="2550.64" y="275.1879"/><rect fill="#FFFFFF" height="10" style="stroke:#000000;stroke-width:1;" width="15" x="2657.3529" y="280.1879"/><rect fill="#FFFFFF" height="2" style="stroke:#000000;stroke-width:1;" width="4" x="2655.3529" y="282.1879"/><rect fill="#FFFFFF" height="2" style="stroke:#000000;stroke-width:1;" width="4" x="2655.3529" y="286.1879"/><text fill="#000000" font-family="Arial" font-size="12" lengthAdjust="spacing" textLength="86.7129" x="2565.64" y="306.4437">Technical Guide</text><text fill="#000000" font-family="Arial" font-size="12" lengthAdjust="spacing" textLength="52.0137" x="2565.64" y="320.2425">(mdBook)</text></g><!--entity PlantUML JAR--><g id="elem_PlantUML JAR"><rect fill="#FFFFFF" height="43.7988" rx="2.5" ry="2.5" style="stroke:#000000;stroke-width:1;" width="118.6914" x="2732.65" y="282.0879"/><rect fill="#FFFFFF" height="10" style="stroke:#000000;stroke-width:1;" width="15" x="2831.3414" y="287.0879"/><rect fill="#FFFFFF" height="2" style="stroke:#000000;stroke-width:1;" width="4" x="2829.3414" y="289.0879"/><rect fill="#FFFFFF" height="2" style="stroke:#000000;stroke-width:1;" width="4" x="2829.3414" y="293.0879"/><text fill="#000000" font-family="Arial" font-size="12" lengthAdjust="spacing" textLength="78.6914" x="2747.65" y="313.3437">PlantUML JAR</text></g><!--entity Diagram Scripts--><g id="elem_Diagram Scripts"><rect fill="#FFFFFF" height="43.7988" rx="2.5" ry="2.5" style="stroke:#000000;stroke-width:1;" width="125.3535" x="2886.32" y="282.0879"/><rect fill="#FFFFFF" height="10" style="stroke:#000000;stroke-width:1;" width="15" x="2991.6735" y="287.0879"/><rect fill="#FFFFFF" height="2" style="stroke:#000000;stroke-width:1;" width="4" x="2989.6735" y="289.0879"/><rect fill="#FFFFFF" height="2" style="stroke:#000000;stroke-width:1;" width="4" x="2989.6735" y="293.0879"/><text fill="#000000" font-family="Arial" font-size="12" lengthAdjust="spacing" textLength="85.3535" x="2901.32" y="313.3437">Diagram Scripts</text></g><g id="elem_GMN43"><path d="M3260.81,271.3879 L3260.81,336.5832 L3423.1967,336.5832 L3423.1967,281.3879 L3413.1967,271.3879 L3260.81,271.3879 " fill="#FFFFFF" style="stroke:#000000;stroke-width:1;"/><path d="M3413.1967,271.3879 L3413.1967,281.3879 L3423.1967,281.3879 L3413.1967,271.3879 " fill="#FFFFFF" style="stroke:#000000;stroke-width:1;"/><text fill="#000000" font-family="Arial" font-size="12" font-weight="bold" lengthAdjust="spacing" textLength="110.6953" x="3266.81" y="287.6437">Main Pipeline Crate</text><text fill="#000000" font-family="Arial" font-size="12" lengthAdjust="spacing" textLength="100.7051" x="3266.81" y="301.4425">- Binary and library</text><text fill="#000000" font-family="Arial" font-size="12" lengthAdjust="spacing" textLength="141.3867" x="3266.81" y="315.2414">- Clean Architecture layers</text><text fill="#000000" font-family="Arial" font-size="12" lengthAdjust="spacing" textLength="124.0547" x="3266.81" y="329.0402">- Domain-driven design</text></g><g id="elem_GMN46"><path d="M3458.12,271.3879 L3458.12,336.5832 L3625.8798,336.5832 L3625.8798,281.3879 L3615.8798,271.3879 L3458.12,271.3879 " fill="#FFFFFF" style="stroke:#000000;stroke-width:1;"/><path d="M3615.8798,271.3879 L3615.8798,281.3879 L3625.8798,281.3879 L3615.8798,271.3879 " fill="#FFFFFF" style="stroke:#000000;stroke-width:1;"/><text fill="#000000" font-family="Arial" font-size="12" font-weight="bold" lengthAdjust="spacing" textLength="123.3516" x="3464.12" y="287.6437">Shared Domain Logic</text><text fill="#000000" font-family="Arial" font-size="12" lengthAdjust="spacing" textLength="142.0605" x="3464.12" y="301.4425">- Reusable across projects</text><text fill="#000000" font-family="Arial" font-size="12" lengthAdjust="spacing" textLength="146.7598" x="3464.12" y="315.2414">- No external dependencies</text><text fill="#000000" font-family="Arial" font-size="12" lengthAdjust="spacing" textLength="111.3867" x="3464.12" y="329.0402">- Pure business logic</text></g><!--link pipeline to GMN43--><g id="link_pipeline_GMN43"><path d="M1866.19,275.0379 C1878.26,226.8179 1909.97,131.4479 1978.5,92.0879 C2038.48,57.6379 3163.52,57.6379 3223.5,92.0879 C3290.2,130.3979 3322.03,221.7779 3334.8,271.0879 " fill="none" id="pipeline-GMN43" style="stroke:#000000;stroke-width:1;stroke-dasharray:7.0,7.0;"/></g><!--link domain to GMN46--><g id="link_domain_GMN46"><path d="M2050.03,274.7379 C2063.38,226.5279 2097.45,131.7379 2166.5,92.0879 C2227.06,57.2979 3362.94,57.2979 3423.5,92.0879 C3490.2,130.3979 3522.03,221.7779 3534.8,271.0879 " fill="none" id="domain-GMN46" style="stroke:#000000;stroke-width:1;stroke-dasharray:7.0,7.0;"/></g><!--SRC=[ZLJRRXen47tdAwOy5QGaQl-0G1DHGOf2qXSQHRFsiBXuRSlsHasg_7jdh-nIalPbjPxZCtUV3t576O7JgCmWx9Lnw343ILlCTRoo9juWunElK9_6r-g5uDFd3kXGx36bTNpM19v4H9Dg6WoYYcnOUVkJRR2EFXSnzmpK11XQ5rN6_kGZIkJ_9tfqof5MXXvz6CBl0S3MQaaUXWrmCGGCq9ngjBW886pch24JORYgSLYenAD__c4-Bhbac7gCDEgvAAbDbE35nR1s1x3HAZdtuQ4vPkoYSsv8qXP0XyTNPwKDlXZkWgAMmiXtr3d1jwJeIjTUCzRadvGuC5wFWg5pMWcCoXv5l0y4KmozM9F3vNywLcRhCJHJwlk-9MU3YjRtIvaKKoFVDIqfUYNU3E8y1HxGYVIdYtd7pTIQhKfpNrxiEok-huCJct7Mpe6dM_s_jHvrhyjjuDLOxz2JXCewwl2FGoNMHcuHkYf8UtmhpcLpeGqrDxmFgDLBMTcex-OudBGYj5tQb0iyioBFcWwolqnoZFteuRqjdflehUIvTdgvkQOObKdvNQAF95lxn8kTYbGkGMlaSV1OaxnWFBm_XOj-qdSaTePNKCDrhYJzPyPNkP5Obgd3oSnWHX5L1vndJbFRc0D7Fg4HFDixwzgr_2ltQAtkvBpIQEBzSW5V9xSLOpDJc1PQjnPUkUhPLXuKIznmYZwrvz5ckfodA8ujkCGz5NybbDM70REDZQoNAjr5iDkk78t7vQXR3IjtPpncv0mkbM4v0pGIT2LjfNcg2GtqEgJncPzcYLQBVIOzAwnXCGygDGDY5qKAnucqcpyUzzu5B6ogH9t6BUK14ouFXRU1nRHI-IhSZGNwnRfWUEgI70SY8rWvId1Lv9RaWGjZdYvy7bBv0m00]--></g></svg>