<svg xmlns="http://www.w3.org/2000/svg" xmlns:xlink="http://www.w3.org/1999/xlink" contentStyleType="text/css" height="361px" preserveAspectRatio="none" style="width:1659px;height:361px;background:#FFFFFF;" version="1.1" viewBox="0 0 1659 361" width="1659px" zoomAndPan="magnify"><title>Pipeline Architecture Overview (Simplified)</title><defs/><g><text fill="#000000" font-family="Arial" font-size="22" font-weight="bold" lengthAdjust="spacing" textLength="449.9043" x="600.1423" y="35.6357">Pipeline Architecture Overview (Simplified)</text><!--cluster core--><g id="cluster_core"><rect fill="#FFF3E0" height="244.1" rx="2.5" ry="2.5" style="stroke:#000000;stroke-width:1;" width="340" x="242" y="111.2879"/><text fill="#000000" font-family="Arial" font-size="12" font-weight="bold" lengthAdjust="spacing" textLength="76.6875" x="373.6563" y="124.5437">Pipeline Core</text></g><!--cluster stages--><g id="cluster_stages"><rect fill="#E8F5E9" height="244.1" rx="2.5" ry="2.5" style="stroke:#000000;stroke-width:1;" width="310" x="622" y="111.2879"/><text fill="#000000" font-family="Arial" font-size="12" font-weight="bold" lengthAdjust="spacing" textLength="107.3789" x="723.3105" y="124.5437">Processing Stages</text></g><!--entity Configuration--><g id="elem_Configuration"><rect fill="#FFFFFF" height="43.7988" rx="2.5" ry="2.5" style="stroke:#000000;stroke-width:1;" width="111.3789" x="266.31" y="167.2879"/><rect fill="#FFFFFF" height="10" style="stroke:#000000;stroke-width:1;" width="15" x="357.6889" y="172.2879"/><rect fill="#FFFFFF" height="2" style="stroke:#000000;stroke-width:1;" width="4" x="355.6889" y="174.2879"/><rect fill="#FFFFFF" height="2" style="stroke:#000000;stroke-width:1;" width="4" x="355.6889" y="178.2879"/><text fill="#000000" font-family="Arial" font-size="12" lengthAdjust="spacing" textLength="71.3789" x="281.31" y="198.5437">Configuration</text></g><!--entity Pipeline Service--><g id="elem_Pipeline Service"><rect fill="#FFFFFF" height="43.7988" rx="2.5" ry="2.5" style="stroke:#000000;stroke-width:1;" width="126.0449" x="412.98" y="167.2879"/><rect fill="#FFFFFF" height="10" style="stroke:#000000;stroke-width:1;" width="15" x="519.0249" y="172.2879"/><rect fill="#FFFFFF" height="2" style="stroke:#000000;stroke-width:1;" width="4" x="517.0249" y="174.2879"/><rect fill="#FFFFFF" height="2" style="stroke:#000000;stroke-width:1;" width="4" x="517.0249" y="178.2879"/><text fill="#000000" font-family="Arial" font-size="12" lengthAdjust="spacing" textLength="86.0449" x="427.98" y="198.5437">Pipeline Service</text></g><!--entity File Processor--><g id="elem_File Processor"><rect fill="#FFFFFF" height="43.7988" rx="2.5" ry="2.5" style="stroke:#000000;stroke-width:1;" width="116.6875" x="265.66" y="287.5879"/><rect fill="#FFFFFF" height="10" style="stroke:#000000;stroke-width:1;" width="15" x="362.3475" y="292.5879"/><rect fill="#FFFFFF" height="2" style="stroke:#000000;stroke-width:1;" width="4" x="360.3475" y="294.5879"/><rect fill="#FFFFFF" height="2" style="stroke:#000000;stroke-width:1;" width="4" x="360.3475" y="298.5879"/><text fill="#000000" font-family="Arial" font-size="12" lengthAdjust="spacing" textLength="76.6875" x="280.66" y="318.8437">File Processor</text></g><!--entity Compression--><g id="elem_Compression"><rect fill="#FFFFFF" height="43.7988" rx="2.5" ry="2.5" style="stroke:#000000;stroke-width:1;" width="110.6934" x="645.65" y="167.2879"/><rect fill="#FFFFFF" height="10" style="stroke:#000000;stroke-width:1;" width="15" x="736.3434" y="172.2879"/><rect fill="#FFFFFF" height="2" style="stroke:#000000;stroke-width:1;" width="4" x="734.3434" y="174.2879"/><rect fill="#FFFFFF" height="2" style="stroke:#000000;stroke-width:1;" width="4" x="734.3434" y="178.2879"/><text fill="#000000" font-family="Arial" font-size="12" lengthAdjust="spacing" textLength="70.6934" x="660.65" y="198.5437">Compression</text></g><!--entity Encryption--><g id="elem_Encryption"><rect fill="#FFFFFF" height="43.7988" rx="2.5" ry="2.5" style="stroke:#000000;stroke-width:1;" width="96.6953" x="791.65" y="167.2879"/><rect fill="#FFFFFF" height="10" style="stroke:#000000;stroke-width:1;" width="15" x="868.3453" y="172.2879"/><rect fill="#FFFFFF" height="2" style="stroke:#000000;stroke-width:1;" width="4" x="866.3453" y="174.2879"/><rect fill="#FFFFFF" height="2" style="stroke:#000000;stroke-width:1;" width="4" x="866.3453" y="178.2879"/><text fill="#000000" font-family="Arial" font-size="12" lengthAdjust="spacing" textLength="56.6953" x="806.65" y="198.5437">Encryption</text></g><!--entity Integrity Check--><g id="elem_Integrity Check"><rect fill="#FFFFFF" height="43.7988" rx="2.5" ry="2.5" style="stroke:#000000;stroke-width:1;" width="120.0332" x="645.98" y="287.5879"/><rect fill="#FFFFFF" height="10" style="stroke:#000000;stroke-width:1;" width="15" x="746.0132" y="292.5879"/><rect fill="#FFFFFF" height="2" style="stroke:#000000;stroke-width:1;" width="4" x="744.0132" y="294.5879"/><rect fill="#FFFFFF" height="2" style="stroke:#000000;stroke-width:1;" width="4" x="744.0132" y="298.5879"/><text fill="#000000" font-family="Arial" font-size="12" lengthAdjust="spacing" textLength="80.0332" x="660.98" y="318.8437">Integrity Check</text></g><!--entity User--><g id="elem_User"><ellipse cx="24" cy="160.7879" fill="#FFFFFF" rx="8" ry="8" style="stroke:#000000;stroke-width:1;"/><path d="M24,168.7879 L24,195.7879 M11,176.7879 L37,176.7879 M24,195.7879 L11,210.7879 M24,195.7879 L37,210.7879 " fill="none" style="stroke:#000000;stroke-width:1;"/><text fill="#000000" font-family="Arial" font-size="12" lengthAdjust="spacing" textLength="25.3359" x="11.332" y="224.0437">User</text></g><!--entity cli--><g id="elem_cli"><rect fill="#E3F2FD" height="33.7988" rx="2.5" ry="2.5" style="stroke:#000000;stroke-width:1;" width="88.7012" x="129.65" y="172.2879"/><text fill="#000000" font-family="Arial" font-size="12" lengthAdjust="spacing" textLength="68.7012" x="139.65" y="193.5437">CLI Interface</text></g><!--entity db--><g id="elem_db"><path d="M1043.3,170.8879 C1043.3,160.8879 1100.9982,160.8879 1100.9982,160.8879 C1100.9982,160.8879 1158.6965,160.8879 1158.6965,170.8879 L1158.6965,207.4855 C1158.6965,217.4855 1100.9982,217.4855 1100.9982,217.4855 C1100.9982,217.4855 1043.3,217.4855 1043.3,207.4855 L1043.3,170.8879 " fill="#FFFFFF" style="stroke:#000000;stroke-width:1;"/><path d="M1043.3,170.8879 C1043.3,180.8879 1100.9982,180.8879 1100.9982,180.8879 C1100.9982,180.8879 1158.6965,180.8879 1158.6965,170.8879 " fill="none" style="stroke:#000000;stroke-width:1;"/><text fill="#000000" font-family="Arial" font-size="12" lengthAdjust="spacing" textLength="95.3965" x="1053.3" y="196.1437">Metadata Storage</text><text fill="#000000" font-family="Arial" font-size="12" lengthAdjust="spacing" textLength="44.6777" x="1053.3" y="209.9425">(SQLite)</text></g><!--entity fs--><g id="elem_fs"><rect fill="#FFFFFF" height="33.7988" rx="35" ry="35" style="stroke:#000000;stroke-width:1;" width="82.6777" x="1193.66" y="172.2879"/><text fill="#000000" font-family="Arial" font-size="12" lengthAdjust="spacing" textLength="62.6777" x="1203.66" y="193.5437">File System</text></g><g id="elem_GMN19"><path d="M1311.47,156.5879 L1311.47,221.7832 L1488.5286,221.7832 L1488.5286,166.5879 L1478.5286,156.5879 L1311.47,156.5879 " fill="#FFFFFF" style="stroke:#000000;stroke-width:1;"/><path d="M1478.5286,156.5879 L1478.5286,166.5879 L1488.5286,166.5879 L1478.5286,156.5879 " fill="#FFFFFF" style="stroke:#000000;stroke-width:1;"/><text fill="#000000" font-family="Arial" font-size="12" font-weight="bold" lengthAdjust="spacing" textLength="122.6953" x="1317.47" y="172.8437">Core Responsibilities</text><text fill="#000000" font-family="Arial" font-size="12" lengthAdjust="spacing" textLength="156.0586" x="1317.47" y="186.6425">- Orchestrates file processing</text><text fill="#000000" font-family="Arial" font-size="12" lengthAdjust="spacing" textLength="147.4102" x="1317.47" y="200.4414">- Manages pipeline lifecycle</text><text fill="#000000" font-family="Arial" font-size="12" lengthAdjust="spacing" textLength="110.7246" x="1317.47" y="214.2402">- Coordinates stages</text></g><g id="elem_GMN22"><path d="M1523.81,156.5879 L1523.81,221.7832 L1652.1889,221.7832 L1652.1889,166.5879 L1642.1889,156.5879 L1523.81,156.5879 " fill="#FFFFFF" style="stroke:#000000;stroke-width:1;"/><path d="M1642.1889,156.5879 L1642.1889,166.5879 L1652.1889,166.5879 L1642.1889,156.5879 " fill="#FFFFFF" style="stroke:#000000;stroke-width:1;"/><text fill="#000000" font-family="Arial" font-size="12" font-weight="bold" lengthAdjust="spacing" textLength="107.3789" x="1529.81" y="172.8437">Processing Stages</text><text fill="#000000" font-family="Arial" font-size="12" lengthAdjust="spacing" textLength="75.375" x="1529.81" y="186.6425">- Configurable</text><text fill="#000000" font-family="Arial" font-size="12" lengthAdjust="spacing" textLength="74.0625" x="1529.81" y="200.4414">- Independent</text><text fill="#000000" font-family="Arial" font-size="12" lengthAdjust="spacing" textLength="61.3711" x="1529.81" y="214.2402">- Chainable</text></g><!--link User to cli--><g id="link_User_cli"><path d="M38.38,189.1879 C59.13,189.1879 92.38,189.1879 123.33,189.1879 " fill="none" id="User-to-cli" style="stroke:#000000;stroke-width:1;"/><polygon fill="#000000" points="129.33,189.1879,120.33,185.1879,124.33,189.1879,120.33,193.1879,129.33,189.1879" style="stroke:#000000;stroke-width:1;"/><text fill="#000000" font-family="Arial" font-size="12" lengthAdjust="spacing" textLength="55.3535" x="56.32" y="183.4437">Command</text></g><!--link cli to core--><g id="link_cli_core"><path d="M182.5,172.1579 C194.3,150.6879 217.85,114.7879 250,99.9379 C311.53,71.5179 502.32,57.2979 555,99.9379 C558.6938,102.9279 561.7827,106.4427 564.3578,110.3183 C564.5187,110.5605 561.4411,105.7519 561.5981,105.9969 " fill="none" id="cli-to-core" style="stroke:#000000;stroke-width:1;"/><polygon fill="#000000" points="564.8346,111.0492,563.348,101.3132,562.1375,106.839,556.6117,105.6285,564.8346,111.0492" style="stroke:#000000;stroke-width:1;"/><text fill="#000000" font-family="Arial" font-size="12" lengthAdjust="spacing" textLength="101.3848" x="342.5" y="84.5437">Initialize &amp; Execute</text></g><!--link core to stages--><g id="link_core_stages"><path d="M582.0379,163.9723 C582.0887,163.8414 582.1398,163.7103 582.1912,163.5789 C582.2939,163.3161 582.3977,163.0521 582.5025,162.787 C584.1798,158.5453 586.1256,154.0175 588.3575,149.3816 C597.285,130.8379 610.79,110.5629 630,99.9379 C683.28,70.4679 856.47,61.8779 904,99.9379 C907.7188,102.9154 910.8406,106.4207 913.4544,110.2892 C913.6178,110.531 910.5029,105.7476 910.6623,105.9922 " fill="none" id="core-to-stages" style="stroke:#000000;stroke-width:1;"/><polygon fill="#000000" points="913.9386,111.0188,912.3752,101.2948,911.2084,106.83,905.6732,105.6631,913.9386,111.0188" style="stroke:#000000;stroke-width:1;"/><text fill="#000000" font-family="Arial" font-size="12" lengthAdjust="spacing" textLength="72.0293" x="710" y="84.5437">Process Data</text></g><!--link stages to db--><g id="link_stages_db"><path d="M932.123,189.1879 C932.8434,189.1879 933.6065,189.1879 934.4104,189.1879 C936.0182,189.1879 937.7889,189.1879 939.7058,189.1879 C947.3734,189.1879 957.3806,189.1879 968.6588,189.1879 C991.215,189.1879 1012.855,189.1879 1037.03,189.1879 " fill="none" id="stages-to-db" style="stroke:#000000;stroke-width:1;"/><polygon fill="#000000" points="1043.03,189.1879,1034.03,185.1879,1038.03,189.1879,1034.03,193.1879,1043.03,189.1879" style="stroke:#000000;stroke-width:1;"/><text fill="#000000" font-family="Arial" font-size="12" lengthAdjust="spacing" textLength="82.0488" x="942.83" y="183.4437">Store Metadata</text></g><!--link stages to fs--><g id="link_stages_fs"><path d="M932.1112,178.0872 C932.1884,177.9868 932.2662,177.8858 932.3444,177.7843 C932.9705,176.9723 933.6292,176.1259 934.3195,175.2482 C939.8422,168.2266 947.3906,159.2016 956.4938,149.7279 C974.7,130.7804 999.125,110.0379 1026,99.9379 C1088.41,76.4879 1117.28,68.3679 1176,99.9379 C1204.3,115.1579 1219.1863,144.9525 1227.2263,166.3125 " fill="none" id="stages-to-fs" style="stroke:#000000;stroke-width:1;"/><polygon fill="#000000" points="1229.34,171.9279,1229.9131,162.0957,1227.5786,167.2484,1222.4259,164.9139,1229.34,171.9279" style="stroke:#000000;stroke-width:1;"/><text fill="#000000" font-family="Arial" font-size="12" lengthAdjust="spacing" textLength="88.6875" x="1015" y="84.5437">Read/Write Files</text></g><!--link core to GMN19--><g id="link_core_GMN19"><path d="M582.0761,162.0995 C582.31,161.4524 582.5495,160.7983 582.7946,160.1375 C583.2847,158.816 583.7972,157.4679 584.3325,156.0976 C586.4738,150.6163 588.9803,144.7779 591.8812,138.8479 C603.485,115.1279 621.4,89.9429 647.5,80.2879 C680.27,68.1679 1243.73,68.1679 1276.5,80.2879 C1316.72,95.1679 1352.2,129.9979 1374.7,156.2879 " fill="none" id="core-GMN19" style="stroke:#000000;stroke-width:1;stroke-dasharray:7.0,7.0;"/></g><!--link stages to GMN22--><g id="link_stages_GMN22"><path d="M932.024,177.318 C932.1899,177.0845 932.3583,176.8481 932.529,176.6089 C932.8706,176.1307 933.2217,175.6414 933.5823,175.1416 C934.3035,174.142 935.0626,173.1004 935.8586,172.0204 C942.2266,163.3804 950.9569,152.2879 961.5513,140.6779 C982.74,117.4579 1011.385,92.1679 1043.5,80.2879 C1089.87,63.1379 1442.13,63.1379 1488.5,80.2879 C1524.89,93.7479 1553.05,129.4179 1569.99,156.2979 " fill="none" id="stages-GMN22" style="stroke:#000000;stroke-width:1;stroke-dasharray:7.0,7.0;"/></g><!--SRC=[RLF1RjGm4BtxAuQjXDgLAg0L4km12QM9j59BWGXnW1uSUvACcjYHFLjO4F_Es9kDA71p_DxCU_F6US8zZWZJeCcfU4zkqa6FOB7Lku4hx_YT5lnj83ty7w_f1yAB2wMOU41uJnCEv5A9wOdHy2uWt3vWU23y1gSrZTD0BQ4zKqeRzW4-HGnA1Q5grqcBLN6zXQrZ3Aqsk08TmGm49-LbTL5TFM8kQeKFCrCES59LrMNv77ugW2-5Torrkw2PlBjBDqjLdLmPp9SL9VV16upHXplrwx7G0I3NGSswmvZ5OZwAirVLo_BrKMwSGgBEOgKpOJyjscckBX3leUZHt6STgratEehC3R9ENoBYW_J-waxh3zSIurdMiusA1m1MsM-zZunZnjgeL4eIpj_ak3QIoJXgPrNwIfSfcOq4IopBJ5jx2kLtD3j6bJ7Xp0DjZa70bPXHywtWjX4iUKCuMlq3RLFbHzJssMUP425P55VEopbGrpFuDjkG8DRhj39XnycxI0qDOWlZUYtOETpAuy78iZFftAP9fsK1cN2ZNLQTZgkKDuLcRmRCSE5ziEHo-S6VGcSXEVdRpmmdH_yiUNQplA1cRhzr5YTfY8uFX5v-dumkAhy1]--></g></svg>