<svg xmlns="http://www.w3.org/2000/svg" xmlns:xlink="http://www.w3.org/1999/xlink" contentStyleType="text/css" height="712px" preserveAspectRatio="none" style="width:903px;height:712px;background:#FFFFFF;" version="1.1" viewBox="0 0 903 712" width="903px" zoomAndPan="magnify"><title>Dependency Flow (Dependency Inversion Principle)</title><defs/><g><text fill="#000000" font-family="Arial" font-size="22" font-weight="bold" lengthAdjust="spacing" textLength="541.5674" x="176.2606" y="35.6357">Dependency Flow (Dependency Inversion Principle)</text><!--cluster high--><g id="cluster_high"><path d="M278.05,57.2979 L379.0754,57.2979 A3.75,3.75 0 0 1 381.5754,59.7979 L388.5754,77.0967 L472.05,77.0967 A2.5,2.5 0 0 1 474.55,79.5967 L474.55,176.3879 A2.5,2.5 0 0 1 472.05,178.8879 L278.05,178.8879 A2.5,2.5 0 0 1 275.55,176.3879 L275.55,59.7979 A2.5,2.5 0 0 1 278.05,57.2979 " fill="#E8F5E9" style="stroke:#000000;stroke-width:1;"/><line style="stroke:#000000;stroke-width:1;" x1="275.55" x2="388.5754" y1="77.0967" y2="77.0967"/><text fill="#000000" font-family="Arial" font-size="12" font-weight="bold" lengthAdjust="spacing" textLength="100.0254" x="279.55" y="70.5537">High-Level Policy</text></g><!--cluster abstractions--><g id="cluster_abstractions"><path d="M265.05,242.0879 L339.3977,242.0879 A3.75,3.75 0 0 1 341.8977,244.5879 L348.8977,261.8867 L653.05,261.8867 A2.5,2.5 0 0 1 655.55,264.3867 L655.55,355.5879 A2.5,2.5 0 0 1 653.05,358.0879 L265.05,358.0879 A2.5,2.5 0 0 1 262.55,355.5879 L262.55,244.5879 A2.5,2.5 0 0 1 265.05,242.0879 " fill="#FFF3E0" style="stroke:#000000;stroke-width:1;"/><line style="stroke:#000000;stroke-width:1;" x1="262.55" x2="348.8977" y1="261.8867" y2="261.8867"/><text fill="#000000" font-family="Arial" font-size="12" font-weight="bold" lengthAdjust="spacing" textLength="73.3477" x="266.55" y="255.3437">Abstractions</text></g><!--cluster low--><g id="cluster_low"><path d="M154.05,437.2779 L256.4113,437.2779 A3.75,3.75 0 0 1 258.9113,439.7779 L265.9113,457.0767 L720.05,457.0767 A2.5,2.5 0 0 1 722.55,459.5767 L722.55,556.3779 A2.5,2.5 0 0 1 720.05,558.8779 L154.05,558.8779 A2.5,2.5 0 0 1 151.55,556.3779 L151.55,439.7779 A2.5,2.5 0 0 1 154.05,437.2779 " fill="#F3E5F5" style="stroke:#000000;stroke-width:1;"/><line style="stroke:#000000;stroke-width:1;" x1="151.55" x2="265.9113" y1="457.0767" y2="457.0767"/><text fill="#000000" font-family="Arial" font-size="12" font-weight="bold" lengthAdjust="spacing" textLength="101.3613" x="155.55" y="450.5337">Low-Level Details</text></g><!--cluster frameworks--><g id="cluster_frameworks"><path d="M286.05,613.8779 L414.4445,613.8779 A3.75,3.75 0 0 1 416.9445,616.3779 L423.9445,633.6767 L627.05,633.6767 A2.5,2.5 0 0 1 629.55,636.1767 L629.55,703.1779 A2.5,2.5 0 0 1 627.05,705.6779 L286.05,705.6779 A2.5,2.5 0 0 1 283.55,703.1779 L283.55,616.3779 A2.5,2.5 0 0 1 286.05,613.8779 " fill="#ECEFF1" style="stroke:#000000;stroke-width:1;"/><line style="stroke:#000000;stroke-width:1;" x1="283.55" x2="423.9445" y1="633.6767" y2="633.6767"/><text fill="#000000" font-family="Arial" font-size="12" font-weight="bold" lengthAdjust="spacing" textLength="127.3945" x="287.55" y="627.1337">Frameworks &amp; Drivers</text></g><!--entity app--><g id="elem_app"><rect fill="#FFFFFF" height="57.5977" rx="2.5" ry="2.5" style="stroke:#000000;stroke-width:1;" width="132.0566" x="318.53" y="97.2979"/><rect fill="#FFFFFF" height="10" style="stroke:#000000;stroke-width:1;" width="15" x="430.5866" y="102.2979"/><rect fill="#FFFFFF" height="2" style="stroke:#000000;stroke-width:1;" width="4" x="428.5866" y="104.2979"/><rect fill="#FFFFFF" height="2" style="stroke:#000000;stroke-width:1;" width="4" x="428.5866" y="108.2979"/><text fill="#000000" font-family="Arial" font-size="12" lengthAdjust="spacing" textLength="92.0566" x="333.53" y="128.5537">Application Layer</text><text fill="#000000" font-family="Arial" font-size="12" lengthAdjust="spacing" textLength="86.0449" x="333.53" y="142.3525">Pipeline Service</text></g><!--entity repo_trait--><g id="elem_repo_trait"><ellipse cx="445.55" cy="308.0879" fill="#FFFFFF" rx="8" ry="8" style="stroke:#000000;stroke-width:1;"/><text fill="#000000" font-family="Arial" font-size="12" lengthAdjust="spacing" textLength="84.6914" x="403.2043" y="336.3437">Repository Trait</text><text fill="#000000" font-family="Arial" font-size="12" font-style="italic" lengthAdjust="spacing" textLength="33.3516" x="428.8742" y="288.5449">&#171;trait&#187;</text></g><!--entity file_trait--><g id="elem_file_trait"><ellipse cx="323.55" cy="308.0879" fill="#FFFFFF" rx="8" ry="8" style="stroke:#000000;stroke-width:1;"/><text fill="#000000" font-family="Arial" font-size="12" lengthAdjust="spacing" textLength="59.3379" x="293.8811" y="336.3437">FileIO Trait</text><text fill="#000000" font-family="Arial" font-size="12" font-style="italic" lengthAdjust="spacing" textLength="33.3516" x="306.8742" y="288.5449">&#171;trait&#187;</text></g><!--entity metrics_trait--><g id="elem_metrics_trait"><ellipse cx="571.55" cy="308.0879" fill="#FFFFFF" rx="8" ry="8" style="stroke:#000000;stroke-width:1;"/><text fill="#000000" font-family="Arial" font-size="12" lengthAdjust="spacing" textLength="66" x="538.55" y="336.3437">Metrics Trait</text><text fill="#000000" font-family="Arial" font-size="12" font-style="italic" lengthAdjust="spacing" textLength="33.3516" x="554.8742" y="288.5449">&#171;trait&#187;</text></g><!--entity sqlite--><g id="elem_sqlite"><rect fill="#FFFFFF" height="57.5977" rx="2.5" ry="2.5" style="stroke:#000000;stroke-width:1;" width="144.0449" x="373.53" y="477.2779"/><rect fill="#FFFFFF" height="10" style="stroke:#000000;stroke-width:1;" width="15" x="497.5749" y="482.2779"/><rect fill="#FFFFFF" height="2" style="stroke:#000000;stroke-width:1;" width="4" x="495.5749" y="484.2779"/><rect fill="#FFFFFF" height="2" style="stroke:#000000;stroke-width:1;" width="4" x="495.5749" y="488.2779"/><text fill="#000000" font-family="Arial" font-size="12" lengthAdjust="spacing" textLength="104.0449" x="388.53" y="508.5337">Infrastructure Layer</text><text fill="#000000" font-family="Arial" font-size="12" lengthAdjust="spacing" textLength="97.377" x="388.53" y="522.3325">SQLite Repository</text></g><!--entity file_system--><g id="elem_file_system"><rect fill="#FFFFFF" height="57.5977" rx="2.5" ry="2.5" style="stroke:#000000;stroke-width:1;" width="144.0449" x="194.53" y="477.2779"/><rect fill="#FFFFFF" height="10" style="stroke:#000000;stroke-width:1;" width="15" x="318.5749" y="482.2779"/><rect fill="#FFFFFF" height="2" style="stroke:#000000;stroke-width:1;" width="4" x="316.5749" y="484.2779"/><rect fill="#FFFFFF" height="2" style="stroke:#000000;stroke-width:1;" width="4" x="316.5749" y="488.2779"/><text fill="#000000" font-family="Arial" font-size="12" lengthAdjust="spacing" textLength="104.0449" x="209.53" y="508.5337">Infrastructure Layer</text><text fill="#000000" font-family="Arial" font-size="12" lengthAdjust="spacing" textLength="62.6777" x="209.53" y="522.3325">File System</text></g><!--entity prometheus--><g id="elem_prometheus"><rect fill="#FFFFFF" height="57.5977" rx="2.5" ry="2.5" style="stroke:#000000;stroke-width:1;" width="146.6992" x="552.21" y="477.2779"/><rect fill="#FFFFFF" height="10" style="stroke:#000000;stroke-width:1;" width="15" x="678.9092" y="482.2779"/><rect fill="#FFFFFF" height="2" style="stroke:#000000;stroke-width:1;" width="4" x="676.9092" y="484.2779"/><rect fill="#FFFFFF" height="2" style="stroke:#000000;stroke-width:1;" width="4" x="676.9092" y="488.2779"/><text fill="#000000" font-family="Arial" font-size="12" lengthAdjust="spacing" textLength="104.0449" x="567.21" y="508.5337">Infrastructure Layer</text><text fill="#000000" font-family="Arial" font-size="12" lengthAdjust="spacing" textLength="106.6992" x="567.21" y="522.3325">Prometheus Metrics</text></g><!--entity db--><g id="elem_db"><path d="M417.21,656.3779 C417.21,646.3779 445.5528,646.3779 445.5528,646.3779 C445.5528,646.3779 473.8955,646.3779 473.8955,656.3779 L473.8955,679.1767 C473.8955,689.1767 445.5528,689.1767 445.5528,689.1767 C445.5528,689.1767 417.21,689.1767 417.21,679.1767 L417.21,656.3779 " fill="#FFFFFF" style="stroke:#000000;stroke-width:1;"/><path d="M417.21,656.3779 C417.21,666.3779 445.5528,666.3779 445.5528,666.3779 C445.5528,666.3779 473.8955,666.3779 473.8955,656.3779 " fill="none" style="stroke:#000000;stroke-width:1;"/><text fill="#000000" font-family="Arial" font-size="12" lengthAdjust="spacing" textLength="36.6855" x="427.21" y="681.6337">SQLite</text></g><!--entity fs--><g id="elem_fs"><rect fill="#FFFFFF" height="33.7988" rx="35" ry="35" style="stroke:#000000;stroke-width:1;" width="82.6777" x="299.22" y="650.8779"/><text fill="#000000" font-family="Arial" font-size="12" lengthAdjust="spacing" textLength="62.6777" x="309.22" y="672.1337">File System</text></g><!--entity prom--><g id="elem_prom"><rect fill="#FFFFFF" height="43.7988" rx="2.5" ry="2.5" style="stroke:#000000;stroke-width:1;" width="104.6992" x="509.21" y="645.8779"/><rect fill="#FFFFFF" height="10" style="stroke:#000000;stroke-width:1;" width="15" x="593.9092" y="650.8779"/><rect fill="#FFFFFF" height="2" style="stroke:#000000;stroke-width:1;" width="4" x="591.9092" y="652.8779"/><rect fill="#FFFFFF" height="2" style="stroke:#000000;stroke-width:1;" width="4" x="591.9092" y="656.8779"/><text fill="#000000" font-family="Arial" font-size="12" lengthAdjust="spacing" textLength="64.6992" x="524.21" y="677.1337">Prometheus</text></g><g id="elem_GMN28"><path d="M683.03,247.8879 L683.03,368.2785 L896.0886,368.2785 L896.0886,257.8879 L886.0886,247.8879 L683.03,247.8879 " fill="#FFFFFF" style="stroke:#000000;stroke-width:1;"/><path d="M886.0886,247.8879 L886.0886,257.8879 L896.0886,257.8879 L886.0886,247.8879 " fill="#FFFFFF" style="stroke:#000000;stroke-width:1;"/><text fill="#000000" font-family="Arial" font-size="12" font-weight="bold" lengthAdjust="spacing" textLength="76.0313" x="689.03" y="264.1437">Key Principle</text><text fill="#000000" font-family="Arial" font-size="12" lengthAdjust="spacing" textLength="174.7969" x="689.03" y="277.9425">Source code dependencies point</text><text fill="#000000" font-family="Arial" font-size="12" lengthAdjust="spacing" textLength="192.0586" x="689.03" y="291.7414">ONLY INWARD toward abstractions</text><text fill="#000000" font-family="Arial" font-size="12" lengthAdjust="spacing" textLength="3.334" x="689.03" y="305.5402">&#160;</text><text fill="#000000" font-family="Arial" font-size="12" lengthAdjust="spacing" textLength="145.3887" x="689.03" y="319.339">High-level policy does NOT</text><text fill="#000000" font-family="Arial" font-size="12" lengthAdjust="spacing" textLength="144.7617" x="689.03" y="333.1379">depend on low-level details</text><text fill="#000000" font-family="Arial" font-size="12" lengthAdjust="spacing" textLength="3.334" x="689.03" y="346.9367">&#160;</text><text fill="#000000" font-family="Arial" font-size="12" lengthAdjust="spacing" textLength="190.1074" x="689.03" y="360.7355">Both depend on abstractions (traits)</text></g><g id="elem_GMN31"><path d="M11,275.4879 L11,340.6832 L238.1094,340.6832 L238.1094,285.4879 L228.1094,275.4879 L11,275.4879 " fill="#FFFFFF" style="stroke:#000000;stroke-width:1;"/><path d="M228.1094,275.4879 L228.1094,285.4879 L238.1094,285.4879 L228.1094,275.4879 " fill="#FFFFFF" style="stroke:#000000;stroke-width:1;"/><text fill="#000000" font-family="Arial" font-size="12" font-weight="bold" lengthAdjust="spacing" textLength="100.6875" x="17" y="291.7437">Application Layer</text><text fill="#000000" font-family="Arial" font-size="12" lengthAdjust="spacing" textLength="139.3945" x="17" y="305.5425">- High-level business logic</text><text fill="#000000" font-family="Arial" font-size="12" lengthAdjust="spacing" textLength="131.3906" x="17" y="319.3414">- Stable (rarely changes)</text><text fill="#000000" font-family="Arial" font-size="12" lengthAdjust="spacing" textLength="206.1094" x="17" y="333.1402">- Depends on traits, not concrete types</text></g><g id="elem_GMN34"><path d="M58.68,635.1779 L58.68,700.3732 L260.43,700.3732 L260.43,645.1779 L250.43,635.1779 L58.68,635.1779 " fill="#FFFFFF" style="stroke:#000000;stroke-width:1;"/><path d="M250.43,635.1779 L250.43,645.1779 L260.43,645.1779 L250.43,635.1779 " fill="#FFFFFF" style="stroke:#000000;stroke-width:1;"/><text fill="#000000" font-family="Arial" font-size="12" font-weight="bold" lengthAdjust="spacing" textLength="113.373" x="64.68" y="651.4337">Infrastructure Layer</text><text fill="#000000" font-family="Arial" font-size="12" lengthAdjust="spacing" textLength="180.75" x="64.68" y="665.2325">- Low-level implementation details</text><text fill="#000000" font-family="Arial" font-size="12" lengthAdjust="spacing" textLength="159.416" x="64.68" y="679.0314">- Volatile (changes frequently)</text><text fill="#000000" font-family="Arial" font-size="12" lengthAdjust="spacing" textLength="141.3809" x="64.68" y="692.8302">- Implements domain traits</text></g><!--link app to repo_trait--><g id="link_app_repo_trait"><path d="M394.09,155.2179 C408.36,197.3379 432.5851,268.815 440.9651,293.555 " fill="none" id="app-to-repo_trait" style="stroke:#1976D2;stroke-width:2;"/><polygon fill="#1976D2" points="442.89,299.2379,443.7912,289.4303,441.2859,294.5021,436.2141,291.9969,442.89,299.2379" style="stroke:#1976D2;stroke-width:2;"/><text fill="#000000" font-family="Arial" font-size="12" lengthAdjust="spacing" textLength="62.7246" x="416.05" y="215.1437">depends on</text></g><!--link app to file_trait--><g id="link_app_file_trait"><path d="M364.27,155.3079 C355.34,169.0479 345.54,186.1779 339.55,202.8879 C327.21,237.3479 324.6102,275.5619 323.9602,293.2619 " fill="none" id="app-to-file_trait" style="stroke:#1976D2;stroke-width:2;"/><polygon fill="#1976D2" points="323.74,299.2579,328.0676,290.4107,323.9235,294.2612,320.073,290.1171,323.74,299.2579" style="stroke:#1976D2;stroke-width:2;"/><text fill="#000000" font-family="Arial" font-size="12" lengthAdjust="spacing" textLength="62.7246" x="340.55" y="215.1437">depends on</text></g><!--link app to metrics_trait--><g id="link_app_metrics_trait"><path d="M429.41,155.3779 C455.89,173.4879 488.94,198.6779 513.55,226.0879 C535.98,251.0479 554.5521,279.6023 563.7721,294.4323 " fill="none" id="app-to-metrics_trait" style="stroke:#1976D2;stroke-width:2;"/><polygon fill="#1976D2" points="566.94,299.5279,565.5851,289.7726,564.3001,295.2816,558.7911,293.9966,566.94,299.5279" style="stroke:#1976D2;stroke-width:2;"/><text fill="#000000" font-family="Arial" font-size="12" lengthAdjust="spacing" textLength="62.7246" x="505.54" y="215.1437">depends on</text></g><!--reverse link repo_trait to sqlite--><g id="link_repo_trait_sqlite"><path d="M445.55,335.0079 C445.55,361.7279 445.55,431.3279 445.55,476.9279 " fill="none" id="repo_trait-backto-sqlite" style="stroke:#1976D2;stroke-width:2;stroke-dasharray:7.0,7.0;"/><polygon fill="none" points="445.55,317.0079,439.55,335.0079,451.55,335.0079,445.55,317.0079" style="stroke:#1976D2;stroke-width:2;"/><text fill="#000000" font-family="Arial" font-size="12" lengthAdjust="spacing" textLength="61.3535" x="446.55" y="410.5337">implements</text></g><!--reverse link file_trait to file_system--><g id="link_file_trait_file_system"><path d="M316.2239,334.2919 C308.4539,361.0119 288,431.3279 274.74,476.9279 " fill="none" id="file_trait-backto-file_system" style="stroke:#1976D2;stroke-width:2;stroke-dasharray:7.0,7.0;"/><polygon fill="none" points="321.25,317.0079,310.4626,332.6165,321.9853,335.9673,321.25,317.0079" style="stroke:#1976D2;stroke-width:2;"/><text fill="#000000" font-family="Arial" font-size="12" lengthAdjust="spacing" textLength="61.3535" x="297.76" y="410.5337">implements</text></g><!--reverse link metrics_trait to prometheus--><g id="link_metrics_trait_prometheus"><path d="M578.5201,334.3616 C585.8801,361.0816 605.24,431.3279 617.8,476.9279 " fill="none" id="metrics_trait-backto-prometheus" style="stroke:#1976D2;stroke-width:2;stroke-dasharray:7.0,7.0;"/><polygon fill="none" points="573.74,317.0079,572.7355,335.9549,584.3046,332.7682,573.74,317.0079" style="stroke:#1976D2;stroke-width:2;"/><text fill="#000000" font-family="Arial" font-size="12" lengthAdjust="spacing" textLength="61.3535" x="601.17" y="410.5337">implements</text></g><!--link sqlite to db--><g id="link_sqlite_db"><path d="M445.55,535.2679 C445.55,566.9579 445.55,611.6979 445.55,639.9879 " fill="none" id="sqlite-to-db" style="stroke:#1976D2;stroke-width:2;"/><polygon fill="#1976D2" points="445.55,645.9879,449.55,636.9879,445.55,640.9879,441.55,636.9879,445.55,645.9879" style="stroke:#1976D2;stroke-width:2;"/><text fill="#000000" font-family="Arial" font-size="12" lengthAdjust="spacing" textLength="25.3477" x="446.55" y="595.1337">uses</text></g><!--link file_system to fs--><g id="link_file_system_fs"><path d="M279.61,535.2679 C295.13,568.7479 317.9788,618.0433 330.5188,645.1233 " fill="none" id="file_system-to-fs" style="stroke:#1976D2;stroke-width:2;"/><polygon fill="#1976D2" points="333.04,650.5679,332.8879,640.7202,330.939,646.0307,325.6284,644.0818,333.04,650.5679" style="stroke:#1976D2;stroke-width:2;"/><text fill="#000000" font-family="Arial" font-size="12" lengthAdjust="spacing" textLength="25.3477" x="308.99" y="595.1337">uses</text></g><!--link prometheus to prom--><g id="link_prometheus_prom"><path d="M614.26,535.2679 C601.63,566.7779 583.6814,611.5582 572.3114,639.9382 " fill="none" id="prometheus-to-prom" style="stroke:#1976D2;stroke-width:2;"/><polygon fill="#1976D2" points="570.08,645.5079,577.1402,638.641,571.9395,640.8665,569.714,635.6658,570.08,645.5079" style="stroke:#1976D2;stroke-width:2;"/><text fill="#000000" font-family="Arial" font-size="12" lengthAdjust="spacing" textLength="25.3477" x="594.55" y="595.1337">uses</text></g><!--link abstractions to GMN28--><g id="link_abstractions_GMN28"><path d="M655.599,308.0879 C655.688,308.0879 655.777,308.0879 655.866,308.0879 C656.2221,308.0879 656.5781,308.0879 656.9342,308.0879 C659.7828,308.0879 662.6319,308.0879 665.4813,308.0879 C671.18,308.0879 676.88,308.0879 682.58,308.0879 " fill="none" id="abstractions-GMN28" style="stroke:#1976D2;stroke-width:2;stroke-dasharray:7.0,7.0;"/></g><!--link high to GMN31--><g id="link_high_GMN31"><path d="M275.5227,136.1832 C275.4179,136.3017 275.3123,136.4213 275.2057,136.542 C274.7796,137.0244 274.339,137.5233 273.8845,138.0379 C272.0663,140.0963 270.0246,142.4078 267.788,144.9399 C258.8416,155.0682 246.7769,168.726 233.4262,183.8391 C206.725,214.0654 174.88,250.1129 152.55,275.3879 " fill="none" id="high-GMN31" style="stroke:#1976D2;stroke-width:2;stroke-dasharray:7.0,7.0;"/></g><!--link low to GMN34--><g id="link_low_GMN34"><path d="M159.55,558.9482 C159.55,559.3588 159.55,559.7706 159.55,560.1835 C159.55,561.835 159.55,563.5038 159.55,565.1865 C159.55,568.5519 159.55,571.9731 159.55,575.4235 C159.55,582.3245 159.55,589.3425 159.55,596.2655 C159.55,610.1116 159.55,623.5779 159.55,634.9679 " fill="none" id="low-GMN34" style="stroke:#1976D2;stroke-width:2;stroke-dasharray:7.0,7.0;"/></g><!--SRC=[VLLhRzCm5FsUNt5f9UWgEh6X0KFJf48RKL6wiauW11DoazlMccjdjhCgFFuxrqxIEjlAfohttCSvz-4-iIjS8sI2SHcP6oupfjaQKbomNDXOIJjXXFSrP-9nVCP_8HmT1o3JMcskLZovaMWCF83UAw4qj8zENxyQ74UHvLOW3313cQ9C2eY5sa0dC8pa7Mh3bOIfvZBXcS23ACfOSiEM2AqFVBdgZV4E1KoLu4dH0cPWHLPe3z_49yDJ-1q1VEzd6Q7CkaHZLg3-8QSyGy4bmWpr7K_msaMoB8l-1ldxSsCrIroSyQbPO81s7CSlXozy2IujwWLBAEWICsMuLRg0AysuzO6QZ3-j-uIpC_zxVjuCYxd0qKKGiY33_qC-eTKyCK7CkhGy20j5ZTMcwja0BUEYLEOwtoOv9_59sREHN6X6QlF4vXhhjiq-Zxb5s6dqVJEtWgpxevmsc1N6ulfwAytux_r1Kwr8pWfp0vLG7vjjpGrLCIqPRfI-CV0K1fgxlIdRk0FQm_V3E3xo-b9csPmPYYmbUTzqJeWXMMNA7Uioao4qKUjCIPGMMZk2hPgOe_Hijz4SoQneOZIr3TCfTApol-4U7KIqTj1BrKRspiD5UKl7vX8PKBBX4sp6Nf_c9ZJSed9SS9XdXt_kLUHhEh4roJDHCAJQjL4uSDtDfFQyNpvmhilNJDCvuRd1PiMjLbEZGP4QTAOQZgIYf9fktu9QD3fCO-jsFsAnUqIwNRBDLAxfZ1ALOjMUS6JaS34PVuFHv6l_SW2F32uY5_y22NzDcN-185MKON9nvNRC9wMMk-kglDBovbpiEsLNWK_ZRUdunj5kED0fg_JDbRMacGIwLyuBU_2uUN6zaDeyDzo_o48jUUBH6Qq_hNT7CusYW6J5v1AfdiC6srs1aiPpHu4Q9HEDHC8M6JLyBpCIwuazTjOLj_6s7zl5A0NKxN5ENvGWeoDPiQDRnjkSV4LH4XrjjuhQlgO_iehlZji_]--></g></svg>