<svg xmlns="http://www.w3.org/2000/svg" xmlns:xlink="http://www.w3.org/1999/xlink" contentStyleType="text/css" height="880px" preserveAspectRatio="none" style="width:1633px;height:880px;background:#FFFFFF;" version="1.1" viewBox="0 0 1633 880" width="1633px" zoomAndPan="magnify"><title>Domain Model</title><defs/><g><text fill="#000000" font-family="Arial" font-size="22" font-weight="bold" lengthAdjust="spacing" textLength="150.3369" x="736.8637" y="35.6357">Domain Model</text><!--class Pipeline--><g id="elem_Pipeline"><rect codeLine="10" fill="#FFF3E0" height="206.1699" id="Pipeline" rx="2.5" ry="2.5" style="stroke:#F57C00;stroke-width:1;" width="234.4746" x="728.96" y="256.6779"/><ellipse cx="819.2022" cy="275.8693" fill="#FFFFFF" rx="9" ry="9" style="stroke:#000000;stroke-width:1;"/><path d="M821.0362,280.1173 Q820.626,280.3282 820.1748,280.4337 Q819.7237,280.5392 819.2256,280.5392 Q817.4561,280.5392 816.5245,279.3732 Q815.5928,278.2071 815.5928,276.004 Q815.5928,273.795 816.5245,272.629 Q817.4561,271.463 819.2256,271.463 Q819.7237,271.463 820.1807,271.5685 Q820.6377,271.6739 821.0362,271.8849 L821.0362,273.8068 Q820.5909,273.3966 820.1719,273.2062 Q819.753,273.0157 819.3077,273.0157 Q818.3584,273.0157 817.875,273.7687 Q817.3916,274.5216 817.3916,276.004 Q817.3916,277.4806 817.875,278.2335 Q818.3584,278.9864 819.3077,278.9864 Q819.753,278.9864 820.1719,278.796 Q820.5909,278.6056 821.0362,278.1954 Z " fill="#000000"/><text fill="#000000" font-family="Verdana" font-size="12" font-style="italic" lengthAdjust="spacing" textLength="50.4902" x="834.7022" y="273.7423">&#171;Entity&#187;</text><text fill="#000000" font-family="Arial" font-size="12" lengthAdjust="spacing" textLength="42.6973" x="838.5987" y="287.5177">Pipeline</text><line style="stroke:#F57C00;stroke-width:1;" x1="729.96" x2="962.4346" y1="295.0607" y2="295.0607"/><rect fill="none" height="6" style="stroke:#000000;stroke-width:1;" width="6" x="736.96" y="304.4601"/><text fill="#000000" font-family="Arial" font-size="12" lengthAdjust="spacing" textLength="68.7129" x="746.96" y="310.3165">id: PipelineId</text><rect fill="none" height="6" style="stroke:#000000;stroke-width:1;" width="6" x="736.96" y="318.2589"/><text fill="#000000" font-family="Arial" font-size="12" lengthAdjust="spacing" textLength="128.7539" x="746.96" y="324.1154">input_file_path: FilePath</text><rect fill="none" height="6" style="stroke:#000000;stroke-width:1;" width="6" x="736.96" y="332.0577"/><text fill="#000000" font-family="Arial" font-size="12" lengthAdjust="spacing" textLength="136.0957" x="746.96" y="337.9142">output_file_path: FilePath</text><rect fill="none" height="6" style="stroke:#000000;stroke-width:1;" width="6" x="736.96" y="345.8566"/><text fill="#000000" font-family="Arial" font-size="12" lengthAdjust="spacing" textLength="150.7734" x="746.96" y="351.713">stages: Vec&lt;PipelineStage&gt;</text><rect fill="none" height="6" style="stroke:#000000;stroke-width:1;" width="6" x="736.96" y="359.6554"/><text fill="#000000" font-family="Arial" font-size="12" lengthAdjust="spacing" textLength="115.4004" x="746.96" y="365.5118">status: PipelineStatus</text><rect fill="none" height="6" style="stroke:#000000;stroke-width:1;" width="6" x="736.96" y="373.4542"/><text fill="#000000" font-family="Arial" font-size="12" lengthAdjust="spacing" textLength="115.3887" x="746.96" y="379.3107">created_at: DateTime</text><rect fill="none" height="6" style="stroke:#000000;stroke-width:1;" width="6" x="736.96" y="387.253"/><text fill="#000000" font-family="Arial" font-size="12" lengthAdjust="spacing" textLength="180.0996" x="746.96" y="393.1095">completed_at: Option&lt;DateTime&gt;</text><line style="stroke:#F57C00;stroke-width:1;" x1="729.96" x2="962.4346" y1="399.6525" y2="399.6525"/><ellipse cx="739.96" cy="412.0519" fill="#FFFFFF" rx="3" ry="3" style="stroke:#000000;stroke-width:1;"/><text fill="#000000" font-family="Arial" font-size="12" lengthAdjust="spacing" textLength="210.4746" x="746.96" y="414.9083">new(id, input_path, output_path) -&gt; Self</text><ellipse cx="739.96" cy="425.8507" fill="#FFFFFF" rx="3" ry="3" style="stroke:#000000;stroke-width:1;"/><text fill="#000000" font-family="Arial" font-size="12" lengthAdjust="spacing" textLength="174.123" x="746.96" y="428.7071">add_stage(stage: PipelineStage)</text><ellipse cx="739.96" cy="439.6495" fill="#FFFFFF" rx="3" ry="3" style="stroke:#000000;stroke-width:1;"/><text fill="#000000" font-family="Arial" font-size="12" lengthAdjust="spacing" textLength="123.7148" x="746.96" y="442.506">execute() -&gt; Result&lt;()&gt;</text><ellipse cx="739.96" cy="453.4484" fill="#FFFFFF" rx="3" ry="3" style="stroke:#000000;stroke-width:1;"/><text fill="#000000" font-family="Arial" font-size="12" lengthAdjust="spacing" textLength="119.0566" x="746.96" y="456.3048">is_completed() -&gt; bool</text></g><!--class PipelineStage--><g id="elem_PipelineStage"><rect codeLine="25" fill="#FFF3E0" height="164.7734" id="PipelineStage" rx="2.5" ry="2.5" style="stroke:#F57C00;stroke-width:1;" width="245.8066" x="472.29" y="537.8479"/><ellipse cx="554.415" cy="557.0393" fill="#FFFFFF" rx="9" ry="9" style="stroke:#000000;stroke-width:1;"/><path d="M556.249,561.2873 Q555.8388,561.4982 555.3877,561.6037 Q554.9365,561.7092 554.4384,561.7092 Q552.6689,561.7092 551.7373,560.5432 Q550.8056,559.3771 550.8056,557.174 Q550.8056,554.965 551.7373,553.799 Q552.6689,552.633 554.4384,552.633 Q554.9365,552.633 555.3935,552.7385 Q555.8505,552.8439 556.249,553.0549 L556.249,554.9768 Q555.8037,554.5666 555.3847,554.3762 Q554.9658,554.1857 554.5205,554.1857 Q553.5713,554.1857 553.0879,554.9387 Q552.6045,555.6916 552.6045,557.174 Q552.6045,558.6506 553.0879,559.4035 Q553.5713,560.1564 554.5205,560.1564 Q554.9658,560.1564 555.3847,559.966 Q555.8037,559.7756 556.249,559.3654 Z " fill="#000000"/><text fill="#000000" font-family="Verdana" font-size="12" font-style="italic" lengthAdjust="spacing" textLength="50.4902" x="583.6982" y="554.9123">&#171;Entity&#187;</text><text fill="#000000" font-family="Arial" font-size="12" lengthAdjust="spacing" textLength="74.0566" x="571.915" y="568.6877">PipelineStage</text><line style="stroke:#F57C00;stroke-width:1;" x1="473.29" x2="717.0966" y1="576.2307" y2="576.2307"/><rect fill="none" height="6" style="stroke:#000000;stroke-width:1;" width="6" x="480.29" y="585.6301"/><text fill="#000000" font-family="Arial" font-size="12" lengthAdjust="spacing" textLength="57.375" x="490.29" y="591.4865">id: StageId</text><rect fill="none" height="6" style="stroke:#000000;stroke-width:1;" width="6" x="480.29" y="599.4289"/><text fill="#000000" font-family="Arial" font-size="12" lengthAdjust="spacing" textLength="116.7539" x="490.29" y="605.2854">pipeline_id: PipelineId</text><rect fill="none" height="6" style="stroke:#000000;stroke-width:1;" width="6" x="480.29" y="613.2277"/><text fill="#000000" font-family="Arial" font-size="12" lengthAdjust="spacing" textLength="123.416" x="490.29" y="619.0842">stage_type: StageType</text><rect fill="none" height="6" style="stroke:#000000;stroke-width:1;" width="6" x="480.29" y="627.0266"/><text fill="#000000" font-family="Arial" font-size="12" lengthAdjust="spacing" textLength="106.7051" x="490.29" y="632.883">algorithm: Algorithm</text><rect fill="none" height="6" style="stroke:#000000;stroke-width:1;" width="6" x="480.29" y="640.8254"/><text fill="#000000" font-family="Arial" font-size="12" lengthAdjust="spacing" textLength="126.0938" x="490.29" y="646.6818">sequence_number: u32</text><rect fill="none" height="6" style="stroke:#000000;stroke-width:1;" width="6" x="480.29" y="654.6242"/><text fill="#000000" font-family="Arial" font-size="12" lengthAdjust="spacing" textLength="104.0625" x="490.29" y="660.4807">status: StageStatus</text><line style="stroke:#F57C00;stroke-width:1;" x1="473.29" x2="717.0966" y1="667.0236" y2="667.0236"/><ellipse cx="483.29" cy="679.423" fill="#FFFFFF" rx="3" ry="3" style="stroke:#000000;stroke-width:1;"/><text fill="#000000" font-family="Arial" font-size="12" lengthAdjust="spacing" textLength="207.123" x="490.29" y="682.2795">new(id, pipeline_id, stage_type) -&gt; Self</text><ellipse cx="483.29" cy="693.2219" fill="#FFFFFF" rx="3" ry="3" style="stroke:#000000;stroke-width:1;"/><text fill="#000000" font-family="Arial" font-size="12" lengthAdjust="spacing" textLength="221.8066" x="490.29" y="696.0783">execute(data: &amp;[u8]) -&gt; Result&lt;Vec&lt;u8&gt;&gt;</text></g><!--class FileChunk--><g id="elem_FileChunk"><rect codeLine="37" fill="#FFF3E0" height="164.7734" id="FileChunk" rx="2.5" ry="2.5" style="stroke:#F57C00;stroke-width:1;" width="251.7949" x="1199.3" y="277.3779"/><ellipse cx="1294.4357" cy="296.5693" fill="#FFFFFF" rx="9" ry="9" style="stroke:#000000;stroke-width:1;"/><path d="M1296.2697,300.8173 Q1295.8596,301.0282 1295.4084,301.1337 Q1294.9572,301.2392 1294.4592,301.2392 Q1292.6896,301.2392 1291.758,300.0732 Q1290.8264,298.9071 1290.8264,296.704 Q1290.8264,294.495 1291.758,293.329 Q1292.6896,292.163 1294.4592,292.163 Q1294.9572,292.163 1295.4143,292.2685 Q1295.8713,292.3739 1296.2697,292.5849 L1296.2697,294.5068 Q1295.8244,294.0966 1295.4055,293.9062 Q1294.9865,293.7157 1294.5412,293.7157 Q1293.592,293.7157 1293.1086,294.4687 Q1292.6252,295.2216 1292.6252,296.704 Q1292.6252,298.1806 1293.1086,298.9335 Q1293.592,299.6864 1294.5412,299.6864 Q1294.9865,299.6864 1295.4055,299.496 Q1295.8244,299.3056 1296.2697,298.8954 Z " fill="#000000"/><text fill="#000000" font-family="Verdana" font-size="12" font-style="italic" lengthAdjust="spacing" textLength="50.4902" x="1313.7023" y="294.4423">&#171;Entity&#187;</text><text fill="#000000" font-family="Arial" font-size="12" lengthAdjust="spacing" textLength="54.0234" x="1311.9357" y="308.2177">FileChunk</text><line style="stroke:#F57C00;stroke-width:1;" x1="1200.3" x2="1450.0949" y1="315.7607" y2="315.7607"/><rect fill="none" height="6" style="stroke:#000000;stroke-width:1;" width="6" x="1207.3" y="325.1601"/><text fill="#000000" font-family="Arial" font-size="12" lengthAdjust="spacing" textLength="80.0391" x="1217.3" y="331.0165">id: FileChunkId</text><rect fill="none" height="6" style="stroke:#000000;stroke-width:1;" width="6" x="1207.3" y="338.9589"/><text fill="#000000" font-family="Arial" font-size="12" lengthAdjust="spacing" textLength="116.7539" x="1217.3" y="344.8154">pipeline_id: PipelineId</text><rect fill="none" height="6" style="stroke:#000000;stroke-width:1;" width="6" x="1207.3" y="352.7577"/><text fill="#000000" font-family="Arial" font-size="12" lengthAdjust="spacing" textLength="106.0723" x="1217.3" y="358.6142">chunk_number: u32</text><rect fill="none" height="6" style="stroke:#000000;stroke-width:1;" width="6" x="1207.3" y="366.5566"/><text fill="#000000" font-family="Arial" font-size="12" lengthAdjust="spacing" textLength="116.0508" x="1217.3" y="372.413">original_size: FileSize</text><rect fill="none" height="6" style="stroke:#000000;stroke-width:1;" width="6" x="1207.3" y="380.3554"/><text fill="#000000" font-family="Arial" font-size="12" lengthAdjust="spacing" textLength="132.7266" x="1217.3" y="386.2118">processed_size: FileSize</text><rect fill="none" height="6" style="stroke:#000000;stroke-width:1;" width="6" x="1207.3" y="394.1542"/><text fill="#000000" font-family="Arial" font-size="12" lengthAdjust="spacing" textLength="117.3691" x="1217.3" y="400.0107">checksum: Checksum</text><rect fill="none" height="6" style="stroke:#000000;stroke-width:1;" width="6" x="1207.3" y="407.953"/><text fill="#000000" font-family="Arial" font-size="12" lengthAdjust="spacing" textLength="56.0391" x="1217.3" y="413.8095">offset: u64</text><line style="stroke:#F57C00;stroke-width:1;" x1="1200.3" x2="1450.0949" y1="420.3525" y2="420.3525"/><ellipse cx="1210.3" cy="432.7519" fill="#FFFFFF" rx="3" ry="3" style="stroke:#000000;stroke-width:1;"/><text fill="#000000" font-family="Arial" font-size="12" lengthAdjust="spacing" textLength="227.7949" x="1217.3" y="435.6083">new(id, pipeline_id, chunk_number) -&gt; Self</text></g><!--class PipelineId--><g id="elem_PipelineId"><rect codeLine="50" fill="#FFF3E0" height="109.5781" id="PipelineId" rx="2.5" ry="2.5" style="stroke:#F57C00;stroke-width:1;" width="212.3906" x="12" y="565.4379"/><ellipse cx="70.2939" cy="584.6293" fill="#FFFFFF" rx="9" ry="9" style="stroke:#000000;stroke-width:1;"/><path d="M72.1279,588.8773 Q71.7178,589.0882 71.2666,589.1937 Q70.8154,589.2992 70.3174,589.2992 Q68.5479,589.2992 67.6162,588.1332 Q66.6846,586.9671 66.6846,584.764 Q66.6846,582.555 67.6162,581.389 Q68.5479,580.223 70.3174,580.223 Q70.8154,580.223 71.2725,580.3285 Q71.7295,580.4339 72.1279,580.6449 L72.1279,582.5668 Q71.6826,582.1566 71.2637,581.9662 Q70.8447,581.7757 70.3994,581.7757 Q69.4502,581.7757 68.9668,582.5287 Q68.4834,583.2816 68.4834,584.764 Q68.4834,586.2406 68.9668,586.9935 Q69.4502,587.7464 70.3994,587.7464 Q70.8447,587.7464 71.2637,587.556 Q71.6826,587.3656 72.1279,586.9554 Z " fill="#000000"/><text fill="#000000" font-family="Verdana" font-size="12" font-style="italic" lengthAdjust="spacing" textLength="92.3027" x="85.7939" y="582.5023">&#171;Value Object&#187;</text><text fill="#000000" font-family="Arial" font-size="12" lengthAdjust="spacing" textLength="52.7051" x="105.5928" y="596.2777">PipelineId</text><line style="stroke:#F57C00;stroke-width:1;" x1="13" x2="223.3906" y1="603.8207" y2="603.8207"/><rect fill="none" height="6" style="stroke:#000000;stroke-width:1;" width="6" x="20" y="613.2201"/><text fill="#000000" font-family="Arial" font-size="12" lengthAdjust="spacing" textLength="56.0273" x="30" y="619.0765">value: Ulid</text><line style="stroke:#F57C00;stroke-width:1;" x1="13" x2="223.3906" y1="625.6195" y2="625.6195"/><ellipse cx="23" cy="638.0189" fill="#FFFFFF" rx="3" ry="3" style="stroke:#000000;stroke-width:1;"/><text fill="#000000" font-family="Arial" font-size="12" lengthAdjust="spacing" textLength="68.3555" x="30" y="640.8754">new() -&gt; Self</text><ellipse cx="23" cy="651.8177" fill="#FFFFFF" rx="3" ry="3" style="stroke:#000000;stroke-width:1;"/><text fill="#000000" font-family="Arial" font-size="12" lengthAdjust="spacing" textLength="188.3906" x="30" y="654.6742">from_string(s: &amp;str) -&gt; Result&lt;Self&gt;</text><ellipse cx="23" cy="665.6166" fill="#FFFFFF" rx="3" ry="3" style="stroke:#000000;stroke-width:1;"/><text fill="#000000" font-family="Arial" font-size="12" lengthAdjust="spacing" textLength="103.0371" x="30" y="668.473">to_string() -&gt; String</text></g><!--class FilePath--><g id="elem_FilePath"><rect codeLine="58" fill="#FFF3E0" height="109.5781" id="FilePath" rx="2.5" ry="2.5" style="stroke:#F57C00;stroke-width:1;" width="191.7422" x="753.32" y="565.4379"/><ellipse cx="801.2897" cy="584.6293" fill="#FFFFFF" rx="9" ry="9" style="stroke:#000000;stroke-width:1;"/><path d="M803.1237,588.8773 Q802.7136,589.0882 802.2624,589.1937 Q801.8112,589.2992 801.3132,589.2992 Q799.5436,589.2992 798.612,588.1332 Q797.6804,586.9671 797.6804,584.764 Q797.6804,582.555 798.612,581.389 Q799.5436,580.223 801.3132,580.223 Q801.8112,580.223 802.2682,580.3285 Q802.7253,580.4339 803.1237,580.6449 L803.1237,582.5668 Q802.6784,582.1566 802.2595,581.9662 Q801.8405,581.7757 801.3952,581.7757 Q800.446,581.7757 799.9626,582.5287 Q799.4792,583.2816 799.4792,584.764 Q799.4792,586.2406 799.9626,586.9935 Q800.446,587.7464 801.3952,587.7464 Q801.8405,587.7464 802.2595,587.556 Q802.6784,587.3656 803.1237,586.9554 Z " fill="#000000"/><text fill="#000000" font-family="Verdana" font-size="12" font-style="italic" lengthAdjust="spacing" textLength="92.3027" x="816.7897" y="582.5023">&#171;Value Object&#187;</text><text fill="#000000" font-family="Arial" font-size="12" lengthAdjust="spacing" textLength="44.0215" x="840.9304" y="596.2777">FilePath</text><line style="stroke:#F57C00;stroke-width:1;" x1="754.32" x2="944.0622" y1="603.8207" y2="603.8207"/><rect fill="none" height="6" style="stroke:#000000;stroke-width:1;" width="6" x="761.32" y="613.2201"/><text fill="#000000" font-family="Arial" font-size="12" lengthAdjust="spacing" textLength="78.0527" x="771.32" y="619.0765">value: PathBuf</text><line style="stroke:#F57C00;stroke-width:1;" x1="754.32" x2="944.0622" y1="625.6195" y2="625.6195"/><ellipse cx="764.32" cy="638.0189" fill="#FFFFFF" rx="3" ry="3" style="stroke:#000000;stroke-width:1;"/><text fill="#000000" font-family="Arial" font-size="12" lengthAdjust="spacing" textLength="167.7422" x="771.32" y="640.8754">new(path: &amp;str) -&gt; Result&lt;Self&gt;</text><ellipse cx="764.32" cy="651.8177" fill="#FFFFFF" rx="3" ry="3" style="stroke:#000000;stroke-width:1;"/><text fill="#000000" font-family="Arial" font-size="12" lengthAdjust="spacing" textLength="79.0254" x="771.32" y="654.6742">exists() -&gt; bool</text><ellipse cx="764.32" cy="665.6166" fill="#FFFFFF" rx="3" ry="3" style="stroke:#000000;stroke-width:1;"/><text fill="#000000" font-family="Arial" font-size="12" lengthAdjust="spacing" textLength="88.3711" x="771.32" y="668.473">is_valid() -&gt; bool</text></g><!--class FileSize--><g id="elem_FileSize"><rect codeLine="66" fill="#FFF3E0" height="95.7793" id="FileSize" rx="2.5" ry="2.5" style="stroke:#F57C00;stroke-width:1;" width="195.7559" x="1125.32" y="572.3379"/><ellipse cx="1175.2966" cy="591.5293" fill="#FFFFFF" rx="9" ry="9" style="stroke:#000000;stroke-width:1;"/><path d="M1177.1305,595.7773 Q1176.7204,595.9882 1176.2692,596.0937 Q1175.818,596.1992 1175.32,596.1992 Q1173.5505,596.1992 1172.6188,595.0332 Q1171.6872,593.8671 1171.6872,591.664 Q1171.6872,589.455 1172.6188,588.289 Q1173.5505,587.123 1175.32,587.123 Q1175.818,587.123 1176.2751,587.2285 Q1176.7321,587.3339 1177.1305,587.5449 L1177.1305,589.4668 Q1176.6852,589.0566 1176.2663,588.8662 Q1175.8473,588.6757 1175.402,588.6757 Q1174.4528,588.6757 1173.9694,589.4287 Q1173.486,590.1816 1173.486,591.664 Q1173.486,593.1406 1173.9694,593.8935 Q1174.4528,594.6464 1175.402,594.6464 Q1175.8473,594.6464 1176.2663,594.456 Q1176.6852,594.2656 1177.1305,593.8554 Z " fill="#000000"/><text fill="#000000" font-family="Verdana" font-size="12" font-style="italic" lengthAdjust="spacing" textLength="92.3027" x="1190.7966" y="589.4023">&#171;Value Object&#187;</text><text fill="#000000" font-family="Arial" font-size="12" lengthAdjust="spacing" textLength="42.6797" x="1215.6081" y="603.1777">FileSize</text><line style="stroke:#F57C00;stroke-width:1;" x1="1126.32" x2="1320.0759" y1="610.7207" y2="610.7207"/><rect fill="none" height="6" style="stroke:#000000;stroke-width:1;" width="6" x="1133.32" y="620.1201"/><text fill="#000000" font-family="Arial" font-size="12" lengthAdjust="spacing" textLength="55.3711" x="1143.32" y="625.9765">bytes: u64</text><line style="stroke:#F57C00;stroke-width:1;" x1="1126.32" x2="1320.0759" y1="632.5195" y2="632.5195"/><ellipse cx="1136.32" cy="644.9189" fill="#FFFFFF" rx="3" ry="3" style="stroke:#000000;stroke-width:1;"/><text fill="#000000" font-family="Arial" font-size="12" lengthAdjust="spacing" textLength="171.7559" x="1143.32" y="647.7754">new(bytes: u64) -&gt; Result&lt;Self&gt;</text><ellipse cx="1136.32" cy="658.7177" fill="#FFFFFF" rx="3" ry="3" style="stroke:#000000;stroke-width:1;"/><text fill="#000000" font-family="Arial" font-size="12" lengthAdjust="spacing" textLength="163.7637" x="1143.32" y="661.5742">to_human_readable() -&gt; String</text></g><!--class Algorithm--><g id="elem_Algorithm"><rect codeLine="73" fill="#FFF3E0" height="95.7793" id="Algorithm" rx="2.5" ry="2.5" style="stroke:#F57C00;stroke-width:1;" width="262.4355" x="357.98" y="777.6179"/><ellipse cx="441.2964" cy="796.8093" fill="#FFFFFF" rx="9" ry="9" style="stroke:#000000;stroke-width:1;"/><path d="M443.1304,801.0573 Q442.7202,801.2682 442.2691,801.3737 Q441.8179,801.4792 441.3198,801.4792 Q439.5503,801.4792 438.6187,800.3132 Q437.687,799.1471 437.687,796.944 Q437.687,794.735 438.6187,793.569 Q439.5503,792.403 441.3198,792.403 Q441.8179,792.403 442.2749,792.5085 Q442.732,792.6139 443.1304,792.8249 L443.1304,794.7468 Q442.6851,794.3366 442.2661,794.1462 Q441.8472,793.9557 441.4019,793.9557 Q440.4527,793.9557 439.9693,794.7087 Q439.4859,795.4616 439.4859,796.944 Q439.4859,798.4206 439.9693,799.1735 Q440.4527,799.9264 441.4019,799.9264 Q441.8472,799.9264 442.2661,799.736 Q442.6851,799.5456 443.1304,799.1354 Z " fill="#000000"/><text fill="#000000" font-family="Verdana" font-size="12" font-style="italic" lengthAdjust="spacing" textLength="92.3027" x="456.7964" y="794.6823">&#171;Value Object&#187;</text><text fill="#000000" font-family="Arial" font-size="12" lengthAdjust="spacing" textLength="50.6836" x="477.606" y="808.4577">Algorithm</text><line style="stroke:#F57C00;stroke-width:1;" x1="358.98" x2="619.4155" y1="816.0007" y2="816.0007"/><rect fill="none" height="6" style="stroke:#000000;stroke-width:1;" width="6" x="365.98" y="825.4001"/><text fill="#000000" font-family="Arial" font-size="12" lengthAdjust="spacing" textLength="162.7383" x="375.98" y="831.2565">algorithm_type: AlgorithmType</text><line style="stroke:#F57C00;stroke-width:1;" x1="358.98" x2="619.4155" y1="837.7995" y2="837.7995"/><ellipse cx="368.98" cy="850.1989" fill="#FFFFFF" rx="3" ry="3" style="stroke:#000000;stroke-width:1;"/><text fill="#000000" font-family="Arial" font-size="12" lengthAdjust="spacing" textLength="238.4355" x="375.98" y="853.0554">compression(algo: CompressionAlgo) -&gt; Self</text><ellipse cx="368.98" cy="863.9977" fill="#FFFFFF" rx="3" ry="3" style="stroke:#000000;stroke-width:1;"/><text fill="#000000" font-family="Arial" font-size="12" lengthAdjust="spacing" textLength="211.7754" x="375.98" y="866.8542">encryption(algo: EncryptionAlgo) -&gt; Self</text></g><!--class Checksum--><g id="elem_Checksum"><rect codeLine="80" fill="#FFF3E0" height="109.5781" id="Checksum" rx="2.5" ry="2.5" style="stroke:#F57C00;stroke-width:1;" width="187.3887" x="1359.5" y="565.4379"/><ellipse cx="1405.293" cy="584.6293" fill="#FFFFFF" rx="9" ry="9" style="stroke:#000000;stroke-width:1;"/><path d="M1407.127,588.8773 Q1406.7168,589.0882 1406.2656,589.1937 Q1405.8145,589.2992 1405.3164,589.2992 Q1403.5469,589.2992 1402.6152,588.1332 Q1401.6836,586.9671 1401.6836,584.764 Q1401.6836,582.555 1402.6152,581.389 Q1403.5469,580.223 1405.3164,580.223 Q1405.8145,580.223 1406.2715,580.3285 Q1406.7285,580.4339 1407.127,580.6449 L1407.127,582.5668 Q1406.6816,582.1566 1406.2627,581.9662 Q1405.8438,581.7757 1405.3984,581.7757 Q1404.4492,581.7757 1403.9658,582.5287 Q1403.4824,583.2816 1403.4824,584.764 Q1403.4824,586.2406 1403.9658,586.9935 Q1404.4492,587.7464 1405.3984,587.7464 Q1405.8438,587.7464 1406.2627,587.556 Q1406.6816,587.3656 1407.127,586.9554 Z " fill="#000000"/><text fill="#000000" font-family="Verdana" font-size="12" font-style="italic" lengthAdjust="spacing" textLength="92.3027" x="1420.793" y="582.5023">&#171;Value Object&#187;</text><text fill="#000000" font-family="Arial" font-size="12" lengthAdjust="spacing" textLength="56.6836" x="1438.6025" y="596.2777">Checksum</text><line style="stroke:#F57C00;stroke-width:1;" x1="1360.5" x2="1545.8887" y1="603.8207" y2="603.8207"/><rect fill="none" height="6" style="stroke:#000000;stroke-width:1;" width="6" x="1367.5" y="613.2201"/><text fill="#000000" font-family="Arial" font-size="12" lengthAdjust="spacing" textLength="66.7031" x="1377.5" y="619.0765">value: String</text><rect fill="none" height="6" style="stroke:#000000;stroke-width:1;" width="6" x="1367.5" y="627.0189"/><text fill="#000000" font-family="Arial" font-size="12" lengthAdjust="spacing" textLength="163.3887" x="1377.5" y="632.8754">algorithm: ChecksumAlgorithm</text><line style="stroke:#F57C00;stroke-width:1;" x1="1360.5" x2="1545.8887" y1="639.4183" y2="639.4183"/><ellipse cx="1370.5" cy="651.8177" fill="#FFFFFF" rx="3" ry="3" style="stroke:#000000;stroke-width:1;"/><text fill="#000000" font-family="Arial" font-size="12" lengthAdjust="spacing" textLength="151.7461" x="1377.5" y="654.6742">calculate(data: &amp;[u8]) -&gt; Self</text><ellipse cx="1370.5" cy="665.6166" fill="#FFFFFF" rx="3" ry="3" style="stroke:#000000;stroke-width:1;"/><text fill="#000000" font-family="Arial" font-size="12" lengthAdjust="spacing" textLength="135.0645" x="1377.5" y="668.473">verify(data: &amp;[u8]) -&gt; bool</text></g><!--class StageType--><g id="elem_StageType"><rect codeLine="88" fill="#FFF3E0" height="85.3965" id="StageType" rx="2.5" ry="2.5" style="stroke:#F57C00;stroke-width:1;" width="88.6992" x="655.85" y="782.8079"/><ellipse cx="670.0479" cy="796.8079" fill="#FFFFFF" rx="9" ry="9" style="stroke:#000000;stroke-width:1;"/><path d="M672.9815,801.3079 L667.5323,801.3079 L667.5323,792.5598 L672.9815,792.5598 L672.9815,794.0832 L669.2608,794.0832 L669.2608,795.97 L672.63,795.97 L672.63,797.4934 L669.2608,797.4934 L669.2608,799.7844 L672.9815,799.7844 Z " fill="#000000"/><text fill="#000000" font-family="Arial" font-size="12" lengthAdjust="spacing" textLength="58.0371" x="682.3142" y="801.1643">StageType</text><line style="stroke:#F57C00;stroke-width:1;" x1="656.85" x2="743.5492" y1="810.8079" y2="810.8079"/><text fill="#000000" font-family="Arial" font-size="12" lengthAdjust="spacing" textLength="70.6934" x="661.85" y="826.0637">Compression</text><text fill="#000000" font-family="Arial" font-size="12" lengthAdjust="spacing" textLength="56.6953" x="661.85" y="839.8625">Encryption</text><text fill="#000000" font-family="Arial" font-size="12" lengthAdjust="spacing" textLength="76.6992" x="661.85" y="853.6614">IntegrityCheck</text><line style="stroke:#F57C00;stroke-width:1;" x1="656.85" x2="743.5492" y1="860.2043" y2="860.2043"/></g><!--class PipelineStatus--><g id="elem_PipelineStatus"><rect codeLine="94" fill="#FFF3E0" height="99.1953" id="PipelineStatus" rx="2.5" ry="2.5" style="stroke:#F57C00;stroke-width:1;" width="104.7168" x="979.84" y="570.6379"/><ellipse cx="992.84" cy="584.6379" fill="#FFFFFF" rx="9" ry="9" style="stroke:#000000;stroke-width:1;"/><path d="M995.7736,589.1379 L990.3244,589.1379 L990.3244,580.3898 L995.7736,580.3898 L995.7736,581.9132 L992.0529,581.9132 L992.0529,583.8 L995.422,583.8 L995.422,585.3234 L992.0529,585.3234 L992.0529,587.6144 L995.7736,587.6144 Z " fill="#000000"/><text fill="#000000" font-family="Arial" font-size="12" lengthAdjust="spacing" textLength="76.7168" x="1004.84" y="588.9943">PipelineStatus</text><line style="stroke:#F57C00;stroke-width:1;" x1="980.84" x2="1083.5568" y1="598.6379" y2="598.6379"/><text fill="#000000" font-family="Arial" font-size="12" lengthAdjust="spacing" textLength="42.6914" x="985.84" y="613.8937">Created</text><text fill="#000000" font-family="Arial" font-size="12" lengthAdjust="spacing" textLength="44.7012" x="985.84" y="627.6925">Running</text><text fill="#000000" font-family="Arial" font-size="12" lengthAdjust="spacing" textLength="58.0313" x="985.84" y="641.4914">Completed</text><text fill="#000000" font-family="Arial" font-size="12" lengthAdjust="spacing" textLength="32.6836" x="985.84" y="655.2902">Failed</text><line style="stroke:#F57C00;stroke-width:1;" x1="980.84" x2="1083.5568" y1="661.8332" y2="661.8332"/></g><!--class PipelineAggregate--><g id="elem_PipelineAggregate"><rect codeLine="102" fill="#FFF3E0" height="123.377" id="PipelineAggregate" rx="2.5" ry="2.5" style="stroke:#F57C00;stroke-width:1;" width="229.8047" x="1210.29" y="58.2979"/><ellipse cx="1268.8183" cy="77.4893" fill="#FFFFFF" rx="9" ry="9" style="stroke:#000000;stroke-width:1;"/><path d="M1270.6523,81.7373 Q1270.2421,81.9482 1269.791,82.0537 Q1269.3398,82.1592 1268.8418,82.1592 Q1267.0722,82.1592 1266.1406,80.9932 Q1265.2089,79.8271 1265.2089,77.624 Q1265.2089,75.415 1266.1406,74.249 Q1267.0722,73.083 1268.8418,73.083 Q1269.3398,73.083 1269.7968,73.1885 Q1270.2539,73.2939 1270.6523,73.5049 L1270.6523,75.4268 Q1270.207,75.0166 1269.788,74.8262 Q1269.3691,74.6357 1268.9238,74.6357 Q1267.9746,74.6357 1267.4912,75.3887 Q1267.0078,76.1416 1267.0078,77.624 Q1267.0078,79.1006 1267.4912,79.8535 Q1267.9746,80.6064 1268.9238,80.6064 Q1269.3691,80.6064 1269.788,80.416 Q1270.207,80.2256 1270.6523,79.8154 Z " fill="#000000"/><text fill="#000000" font-family="Verdana" font-size="12" font-style="italic" lengthAdjust="spacing" textLength="109.248" x="1284.3183" y="75.3623">&#171;Aggregate Root&#187;</text><text fill="#000000" font-family="Arial" font-size="12" lengthAdjust="spacing" textLength="98.0742" x="1289.9052" y="89.1377">PipelineAggregate</text><line style="stroke:#F57C00;stroke-width:1;" x1="1211.29" x2="1439.0947" y1="96.6807" y2="96.6807"/><rect fill="none" height="6" style="stroke:#000000;stroke-width:1;" width="6" x="1218.29" y="106.0801"/><text fill="#000000" font-family="Arial" font-size="12" lengthAdjust="spacing" textLength="90.7324" x="1228.29" y="111.9365">pipeline: Pipeline</text><rect fill="none" height="6" style="stroke:#000000;stroke-width:1;" width="6" x="1218.29" y="119.8789"/><text fill="#000000" font-family="Arial" font-size="12" lengthAdjust="spacing" textLength="133.4063" x="1228.29" y="125.7354">chunks: Vec&lt;FileChunk&gt;</text><line style="stroke:#F57C00;stroke-width:1;" x1="1211.29" x2="1439.0947" y1="132.2783" y2="132.2783"/><ellipse cx="1221.29" cy="144.6777" fill="#FFFFFF" rx="3" ry="3" style="stroke:#000000;stroke-width:1;"/><text fill="#000000" font-family="Arial" font-size="12" lengthAdjust="spacing" textLength="205.8047" x="1228.29" y="147.5342">create(input_path, output_path) -&gt; Self</text><ellipse cx="1221.29" cy="158.4766" fill="#FFFFFF" rx="3" ry="3" style="stroke:#000000;stroke-width:1;"/><text fill="#000000" font-family="Arial" font-size="12" lengthAdjust="spacing" textLength="159.4219" x="1228.29" y="161.333">add_chunk(chunk: FileChunk)</text><ellipse cx="1221.29" cy="172.2754" fill="#FFFFFF" rx="3" ry="3" style="stroke:#000000;stroke-width:1;"/><text fill="#000000" font-family="Arial" font-size="12" lengthAdjust="spacing" textLength="123.7031" x="1228.29" y="175.1318">process() -&gt; Result&lt;()&gt;</text></g><g id="elem_GMN24"><path d="M998.32,334.0579 L998.32,355.7579 L963.7,359.7579 L998.32,363.7579 L998.32,385.4543 A0,0 0 0 0 998.32,385.4543 L1164.07,385.4543 A0,0 0 0 0 1164.07,385.4543 L1164.07,344.0579 L1154.07,334.0579 L998.32,334.0579 A0,0 0 0 0 998.32,334.0579 " fill="#FFFFFF" style="stroke:#000000;stroke-width:1;"/><path d="M1154.07,334.0579 L1154.07,344.0579 L1164.07,344.0579 L1154.07,334.0579 " fill="#FFFFFF" style="stroke:#000000;stroke-width:1;"/><text fill="#000000" font-family="Arial" font-size="12" font-weight="bold" lengthAdjust="spacing" textLength="90" x="1004.32" y="350.3137">Aggregate Root</text><text fill="#000000" font-family="Arial" font-size="12" lengthAdjust="spacing" textLength="144.75" x="1004.32" y="364.1125">Entities with unique identity</text><text fill="#000000" font-family="Arial" font-size="12" lengthAdjust="spacing" textLength="111.375" x="1004.32" y="377.9114">that persist over time</text></g><g id="elem_GMN27"><path d="M259.32,594.5379 L259.32,616.2279 L224.66,620.2279 L259.32,624.2279 L259.32,645.9343 A0,0 0 0 0 259.32,645.9343 L437.07,645.9343 A0,0 0 0 0 437.07,645.9343 L437.07,604.5379 L427.07,594.5379 L259.32,594.5379 A0,0 0 0 0 259.32,594.5379 " fill="#FFFFFF" style="stroke:#000000;stroke-width:1;"/><path d="M427.07,594.5379 L427.07,604.5379 L437.07,604.5379 L427.07,594.5379 " fill="#FFFFFF" style="stroke:#000000;stroke-width:1;"/><text fill="#000000" font-family="Arial" font-size="12" font-weight="bold" lengthAdjust="spacing" textLength="79.3652" x="265.32" y="610.7937">Value Objects</text><text fill="#000000" font-family="Arial" font-size="12" lengthAdjust="spacing" textLength="140.0801" x="265.32" y="624.5925">Immutable objects defined</text><text fill="#000000" font-family="Arial" font-size="12" lengthAdjust="spacing" textLength="156.75" x="265.32" y="638.3914">by their attributes, not identity</text></g><g id="elem_GMN30"><path d="M1486.33,334.0579 L1486.33,385.4543 L1626.0644,385.4543 L1626.0644,344.0579 L1616.0644,334.0579 L1486.33,334.0579 " fill="#FFFFFF" style="stroke:#000000;stroke-width:1;"/><path d="M1616.0644,334.0579 L1616.0644,344.0579 L1626.0644,344.0579 L1616.0644,334.0579 " fill="#FFFFFF" style="stroke:#000000;stroke-width:1;"/><text fill="#000000" font-family="Arial" font-size="12" font-weight="bold" lengthAdjust="spacing" textLength="59.3438" x="1492.33" y="350.3137">Aggregate</text><text fill="#000000" font-family="Arial" font-size="12" lengthAdjust="spacing" textLength="118.7344" x="1492.33" y="364.1125">Consistency boundary</text><text fill="#000000" font-family="Arial" font-size="12" lengthAdjust="spacing" textLength="95.3848" x="1492.33" y="377.9114">for related entities</text></g><!--reverse link Pipeline to PipelineStage--><g id="link_Pipeline_PipelineStage"><path codeLine="112" d="M738.2695,471.8962 C714.3195,496.5562 697.41,513.9779 674.52,537.5479 " fill="none" id="Pipeline-backto-PipelineStage" style="stroke:#000000;stroke-width:1;"/><polygon fill="#000000" points="746.63,463.2879,739.5803,464.8052,738.2695,471.8962,745.3192,470.3788,746.63,463.2879" style="stroke:#000000;stroke-width:1;"/><text fill="#000000" font-family="Arial" font-size="12" lengthAdjust="spacing" textLength="44.6953" x="714.17" y="505.1037">contains</text><text fill="#000000" font-family="Arial" font-size="12" lengthAdjust="spacing" textLength="6.6738" x="733.7614" y="481.9629">1</text><text fill="#000000" font-family="Arial" font-size="12" lengthAdjust="spacing" textLength="29.3438" x="651.7152" y="527.3412">many</text></g><!--link Pipeline to PipelineId--><g id="link_Pipeline_PipelineId"><path codeLine="113" d="M728.7,384.3679 C604.23,411.8279 403.75,463.1679 242.2,537.8479 C225.72,545.4579 208.91,555.0579 193.21,564.9579 " fill="none" id="Pipeline-PipelineId" style="stroke:#000000;stroke-width:1;"/><text fill="#000000" font-family="Arial" font-size="12" lengthAdjust="spacing" textLength="19.3477" x="337.99" y="505.1037">has</text><text fill="#000000" font-family="Arial" font-size="12" lengthAdjust="spacing" textLength="6.6738" x="714.2512" y="383.9248">1</text><text fill="#000000" font-family="Arial" font-size="12" lengthAdjust="spacing" textLength="6.6738" x="196.9322" y="554.9672">1</text></g><!--link Pipeline to FilePath--><g id="link_Pipeline_FilePath"><path codeLine="114" d="M847.39,463.2879 C847.79,498.0979 848.22,535.6179 848.57,565.1279 " fill="none" id="Pipeline-FilePath" style="stroke:#000000;stroke-width:1;"/><text fill="#000000" font-family="Arial" font-size="12" lengthAdjust="spacing" textLength="19.3477" x="848.87" y="505.1037">has</text><text fill="#000000" font-family="Arial" font-size="12" lengthAdjust="spacing" textLength="6.6738" x="841.2912" y="481.9629">1</text><text fill="#000000" font-family="Arial" font-size="12" lengthAdjust="spacing" textLength="6.6738" x="842.1082" y="554.7775">2</text></g><!--link Pipeline to PipelineStatus--><g id="link_Pipeline_PipelineStatus"><path codeLine="115" d="M919.97,463.2879 C946.55,500.2179 975.31,540.1879 997.06,570.4079 " fill="none" id="Pipeline-PipelineStatus" style="stroke:#000000;stroke-width:1;"/><text fill="#000000" font-family="Arial" font-size="12" lengthAdjust="spacing" textLength="19.3477" x="951.33" y="505.1037">has</text><text fill="#000000" font-family="Arial" font-size="12" lengthAdjust="spacing" textLength="6.6738" x="918.7477" y="481.9629">1</text><text fill="#000000" font-family="Arial" font-size="12" lengthAdjust="spacing" textLength="6.6738" x="985.2716" y="560.0997">1</text></g><!--link PipelineStage to StageType--><g id="link_PipelineStage_StageType"><path codeLine="117" d="M637.45,703.0379 C651.52,730.2879 666.62,759.5079 678.48,782.4679 " fill="none" id="PipelineStage-StageType" style="stroke:#000000;stroke-width:1;"/><text fill="#000000" font-family="Arial" font-size="12" lengthAdjust="spacing" textLength="19.3477" x="661.19" y="744.8737">has</text><text fill="#000000" font-family="Arial" font-size="12" lengthAdjust="spacing" textLength="6.6738" x="634.8526" y="722.0025">1</text><text fill="#000000" font-family="Arial" font-size="12" lengthAdjust="spacing" textLength="6.6738" x="668.2892" y="772.278">1</text></g><!--link PipelineStage to Algorithm--><g id="link_PipelineStage_Algorithm"><path codeLine="118" d="M552.54,703.0379 C539.37,728.2979 525.3,755.2579 513.78,777.3579 " fill="none" id="PipelineStage-Algorithm" style="stroke:#000000;stroke-width:1;"/><text fill="#000000" font-family="Arial" font-size="12" lengthAdjust="spacing" textLength="19.3477" x="536.85" y="744.8737">has</text><text fill="#000000" font-family="Arial" font-size="12" lengthAdjust="spacing" textLength="6.6738" x="542.6456" y="722.0025">1</text><text fill="#000000" font-family="Arial" font-size="12" lengthAdjust="spacing" textLength="6.6738" x="511.2734" y="766.9676">1</text></g><!--link FileChunk to FileSize--><g id="link_FileChunk_FileSize"><path codeLine="120" d="M1239.85,442.2879 C1228.13,457.8779 1217.85,474.9579 1211.2,492.8479 C1201.86,517.9479 1204.09,547.6879 1209.01,572.0179 " fill="none" id="FileChunk-FileSize" style="stroke:#000000;stroke-width:1;"/><text fill="#000000" font-family="Arial" font-size="12" lengthAdjust="spacing" textLength="69.3633" x="1212.2" y="505.1037">has (original)</text><text fill="#000000" font-family="Arial" font-size="12" lengthAdjust="spacing" textLength="6.6738" x="1226.0116" y="461.5079">1</text><text fill="#000000" font-family="Arial" font-size="12" lengthAdjust="spacing" textLength="6.6738" x="1200.4297" y="561.9575">1</text></g><!--link FileChunk to FileSize--><g id="link_FileChunk_FileSize"><path codeLine="121" d="M1307.48,442.5179 C1301.73,464.1179 1294.62,487.1679 1286.2,507.8479 C1277.27,529.7579 1264.86,552.7179 1253.42,572.0579 " fill="none" id="FileChunk-FileSize-1" style="stroke:#000000;stroke-width:1;"/><text fill="#000000" font-family="Arial" font-size="12" lengthAdjust="spacing" textLength="86.0391" x="1291.66" y="505.1037">has (processed)</text><text fill="#000000" font-family="Arial" font-size="12" lengthAdjust="spacing" textLength="6.6738" x="1299.7285" y="461.4782">1</text><text fill="#000000" font-family="Arial" font-size="12" lengthAdjust="spacing" textLength="6.6738" x="1251.8122" y="561.6644">1</text></g><!--link FileChunk to Checksum--><g id="link_FileChunk_Checksum"><path codeLine="122" d="M1365.7,442.5379 C1385.54,482.6179 1408.89,529.7779 1426.48,565.2879 " fill="none" id="FileChunk-Checksum" style="stroke:#000000;stroke-width:1;"/><text fill="#000000" font-family="Arial" font-size="12" lengthAdjust="spacing" textLength="19.3477" x="1397.86" y="505.1037">has</text><text fill="#000000" font-family="Arial" font-size="12" lengthAdjust="spacing" textLength="6.6738" x="1362.9518" y="461.5">1</text><text fill="#000000" font-family="Arial" font-size="12" lengthAdjust="spacing" textLength="6.6738" x="1416.3488" y="554.96">1</text></g><!--reverse link PipelineAggregate to Pipeline--><g id="link_PipelineAggregate_Pipeline"><path codeLine="124" d="M1198.7894,161.4998 C1130.2094,185.4198 1053.97,215.8179 981.2,256.6779 C975.43,259.9079 969.64,263.3679 963.86,266.9779 " fill="none" id="PipelineAggregate-backto-Pipeline" style="stroke:#000000;stroke-width:1;"/><polygon fill="none" points="1210.12,157.5479,1203.1374,155.747,1198.7894,161.4998,1205.772,163.3007,1210.12,157.5479" style="stroke:#000000;stroke-width:1;"/><text fill="#000000" font-family="Arial" font-size="12" lengthAdjust="spacing" textLength="49.3652" x="1063.66" y="223.9337">manages</text><text fill="#000000" font-family="Arial" font-size="12" lengthAdjust="spacing" textLength="6.6738" x="1195.4738" y="158.1141">1</text><text fill="#000000" font-family="Arial" font-size="12" lengthAdjust="spacing" textLength="6.6738" x="971.6115" y="258.8989">1</text></g><!--reverse link PipelineAggregate to FileChunk--><g id="link_PipelineAggregate_FileChunk"><path codeLine="125" d="M1325.2,193.9079 C1325.2,222.8079 1325.2,245.7479 1325.2,276.9179 " fill="none" id="PipelineAggregate-backto-FileChunk" style="stroke:#000000;stroke-width:1;"/><polygon fill="none" points="1325.2,181.9079,1321.2,187.9079,1325.2,193.9079,1329.2,187.9079,1325.2,181.9079" style="stroke:#000000;stroke-width:1;"/><text fill="#000000" font-family="Arial" font-size="12" lengthAdjust="spacing" textLength="49.3652" x="1326.2" y="223.9337">manages</text><text fill="#000000" font-family="Arial" font-size="12" lengthAdjust="spacing" textLength="6.6738" x="1318.893" y="201.1211">1</text><text fill="#000000" font-family="Arial" font-size="12" lengthAdjust="spacing" textLength="29.3438" x="1294.8346" y="266.6959">many</text></g><!--link PipelineAggregate to GMN30--><g id="link_PipelineAggregate_GMN30"><path d="M1392.39,182.1279 C1416.78,204.9979 1444.23,231.5379 1468.2,256.6779 C1492.41,282.0779 1518.46,312.7579 1535.88,333.8179 " fill="none" id="PipelineAggregate-GMN30" style="stroke:#000000;stroke-width:1;stroke-dasharray:7.0,7.0;"/></g><!--SRC=[ZLPRRzis57xNh-0ye7Ey14ZIRYi4mq3gna0UjXP9rvTX46ZfME92aHelRRsX_xs7f2HAijtaHQ1uldE_yGTJGGsauPI9H3yoqL15QrB0ZbfkDbAOFoZIRnIZ_3ZzWVq7vEfwGCmvrVeDpHzB9Qqerf9BHNxSR3OlRoyFO58Le3h8Bx-jBo-Jn333WRoLDHf5VfS5y2JvYTmAl6UW4yz8thC6E1D0bajFsQzMvF-4a0l2YhIdtXNXIZJMP3l68MkegLAomUDxF7cgjEPxP6re2Jeb7o5VTd8VtDsg8nkheye7_-z9kG9geCYeISbRF7rWDGI2h1iE7UbTOvWKomxXnLxWvsSYuFES5UUj_SwsyyvQztD6BbRa0VZEWsbHPDxMkV-EB2hXp6FW2-JMmDnpteF692xdPojFOphhxGg0hPGy-PfC8kx57G-x9xKnRrfuTYGVti3Cx1jeUJxWqLCeBwLYfgfJSjCT0mlyQq7aa0bRRq6bnBwy7iNVoud17mTmOCpvGFiuW5rm2cfeIbxyPL__FOoJoxzzlLh5YBWoMLTMF1wFHaz-HaHoXplm3VqlcQ0yqzXbGQ3hjo1DoHoqnXewGimho1-rnIYksrEGjzjfm8gplxvw8aP3UsAKlhf6_4Yv1V9k-m_aPjgDTmM6OWZe0_B9NQRaJywAiUfn3dPArbZ5YeboZabzWSTX3XmkLAkH7Im8yETnQbm7Fs6EWxonkx55OGQSLWrVc3Pwq29jzw1CThHpkjISCcQxDsx076Gbtf-CGMLhAZASCmNTSZWUYxwHJkdlcwvjoPwXQyjWafiE2aiEXzNSiM1nnHl7CsadaQkz7sqj-hQ_68DxGxjQVI9fhN-JST4nZyP6QpZbkUNqI6ltndu2nNRx0tgNHy1EY9FAcpFm7V-YR_Xp9moKQCFUszJpZpT4418s19xkhH31gtKtXF6yeLWwHUYxcx9KK29ysdGz0UCMp_TIniXrlHtdJfmwxMhhfzLW_uG5Dd_s-l7ovlux67zXzRJpwc3rUD_k0TE3mTCLQtJIx_RPrOmiBYx838jyFvjie1GBKXXy8qmO7FvgDXn9AQde4T3rB8w94v2hsJHh0PYCJHd0Ov6CHHu0OrUs8kCs6Q3wqU51PDvjXBFdmVibSGBVTzp4hLX63YKdeK0q9iIzYhx7478MrKQcH4W4eYULmPKqBCd5Obp0YuNlhV3o8vynNCGAXYy1NB3WDoxIJKKDQK1f7Cj4OYSJunvQ80hY59rIvpVlOZ5QPrxVNLrRuyOfaU7MlNUHmU6tUrG7J15gS0fjyRcWpvsMQCz4xLOQ8-kXtjx3iRzUzHfR0Bt0qRb7JdmzK-KytE7pMBaMWO90zmxk5Nq3]--></g></svg>