<svg xmlns="http://www.w3.org/2000/svg" xmlns:xlink="http://www.w3.org/1999/xlink" contentStyleType="text/css" height="997px" preserveAspectRatio="none" style="width:1118px;height:997px;background:#FFFFFF;" version="1.1" viewBox="0 0 1118 997" width="1118px" zoomAndPan="magnify"><title>Hexagonal Architecture (Ports and Adapters)</title><defs/><g><text fill="#000000" font-family="Arial" font-size="22" font-weight="bold" lengthAdjust="spacing" textLength="470.6582" x="319.2909" y="35.6357">Hexagonal Architecture (Ports and Adapters)</text><!--cluster core--><g id="cluster_core"><rect fill="#FFF3E0" height="350.8" rx="2.5" ry="2.5" style="stroke:#000000;stroke-width:1;" width="868" x="128.24" y="348.2979"/><text fill="#000000" font-family="Arial" font-size="12" font-weight="bold" lengthAdjust="spacing" textLength="96.0059" x="514.2371" y="361.5537">Application Core</text></g><!--cluster domain--><g id="cluster_domain"><rect fill="#FFFFFF" height="250.7" rx="2.5" ry="2.5" style="stroke:#000000;stroke-width:1;" width="301" x="168.24" y="412.2979"/><text fill="#000000" font-family="Arial" font-size="12" font-weight="bold" lengthAdjust="spacing" textLength="82.002" x="277.739" y="425.5537">Domain Model</text></g><!--cluster logic--><g id="cluster_logic"><rect fill="#FFFFFF" height="107.8" rx="2.5" ry="2.5" style="stroke:#000000;stroke-width:1;" width="359" x="501.24" y="404.2979"/><text fill="#000000" font-family="Arial" font-size="12" font-weight="bold" lengthAdjust="spacing" textLength="88.6875" x="636.3963" y="417.5537">Business Logic</text></g><!--cluster ports--><g id="cluster_ports"><rect fill="#FFFFFF" height="100" rx="2.5" ry="2.5" style="stroke:#000000;stroke-width:1;" width="471" x="493.24" y="567.0979"/><text fill="#000000" font-family="Arial" font-size="12" font-weight="bold" lengthAdjust="spacing" textLength="30.6738" x="713.4031" y="580.3537">Ports</text></g><!--cluster primary--><g id="cluster_primary"><rect fill="#E3F2FD" height="107.8" rx="2.5" ry="2.5" style="stroke:#000000;stroke-width:1;" width="323" x="704.24" y="177.4979"/><text fill="#000000" font-family="Arial" font-size="12" font-weight="bold" lengthAdjust="spacing" textLength="100.043" x="815.7185" y="190.7537">Primary Adapters</text></g><!--cluster secondary--><g id="cluster_secondary"><rect fill="#F3E5F5" height="107.79" rx="2.5" ry="2.5" style="stroke:#000000;stroke-width:1;" width="795" x="317.24" y="762.0979"/><text fill="#000000" font-family="Arial" font-size="12" font-weight="bold" lengthAdjust="spacing" textLength="116.707" x="656.3865" y="775.3537">Secondary Adapters</text></g><!--entity Pipeline Entity--><g id="elem_Pipeline Entity"><rect fill="#FFFFFF" height="43.7988" rx="2.5" ry="2.5" style="stroke:#000000;stroke-width:1;" width="116.043" x="184.22" y="444.2979"/><rect fill="#FFFFFF" height="10" style="stroke:#000000;stroke-width:1;" width="15" x="280.263" y="449.2979"/><rect fill="#FFFFFF" height="2" style="stroke:#000000;stroke-width:1;" width="4" x="278.263" y="451.2979"/><rect fill="#FFFFFF" height="2" style="stroke:#000000;stroke-width:1;" width="4" x="278.263" y="455.2979"/><text fill="#000000" font-family="Arial" font-size="12" lengthAdjust="spacing" textLength="76.043" x="199.22" y="475.5537">Pipeline Entity</text></g><!--entity Pipeline Stage--><g id="elem_Pipeline Stage"><rect fill="#FFFFFF" height="43.7988" rx="2.5" ry="2.5" style="stroke:#000000;stroke-width:1;" width="117.3906" x="335.55" y="444.2979"/><rect fill="#FFFFFF" height="10" style="stroke:#000000;stroke-width:1;" width="15" x="432.9406" y="449.2979"/><rect fill="#FFFFFF" height="2" style="stroke:#000000;stroke-width:1;" width="4" x="430.9406" y="451.2979"/><rect fill="#FFFFFF" height="2" style="stroke:#000000;stroke-width:1;" width="4" x="430.9406" y="455.2979"/><text fill="#000000" font-family="Arial" font-size="12" lengthAdjust="spacing" textLength="77.3906" x="350.55" y="475.5537">Pipeline Stage</text></g><!--entity Value Objects--><g id="elem_Value Objects"><rect fill="#FFFFFF" height="43.7988" rx="2.5" ry="2.5" style="stroke:#000000;stroke-width:1;" width="114.707" x="184.89" y="603.1979"/><rect fill="#FFFFFF" height="10" style="stroke:#000000;stroke-width:1;" width="15" x="279.597" y="608.1979"/><rect fill="#FFFFFF" height="2" style="stroke:#000000;stroke-width:1;" width="4" x="277.597" y="610.1979"/><rect fill="#FFFFFF" height="2" style="stroke:#000000;stroke-width:1;" width="4" x="277.597" y="614.1979"/><text fill="#000000" font-family="Arial" font-size="12" lengthAdjust="spacing" textLength="74.707" x="199.89" y="634.4537">Value Objects</text></g><!--entity Pipeline Service--><g id="elem_Pipeline Service"><rect fill="#FFFFFF" height="43.7988" rx="2.5" ry="2.5" style="stroke:#000000;stroke-width:1;" width="126.0449" x="525.22" y="444.2979"/><rect fill="#FFFFFF" height="10" style="stroke:#000000;stroke-width:1;" width="15" x="631.2649" y="449.2979"/><rect fill="#FFFFFF" height="2" style="stroke:#000000;stroke-width:1;" width="4" x="629.2649" y="451.2979"/><rect fill="#FFFFFF" height="2" style="stroke:#000000;stroke-width:1;" width="4" x="629.2649" y="455.2979"/><text fill="#000000" font-family="Arial" font-size="12" lengthAdjust="spacing" textLength="86.0449" x="540.22" y="475.5537">Pipeline Service</text></g><!--entity Domain Services--><g id="elem_Domain Services"><rect fill="#FFFFFF" height="43.7988" rx="2.5" ry="2.5" style="stroke:#000000;stroke-width:1;" width="130.6973" x="685.89" y="444.2979"/><rect fill="#FFFFFF" height="10" style="stroke:#000000;stroke-width:1;" width="15" x="796.5873" y="449.2979"/><rect fill="#FFFFFF" height="2" style="stroke:#000000;stroke-width:1;" width="4" x="794.5873" y="451.2979"/><rect fill="#FFFFFF" height="2" style="stroke:#000000;stroke-width:1;" width="4" x="794.5873" y="455.2979"/><text fill="#000000" font-family="Arial" font-size="12" lengthAdjust="spacing" textLength="90.6973" x="700.89" y="475.5537">Domain Services</text></g><!--entity repo_port--><g id="elem_repo_port"><ellipse cx="788.24" cy="625.0979" fill="#FFFFFF" rx="8" ry="8" style="stroke:#000000;stroke-width:1;"/><text fill="#000000" font-family="Arial" font-size="12" lengthAdjust="spacing" textLength="82.6992" x="746.8904" y="653.3537">Repository Port</text></g><!--entity file_port--><g id="elem_file_port"><ellipse cx="664.24" cy="625.0979" fill="#FFFFFF" rx="8" ry="8" style="stroke:#000000;stroke-width:1;"/><text fill="#000000" font-family="Arial" font-size="12" lengthAdjust="spacing" textLength="64.0137" x="632.2332" y="653.3537">File I/O Port</text></g><!--entity metrics_port--><g id="elem_metrics_port"><ellipse cx="549.24" cy="625.0979" fill="#FFFFFF" rx="8" ry="8" style="stroke:#000000;stroke-width:1;"/><text fill="#000000" font-family="Arial" font-size="12" lengthAdjust="spacing" textLength="64.0078" x="517.2361" y="653.3537">Metrics Port</text></g><!--entity config_port--><g id="elem_config_port"><ellipse cx="910.24" cy="625.0979" fill="#FFFFFF" rx="8" ry="8" style="stroke:#000000;stroke-width:1;"/><text fill="#000000" font-family="Arial" font-size="12" lengthAdjust="spacing" textLength="60.0293" x="880.2254" y="653.3537">Config Port</text></g><!--entity cli--><g id="elem_cli"><rect fill="#FFFFFF" height="43.7988" rx="2.5" ry="2.5" style="stroke:#000000;stroke-width:1;" width="104.0371" x="728.22" y="217.4979"/><rect fill="#FFFFFF" height="10" style="stroke:#000000;stroke-width:1;" width="15" x="812.2571" y="222.4979"/><rect fill="#FFFFFF" height="2" style="stroke:#000000;stroke-width:1;" width="4" x="810.2571" y="224.4979"/><rect fill="#FFFFFF" height="2" style="stroke:#000000;stroke-width:1;" width="4" x="810.2571" y="228.4979"/><text fill="#000000" font-family="Arial" font-size="12" lengthAdjust="spacing" textLength="64.0371" x="743.22" y="248.7537">CLI Adapter</text></g><!--entity http--><g id="elem_http"><rect fill="#FFFFFF" height="43.7988" rx="2.5" ry="2.5" style="stroke:#000000;stroke-width:1;" width="116.6934" x="866.89" y="217.4979"/><rect fill="#FFFFFF" height="10" style="stroke:#000000;stroke-width:1;" width="15" x="963.5834" y="222.4979"/><rect fill="#FFFFFF" height="2" style="stroke:#000000;stroke-width:1;" width="4" x="961.5834" y="224.4979"/><rect fill="#FFFFFF" height="2" style="stroke:#000000;stroke-width:1;" width="4" x="961.5834" y="228.4979"/><text fill="#000000" font-family="Arial" font-size="12" lengthAdjust="spacing" textLength="76.6934" x="881.89" y="248.7537">HTTP Adapter</text></g><!--entity sqlite--><g id="elem_sqlite"><rect fill="#FFFFFF" height="43.7988" rx="2.5" ry="2.5" style="stroke:#000000;stroke-width:1;" width="182.7402" x="727.87" y="802.0979"/><rect fill="#FFFFFF" height="10" style="stroke:#000000;stroke-width:1;" width="15" x="890.6102" y="807.0979"/><rect fill="#FFFFFF" height="2" style="stroke:#000000;stroke-width:1;" width="4" x="888.6102" y="809.0979"/><rect fill="#FFFFFF" height="2" style="stroke:#000000;stroke-width:1;" width="4" x="888.6102" y="813.0979"/><text fill="#000000" font-family="Arial" font-size="12" lengthAdjust="spacing" textLength="142.7402" x="742.87" y="833.3537">SQLite Repository Adapter</text></g><!--entity file_adapter--><g id="elem_file_adapter"><rect fill="#FFFFFF" height="43.7988" rx="2.5" ry="2.5" style="stroke:#000000;stroke-width:1;" width="148.041" x="545.22" y="802.0979"/><rect fill="#FFFFFF" height="10" style="stroke:#000000;stroke-width:1;" width="15" x="673.261" y="807.0979"/><rect fill="#FFFFFF" height="2" style="stroke:#000000;stroke-width:1;" width="4" x="671.261" y="809.0979"/><rect fill="#FFFFFF" height="2" style="stroke:#000000;stroke-width:1;" width="4" x="671.261" y="813.0979"/><text fill="#000000" font-family="Arial" font-size="12" lengthAdjust="spacing" textLength="108.041" x="560.22" y="833.3537">File System Adapter</text></g><!--entity prometheus--><g id="elem_prometheus"><rect fill="#FFFFFF" height="43.7988" rx="2.5" ry="2.5" style="stroke:#000000;stroke-width:1;" width="150.0625" x="360.21" y="802.0979"/><rect fill="#FFFFFF" height="10" style="stroke:#000000;stroke-width:1;" width="15" x="490.2725" y="807.0979"/><rect fill="#FFFFFF" height="2" style="stroke:#000000;stroke-width:1;" width="4" x="488.2725" y="809.0979"/><rect fill="#FFFFFF" height="2" style="stroke:#000000;stroke-width:1;" width="4" x="488.2725" y="813.0979"/><text fill="#000000" font-family="Arial" font-size="12" lengthAdjust="spacing" textLength="110.0625" x="375.21" y="833.3537">Prometheus Adapter</text></g><!--entity config_adapter--><g id="elem_config_adapter"><rect fill="#FFFFFF" height="43.7988" rx="2.5" ry="2.5" style="stroke:#000000;stroke-width:1;" width="142.7207" x="945.88" y="802.0979"/><rect fill="#FFFFFF" height="10" style="stroke:#000000;stroke-width:1;" width="15" x="1068.6007" y="807.0979"/><rect fill="#FFFFFF" height="2" style="stroke:#000000;stroke-width:1;" width="4" x="1066.6007" y="809.0979"/><rect fill="#FFFFFF" height="2" style="stroke:#000000;stroke-width:1;" width="4" x="1066.6007" y="813.0979"/><text fill="#000000" font-family="Arial" font-size="12" lengthAdjust="spacing" textLength="102.7207" x="960.88" y="833.3537">Config File Adapter</text></g><!--entity db--><g id="elem_db"><path d="M763.55,946.0879 C763.55,936.0879 819.2443,936.0879 819.2443,936.0879 C819.2443,936.0879 874.9387,936.0879 874.9387,946.0879 L874.9387,968.8867 C874.9387,978.8867 819.2443,978.8867 819.2443,978.8867 C819.2443,978.8867 763.55,978.8867 763.55,968.8867 L763.55,946.0879 " fill="#FFFFFF" style="stroke:#000000;stroke-width:1;"/><path d="M763.55,946.0879 C763.55,956.0879 819.2443,956.0879 819.2443,956.0879 C819.2443,956.0879 874.9387,956.0879 874.9387,946.0879 " fill="none" style="stroke:#000000;stroke-width:1;"/><text fill="#000000" font-family="Arial" font-size="12" lengthAdjust="spacing" textLength="91.3887" x="773.55" y="971.3437">SQLite Database</text></g><!--entity fs--><g id="elem_fs"><rect fill="#FFFFFF" height="33.7988" rx="35" ry="35" style="stroke:#000000;stroke-width:1;" width="82.6777" x="577.9" y="940.5879"/><text fill="#000000" font-family="Arial" font-size="12" lengthAdjust="spacing" textLength="62.6777" x="587.9" y="961.8437">File System</text></g><!--entity prom_server--><g id="elem_prom_server"><rect fill="#FFFFFF" height="43.7988" rx="2.5" ry="2.5" style="stroke:#000000;stroke-width:1;" width="143.377" x="381.55" y="935.5879"/><rect fill="#FFFFFF" height="10" style="stroke:#000000;stroke-width:1;" width="15" x="504.927" y="940.5879"/><rect fill="#FFFFFF" height="2" style="stroke:#000000;stroke-width:1;" width="4" x="502.927" y="942.5879"/><rect fill="#FFFFFF" height="2" style="stroke:#000000;stroke-width:1;" width="4" x="502.927" y="946.5879"/><text fill="#000000" font-family="Arial" font-size="12" lengthAdjust="spacing" textLength="103.377" x="396.55" y="966.8437">Prometheus Server</text></g><!--entity config_files--><g id="elem_config_files"><path d="M975.56,943.0879 L975.56,971.8867 A2.5,2.5 0 0 0 978.06,974.3867 L1056.4174,974.3867 A2.5,2.5 0 0 0 1058.9174,971.8867 L1058.9174,950.5879 L1048.9174,940.5879 L978.06,940.5879 A2.5,2.5 0 0 0 975.56,943.0879 " fill="#FFFFFF" style="stroke:#000000;stroke-width:1;"/><path d="M1048.9174,940.5879 L1048.9174,948.0879 A2.5,2.5 0 0 0 1051.4174,950.5879 L1058.9174,950.5879 " fill="#FFFFFF" style="stroke:#000000;stroke-width:1;"/><text fill="#000000" font-family="Arial" font-size="12" lengthAdjust="spacing" textLength="63.3574" x="985.56" y="961.8437">Config Files</text></g><g id="elem_GMN45"><path d="M11,206.7979 L11,271.9932 L261.4824,271.9932 L261.4824,216.7979 L251.4824,206.7979 L11,206.7979 " fill="#FFFFFF" style="stroke:#000000;stroke-width:1;"/><path d="M251.4824,206.7979 L251.4824,216.7979 L261.4824,216.7979 L251.4824,206.7979 " fill="#FFFFFF" style="stroke:#000000;stroke-width:1;"/><text fill="#000000" font-family="Arial" font-size="12" font-weight="bold" lengthAdjust="spacing" textLength="96.0059" x="17" y="223.0537">Application Core</text><text fill="#000000" font-family="Arial" font-size="12" lengthAdjust="spacing" textLength="229.4824" x="17" y="236.8525">- Business rules independent of technology</text><text fill="#000000" font-family="Arial" font-size="12" lengthAdjust="spacing" textLength="141.3809" x="17" y="250.6514">- Defines ports (interfaces)</text><text fill="#000000" font-family="Arial" font-size="12" lengthAdjust="spacing" textLength="146.7539" x="17" y="264.4502">- No knowledge of adapters</text></g><g id="elem_GMN48"><path d="M932.39,57.2979 L932.39,122.4932 L1106.097,122.4932 L1106.097,67.2979 L1096.097,57.2979 L932.39,57.2979 " fill="#FFFFFF" style="stroke:#000000;stroke-width:1;"/><path d="M1096.097,57.2979 L1096.097,67.2979 L1106.097,67.2979 L1096.097,57.2979 " fill="#FFFFFF" style="stroke:#000000;stroke-width:1;"/><text fill="#000000" font-family="Arial" font-size="12" font-weight="bold" lengthAdjust="spacing" textLength="152.707" x="938.39" y="73.5537">Primary (Driving) Adapters</text><text fill="#000000" font-family="Arial" font-size="12" lengthAdjust="spacing" textLength="116.0566" x="938.39" y="87.3525">- Drive the application</text><text fill="#000000" font-family="Arial" font-size="12" lengthAdjust="spacing" textLength="88.0254" x="938.39" y="101.1514">- User interfaces</text><text fill="#000000" font-family="Arial" font-size="12" lengthAdjust="spacing" textLength="82.0488" x="938.39" y="114.9502">- API endpoints</text></g><g id="elem_GMN51"><path d="M156.38,924.8879 L156.38,990.0832 L346.1124,990.0832 L346.1124,934.8879 L336.1124,924.8879 L156.38,924.8879 " fill="#FFFFFF" style="stroke:#000000;stroke-width:1;"/><path d="M336.1124,924.8879 L336.1124,934.8879 L346.1124,934.8879 L336.1124,924.8879 " fill="#FFFFFF" style="stroke:#000000;stroke-width:1;"/><text fill="#000000" font-family="Arial" font-size="12" font-weight="bold" lengthAdjust="spacing" textLength="165.3809" x="162.38" y="941.1437">Secondary (Driven) Adapters</text><text fill="#000000" font-family="Arial" font-size="12" lengthAdjust="spacing" textLength="138.7383" x="162.38" y="954.9425">- Driven by the application</text><text fill="#000000" font-family="Arial" font-size="12" lengthAdjust="spacing" textLength="168.7324" x="162.38" y="968.7414">- Infrastructure implementations</text><text fill="#000000" font-family="Arial" font-size="12" lengthAdjust="spacing" textLength="158.0625" x="162.38" y="982.5402">- External system integrations</text></g><!--link cli to logic--><g id="link_cli_logic"><path d="M782.73,261.6979 C786,280.4779 793.44,307.4079 810.24,324.2979 C817.58,331.6679 825.65,324.2379 832.24,332.2979 C841.5475,343.6754 847.485,357.5016 851.1475,371.8822 C852.9788,379.0725 854.2413,386.4014 855.0719,393.6321 C855.2795,395.4398 855.4602,397.2414 855.616,399.0331 C855.6939,399.9289 855.7656,400.8223 855.8313,401.7128 C855.8642,402.158 855.8956,402.6025 855.9255,403.0462 C855.9405,403.2681 855.57,397.5021 855.5842,397.7236 " fill="none" id="cli-to-logic" style="stroke:#000000;stroke-width:1;"/><polygon fill="#000000" points="855.9694,403.7112,859.3834,394.473,855.6484,398.7215,851.3999,394.9865,855.9694,403.7112" style="stroke:#000000;stroke-width:1;"/><text fill="#000000" font-family="Arial" font-size="12" lengthAdjust="spacing" textLength="58.6875" x="811.24" y="321.5537">commands</text></g><!--link http to logic--><g id="link_http_logic"><path d="M918.37,261.5479 C909.43,289.0879 893.27,338.8504 879.1637,382.2891 C872.1106,404.0085 865.5709,424.1469 860.7039,439.1361 C860.5518,439.6045 862.2543,434.3612 862.1055,434.8195 " fill="none" id="http-to-logic" style="stroke:#000000;stroke-width:1;"/><polygon fill="#000000" points="860.2526,440.5262,866.8365,433.2014,861.7967,435.7706,859.2275,430.7308,860.2526,440.5262" style="stroke:#000000;stroke-width:1;"/><text fill="#000000" font-family="Arial" font-size="12" lengthAdjust="spacing" textLength="80.6895" x="902.63" y="321.5537">HTTP requests</text></g><!--link logic to repo_port--><g id="link_logic_repo_port"><path d="M838.1069,512.1652 C838.0699,512.2711 838.033,512.377 837.996,512.4829 C837.9219,512.6947 837.8478,512.9065 837.7735,513.1183 C837.1791,514.8128 836.5759,516.5065 835.9659,518.1903 C834.7459,521.5579 833.4988,524.8854 832.24,528.0979 C819.13,561.5479 802.982,594.6806 794.882,610.8906 " fill="none" id="logic-to-repo_port" style="stroke:#000000;stroke-width:1;"/><polygon fill="#000000" points="792.2,616.2579,799.8011,609.995,794.435,611.7852,792.6448,606.419,792.2,616.2579" style="stroke:#000000;stroke-width:1;"/><text fill="#000000" font-family="Arial" font-size="12" lengthAdjust="spacing" textLength="25.3477" x="828.96" y="548.3537">uses</text></g><!--link logic to file_port--><g id="link_logic_file_port"><path d="M843.7458,512.193 C843.6997,512.2916 843.6534,512.39 843.6068,512.4884 C843.4204,512.8818 843.23,513.2732 843.0355,513.6624 C842.6466,514.4409 842.2414,515.2106 841.8192,515.9698 C840.9749,517.4881 840.0626,518.964 839.077,520.383 C837.1058,523.2211 834.8413,525.8316 832.24,528.0979 C817.25,541.1479 807.46,531.0279 788.24,536.0979 C758.2,544.0079 748.07,541.8379 722.24,559.0979 C698.6,574.8879 681.7299,597.5467 672.6699,611.1267 " fill="none" id="logic-to-file_port" style="stroke:#000000;stroke-width:1;"/><polygon fill="#000000" points="669.34,616.1179,677.6623,610.851,672.1149,611.9585,671.0074,606.4112,669.34,616.1179" style="stroke:#000000;stroke-width:1;"/><text fill="#000000" font-family="Arial" font-size="12" lengthAdjust="spacing" textLength="25.3477" x="789.24" y="548.3537">uses</text></g><!--link logic to metrics_port--><g id="link_logic_metrics_port"><path d="M844.4656,512.1439 C844.4196,512.2419 844.3733,512.3397 844.3268,512.4374 C844.2337,512.6328 844.1396,512.8277 844.0444,513.0219 C843.854,513.4104 843.6592,513.7966 843.4601,514.1801 C843.0618,514.9472 842.6458,515.7039 842.2115,516.4482 C841.3428,517.9369 840.4005,519.3763 839.3785,520.751 C837.3344,523.5002 834.9713,525.9904 832.24,528.0979 C820.7,536.9979 715.66,533.9079 701.24,536.0979 C658.72,542.5379 644.11,536.9379 607.24,559.0979 C582.61,573.8979 565.7879,597.4511 557.1079,611.2311 " fill="none" id="logic-to-metrics_port" style="stroke:#000000;stroke-width:1;"/><polygon fill="#000000" points="553.91,616.3079,562.0913,610.8246,556.5749,612.0772,555.3223,606.5608,553.91,616.3079" style="stroke:#000000;stroke-width:1;"/><text fill="#000000" font-family="Arial" font-size="12" lengthAdjust="spacing" textLength="25.3477" x="702.24" y="548.3537">uses</text></g><!--link logic to config_port--><g id="link_logic_config_port"><path d="M860.3256,489.0672 C860.464,489.4414 860.6037,489.8193 860.7447,490.2008 C861.0267,490.9637 861.314,491.741 861.6064,492.5318 C862.1911,494.1134 862.7958,495.7493 863.4185,497.4337 C864.6638,500.8024 865.9807,504.3649 867.3518,508.074 C870.0941,515.4922 873.0531,523.4972 876.09,531.7129 C888.2375,564.5754 899.5499,595.18 905.2899,610.71 " fill="none" id="logic-to-config_port" style="stroke:#000000;stroke-width:1;"/><polygon fill="#000000" points="907.37,616.3379,908.0018,606.5093,905.6366,611.6479,900.4979,609.2828,907.37,616.3379" style="stroke:#000000;stroke-width:1;"/><text fill="#000000" font-family="Arial" font-size="12" lengthAdjust="spacing" textLength="25.3477" x="883.98" y="548.3537">uses</text></g><!--reverse link repo_port to sqlite--><g id="link_repo_port_sqlite"><path d="M792.2951,651.8379 C796.7551,680.1079 809.09,758.5179 815.89,801.6979 " fill="none" id="repo_port-backto-sqlite" style="stroke:#000000;stroke-width:1;stroke-dasharray:7.0,7.0;"/><polygon fill="none" points="789.49,634.0579,786.3684,652.773,798.2218,650.9029,789.49,634.0579" style="stroke:#000000;stroke-width:1;"/><text fill="#000000" font-family="Arial" font-size="12" lengthAdjust="spacing" textLength="61.3535" x="806.6" y="735.3537">implements</text></g><!--reverse link file_port to file_adapter--><g id="link_file_port_file_adapter"><path d="M658.4102,651.6055 C651.9502,679.8755 633.98,758.5179 624.11,801.6979 " fill="none" id="file_port-backto-file_adapter" style="stroke:#000000;stroke-width:1;stroke-dasharray:7.0,7.0;"/><polygon fill="none" points="662.42,634.0579,652.5609,650.2689,664.2594,652.9421,662.42,634.0579" style="stroke:#000000;stroke-width:1;"/><text fill="#000000" font-family="Arial" font-size="12" lengthAdjust="spacing" textLength="61.3535" x="642.74" y="735.3537">implements</text></g><!--reverse link metrics_port to prometheus--><g id="link_metrics_port_prometheus"><path d="M535.61,649.6348 C519.24,677.9048 472.57,758.5179 447.57,801.6979 " fill="none" id="metrics_port-backto-prometheus" style="stroke:#000000;stroke-width:1;stroke-dasharray:7.0,7.0;"/><polygon fill="none" points="544.63,634.0579,530.4177,646.6281,540.8024,652.6414,544.63,634.0579" style="stroke:#000000;stroke-width:1;"/><text fill="#000000" font-family="Arial" font-size="12" lengthAdjust="spacing" textLength="61.3535" x="493.24" y="735.3537">implements</text></g><!--reverse link config_port to config_adapter--><g id="link_config_port_config_adapter"><path d="M923.1635,649.8741 C938.5235,678.1441 982.2,758.5179 1005.67,801.6979 " fill="none" id="config_port-backto-config_adapter" style="stroke:#000000;stroke-width:1;stroke-dasharray:7.0,7.0;"/><polygon fill="none" points="914.57,634.0579,917.8914,652.7385,928.4355,647.0096,914.57,634.0579" style="stroke:#000000;stroke-width:1;"/><text fill="#000000" font-family="Arial" font-size="12" lengthAdjust="spacing" textLength="61.3535" x="971.15" y="735.3537">implements</text></g><!--link sqlite to db--><g id="link_sqlite_db"><path d="M819.24,846.1179 C819.24,870.8079 819.24,905.3779 819.24,929.8479 " fill="none" id="sqlite-to-db" style="stroke:#000000;stroke-width:1;"/><polygon fill="#000000" points="819.24,935.8479,823.24,926.8479,819.24,930.8479,815.24,926.8479,819.24,935.8479" style="stroke:#000000;stroke-width:1;"/></g><!--link file_adapter to fs--><g id="link_file_adapter_fs"><path d="M619.24,846.1179 C619.24,872.3979 619.24,910.6879 619.24,934.3879 " fill="none" id="file_adapter-to-fs" style="stroke:#000000;stroke-width:1;"/><polygon fill="#000000" points="619.24,940.3879,623.24,931.3879,619.24,935.3879,615.24,931.3879,619.24,940.3879" style="stroke:#000000;stroke-width:1;"/></g><!--link prometheus to prom_server--><g id="link_prometheus_prom_server"><path d="M438.13,846.1179 C441.49,870.6579 446.1854,904.9534 449.5454,929.4734 " fill="none" id="prometheus-to-prom_server" style="stroke:#000000;stroke-width:1;"/><polygon fill="#000000" points="450.36,935.4179,453.1011,925.9581,449.6812,930.4641,445.1752,927.0442,450.36,935.4179" style="stroke:#000000;stroke-width:1;"/></g><!--link config_adapter to config_files--><g id="link_config_adapter_config_files"><path d="M1017.24,846.1179 C1017.24,872.3979 1017.24,910.6879 1017.24,934.3879 " fill="none" id="config_adapter-to-config_files" style="stroke:#000000;stroke-width:1;"/><polygon fill="#000000" points="1017.24,940.3879,1021.24,931.3879,1017.24,935.3879,1013.24,931.3879,1017.24,940.3879" style="stroke:#000000;stroke-width:1;"/></g><!--link GMN45 to core--><g id="link_GMN45_core"><path d="M136.24,272.1279 C136.24,287.3779 136.24,306.8147 136.24,327.4541 C136.24,332.6139 136.24,337.8489 136.24,343.1125 C136.24,344.4284 136.24,345.746 136.24,347.0647 C136.24,347.3944 136.24,347.7242 136.24,348.054 " fill="none" id="GMN45-core" style="stroke:#000000;stroke-width:1;stroke-dasharray:7.0,7.0;"/></g><!--link GMN48 to primary--><g id="link_GMN48_primary"><path d="M1019.24,122.9079 C1019.24,133.5829 1019.24,145.9979 1019.24,158.65 C1019.24,161.8131 1019.24,164.991 1019.24,168.1602 C1019.24,169.7448 1019.24,171.3272 1019.24,172.9046 C1019.24,173.6932 1019.24,174.4806 1019.24,175.2664 C1019.24,175.6593 1019.24,176.0517 1019.24,176.4437 C1019.24,176.6397 1019.24,176.8356 1019.24,177.0314 " fill="none" id="GMN48-primary" style="stroke:#000000;stroke-width:1;stroke-dasharray:7.0,7.0;"/></g><!--link secondary to GMN51--><g id="link_secondary_GMN51"><path d="M317.2058,839.2739 C317.1433,839.3848 317.0806,839.4963 317.0175,839.6083 C316.8915,839.8323 316.7643,840.0583 316.6359,840.2864 C316.3792,840.7426 316.1179,841.2069 315.8522,841.679 C314.7894,843.5675 313.6561,845.5813 312.4629,847.7016 C310.0765,851.9421 307.4503,856.6088 304.6688,861.5516 C293.5425,881.3229 279.93,905.5129 269.23,924.5279 " fill="none" id="secondary-GMN51" style="stroke:#000000;stroke-width:1;stroke-dasharray:7.0,7.0;"/></g><!--SRC=[VLPBJnin4BxxLqpXK8W4VI0kFLHAILOWyKWRsWj2oDcT92wxzc9xWRJbltTixteVfBsWpSpdyJSptunvOzTO89Gv5vAPUo5Bhda1QtpcAoNdTfCZM5rXnvVXabUvJPIqbvpEZhNW-NR_NFn2-F2HCIii1JeDKNbEPzAri9ZQIYFipPIs1hZCO9pnqg8s-unfydAvecCxuxBCHSgjK19EbCOTu0PI-e3T94cEfk_XDmFe79YeWlA12vLXxi5PC3WOmCrCb9WBYJ2LH6npEx3EBLzXRVp1ymhXQl6JWXjdUs7zgxvKXiuO0-Tg9L9_MUw-NjqrH_qeqYPkpR0sRetig-83bhu-8Q2GL9ybJmdm3KjbX5Lw0mxhePfiTmu_12U2OfwzksgXIx9iXLwWrI8rBR88XgtW4oMNOjLYK_-xWRumokejpBGeED7ScsZnAEHgFpQws-O6rVX2xhLnTtgKV4mclWet9-Td3UhMNveBPpwzlfxrx6jhoy1WZaGiYnnGRgVGmdeaJ3JlajoEa-D0O_xrd4GCdJvqBpSFENaTpjT-lZ4MYnx2Tu07WyFDjA9Ihx4oFLWPpJxtK70VirU3KFWcdCzw-aoVRjx2vOPbtF85DoxJm7rI6yAKB9YXD4ZzjLx2iQ0Mmr9Lb4gYjAvLaQcJCEgTXkYTyR-PoosgmmKpNNauh-agewPD09xdJbygg9vHQ-4WKq_ou7CzM9yeI57GjZ3CzVULrwj0uqE5nlexueW6H6Mm7YaM34s0E3iKn846xZWlsztT8TcEw8n60-WfCzP056LEMvaA7MW69S5XLHx-wTECICEwOcgWNSeTQ2ke1ZWWty7sPTNW-wbqu9JGEBPIIKcZ1THBR8HeQY7MAJMb8UNr-CUQzyWsrgxE1lm6jQvr9XNTPLK9QkdV3PgZqMZugen6P3verQ8hEajIpB14-aFTeDFqPgsbehvkF7Y2ImUkD_HUt8lqW3dtfO9xgPvop6Yaw7JJOKO1mP7gKwjtdMVtxvLPy_Hh3AWmmDj4lESxbQPTqSRRnhCpe4jB9LoN1jSlbBMgS0pYelCS_hCqkoGaB3PRYPp9fUQ6_dq8xtoKYKS4NjE-C3pjbQu1aUPV]--></g></svg>