<svg xmlns="http://www.w3.org/2000/svg" xmlns:xlink="http://www.w3.org/1999/xlink" contentStyleType="text/css" height="672px" preserveAspectRatio="none" style="width:1358px;height:672px;background:#FFFFFF;" version="1.1" viewBox="0 0 1358 672" width="1358px" zoomAndPan="magnify"><title>Repository Pattern</title><defs/><g><text fill="#000000" font-family="Arial" font-size="22" font-weight="bold" lengthAdjust="spacing" textLength="196.8184" x="576.3495" y="35.6357">Repository Pattern</text><!--cluster Domain Layer--><g id="cluster_Domain Layer"><path d="M13.5,338.5679 L93.8594,338.5679 A3.75,3.75 0 0 1 96.3594,341.0679 L103.3594,358.3667 L557.5,358.3667 A2.5,2.5 0 0 1 560,360.8667 L560,507.4379 A2.5,2.5 0 0 1 557.5,509.9379 L13.5,509.9379 A2.5,2.5 0 0 1 11,507.4379 L11,341.0679 A2.5,2.5 0 0 1 13.5,338.5679 " fill="#FFFFFF" style="stroke:#000000;stroke-width:1;"/><line style="stroke:#000000;stroke-width:1;" x1="11" x2="103.3594" y1="358.3667" y2="358.3667"/><text fill="#000000" font-family="Arial" font-size="12" font-weight="bold" lengthAdjust="spacing" textLength="79.3594" x="15" y="351.8237">Domain Layer</text></g><!--cluster Application Layer--><g id="cluster_Application Layer"><path d="M225.5,118.4779 L327.1875,118.4779 A3.75,3.75 0 0 1 329.6875,120.9779 L336.6875,138.2767 L540.5,138.2767 A2.5,2.5 0 0 1 543,140.7767 L543,263.1779 A2.5,2.5 0 0 1 540.5,265.6779 L225.5,265.6779 A2.5,2.5 0 0 1 223,263.1779 L223,120.9779 A2.5,2.5 0 0 1 225.5,118.4779 " fill="#FFFFFF" style="stroke:#000000;stroke-width:1;"/><line style="stroke:#000000;stroke-width:1;" x1="223" x2="336.6875" y1="138.2767" y2="138.2767"/><text fill="#000000" font-family="Arial" font-size="12" font-weight="bold" lengthAdjust="spacing" textLength="100.6875" x="227" y="131.7337">Application Layer</text></g><!--cluster Infrastructure Layer--><g id="cluster_Infrastructure Layer"><path d="M586.5,132.2779 L700.873,132.2779 A3.75,3.75 0 0 1 703.373,134.7779 L710.373,152.0767 L935.5,152.0767 A2.5,2.5 0 0 1 938,154.5767 L938,662.6479 A2.5,2.5 0 0 1 935.5,665.1479 L586.5,665.1479 A2.5,2.5 0 0 1 584,662.6479 L584,134.7779 A2.5,2.5 0 0 1 586.5,132.2779 " fill="#FFFFFF" style="stroke:#000000;stroke-width:1;"/><line style="stroke:#000000;stroke-width:1;" x1="584" x2="710.373" y1="152.0767" y2="152.0767"/><text fill="#000000" font-family="Arial" font-size="12" font-weight="bold" lengthAdjust="spacing" textLength="113.373" x="588" y="145.5337">Infrastructure Layer</text></g><!--cluster External--><g id="cluster_External"><path d="M1199.5,92.5879 L1247.8555,92.5879 A3.75,3.75 0 0 1 1250.3555,95.0879 L1257.3555,112.3867 L1348.5,112.3867 A2.5,2.5 0 0 1 1351,114.8867 L1351,289.0679 A2.5,2.5 0 0 1 1348.5,291.5679 L1199.5,291.5679 A2.5,2.5 0 0 1 1197,289.0679 L1197,95.0879 A2.5,2.5 0 0 1 1199.5,92.5879 " fill="#FFFFFF" style="stroke:#000000;stroke-width:1;"/><line style="stroke:#000000;stroke-width:1;" x1="1197" x2="1257.3555" y1="112.3867" y2="112.3867"/><text fill="#000000" font-family="Arial" font-size="12" font-weight="bold" lengthAdjust="spacing" textLength="47.3555" x="1201" y="105.8437">External</text></g><!--class PipelineRepository--><g id="elem_PipelineRepository"><rect codeLine="11" fill="#E3F2FD" height="123.377" id="PipelineRepository" rx="2.5" ry="2.5" style="stroke:#000000;stroke-width:1;" width="321.1875" x="222.41" y="370.5679"/><ellipse cx="329.2264" cy="389.7593" fill="#FFFFFF" rx="9" ry="9" style="stroke:#000000;stroke-width:1;"/><path d="M326.7342,387.0346 L326.7342,385.5112 L331.9432,385.5112 L331.9432,387.0346 L330.203,387.0346 L330.203,392.7358 L331.9432,392.7358 L331.9432,394.2593 L326.7342,394.2593 L326.7342,392.7358 L328.4745,392.7358 L328.4745,387.0346 Z " fill="#000000"/><text fill="#000000" font-family="Verdana" font-size="12" font-style="italic" lengthAdjust="spacing" textLength="40.5469" x="376.4803" y="387.6323">&#171;trait&#187;</text><text fill="#000000" font-family="Arial" font-size="12" font-style="italic" lengthAdjust="spacing" textLength="100.0547" x="346.7264" y="401.4077">PipelineRepository</text><line style="stroke:#000000;stroke-width:1;" x1="223.41" x2="542.5975" y1="408.9507" y2="408.9507"/><line style="stroke:#000000;stroke-width:1;" x1="223.41" x2="542.5975" y1="416.9507" y2="416.9507"/><ellipse cx="233.41" cy="429.3501" fill="#FFFFFF" rx="3" ry="3" style="stroke:#000000;stroke-width:1;"/><text fill="#000000" font-family="Arial" font-size="12" lengthAdjust="spacing" textLength="213.7734" x="240.41" y="432.2065">create(pipeline: &amp;Pipeline) -&gt; Result&lt;()&gt;</text><ellipse cx="233.41" cy="443.1489" fill="#FFFFFF" rx="3" ry="3" style="stroke:#000000;stroke-width:1;"/><text fill="#000000" font-family="Arial" font-size="12" lengthAdjust="spacing" textLength="297.1875" x="240.41" y="446.0054">find_by_id(id: &amp;PipelineId) -&gt; Result&lt;Option&lt;Pipeline&gt;&gt;</text><ellipse cx="233.41" cy="456.9477" fill="#FFFFFF" rx="3" ry="3" style="stroke:#000000;stroke-width:1;"/><text fill="#000000" font-family="Arial" font-size="12" lengthAdjust="spacing" textLength="217.125" x="240.41" y="459.8042">update(pipeline: &amp;Pipeline) -&gt; Result&lt;()&gt;</text><ellipse cx="233.41" cy="470.7466" fill="#FFFFFF" rx="3" ry="3" style="stroke:#000000;stroke-width:1;"/><text fill="#000000" font-family="Arial" font-size="12" lengthAdjust="spacing" textLength="191.0977" x="240.41" y="473.603">delete(id: &amp;PipelineId) -&gt; Result&lt;()&gt;</text><ellipse cx="233.41" cy="484.5454" fill="#FFFFFF" rx="3" ry="3" style="stroke:#000000;stroke-width:1;"/><text fill="#000000" font-family="Arial" font-size="12" lengthAdjust="spacing" textLength="189.1113" x="240.41" y="487.4018">find_all() -&gt; Result&lt;Vec&lt;Pipeline&gt;&gt;</text></g><!--class Pipeline--><g id="elem_Pipeline"><rect codeLine="19" fill="#E3F2FD" height="109.5781" id="Pipeline" rx="2.5" ry="2.5" style="stroke:#000000;stroke-width:1;" width="160.0957" x="26.95" y="377.4679"/><ellipse cx="80.0027" cy="396.6593" fill="#FFFFFF" rx="9" ry="9" style="stroke:#000000;stroke-width:1;"/><path d="M81.8367,400.9073 Q81.4266,401.1182 80.9754,401.2237 Q80.5242,401.3292 80.0262,401.3292 Q78.2566,401.3292 77.325,400.1632 Q76.3934,398.9971 76.3934,396.794 Q76.3934,394.585 77.325,393.419 Q78.2566,392.253 80.0262,392.253 Q80.5242,392.253 80.9813,392.3585 Q81.4383,392.4639 81.8367,392.6749 L81.8367,394.5968 Q81.3914,394.1866 80.9725,393.9962 Q80.5535,393.8057 80.1082,393.8057 Q79.159,393.8057 78.6756,394.5587 Q78.1922,395.3116 78.1922,396.794 Q78.1922,398.2706 78.6756,399.0235 Q79.159,399.7764 80.1082,399.7764 Q80.5535,399.7764 80.9725,399.586 Q81.3914,399.3956 81.8367,398.9854 Z " fill="#000000"/><text fill="#000000" font-family="Verdana" font-size="12" font-style="italic" lengthAdjust="spacing" textLength="50.4902" x="95.5027" y="394.5323">&#171;Entity&#187;</text><text fill="#000000" font-family="Arial" font-size="12" lengthAdjust="spacing" textLength="42.6973" x="99.3992" y="408.3077">Pipeline</text><line style="stroke:#000000;stroke-width:1;" x1="27.95" x2="186.0457" y1="415.8507" y2="415.8507"/><rect fill="none" height="6" style="stroke:#000000;stroke-width:1;" width="6" x="34.95" y="425.2501"/><text fill="#000000" font-family="Arial" font-size="12" lengthAdjust="spacing" textLength="68.7129" x="44.95" y="431.1065">id: PipelineId</text><rect fill="none" height="6" style="stroke:#000000;stroke-width:1;" width="6" x="34.95" y="439.0489"/><text fill="#000000" font-family="Arial" font-size="12" lengthAdjust="spacing" textLength="128.7539" x="44.95" y="444.9054">input_file_path: FilePath</text><rect fill="none" height="6" style="stroke:#000000;stroke-width:1;" width="6" x="34.95" y="452.8477"/><text fill="#000000" font-family="Arial" font-size="12" lengthAdjust="spacing" textLength="136.0957" x="44.95" y="458.7042">output_file_path: FilePath</text><rect fill="none" height="6" style="stroke:#000000;stroke-width:1;" width="6" x="34.95" y="466.6466"/><text fill="#000000" font-family="Arial" font-size="12" lengthAdjust="spacing" textLength="115.4004" x="44.95" y="472.503">status: PipelineStatus</text><line style="stroke:#000000;stroke-width:1;" x1="27.95" x2="186.0457" y1="479.046" y2="479.046"/></g><!--class PipelineService--><g id="elem_PipelineService"><rect codeLine="29" fill="#E3F2FD" height="99.1953" id="PipelineService" rx="2.5" ry="2.5" style="stroke:#000000;stroke-width:1;" width="287.8359" x="239.08" y="150.4779"/><ellipse cx="337.8925" cy="164.4779" fill="#FFFFFF" rx="9" ry="9" style="stroke:#000000;stroke-width:1;"/><path d="M339.7265,168.7259 Q339.3163,168.9368 338.8652,169.0423 Q338.414,169.1478 337.9159,169.1478 Q336.1464,169.1478 335.2148,167.9818 Q334.2831,166.8157 334.2831,164.6126 Q334.2831,162.4036 335.2148,161.2376 Q336.1464,160.0716 337.9159,160.0716 Q338.414,160.0716 338.871,160.1771 Q339.328,160.2825 339.7265,160.4935 L339.7265,162.4154 Q339.2812,162.0052 338.8622,161.8148 Q338.4433,161.6243 337.998,161.6243 Q337.0488,161.6243 336.5654,162.3773 Q336.082,163.1302 336.082,164.6126 Q336.082,166.0892 336.5654,166.8421 Q337.0488,167.595 337.998,167.595 Q338.4433,167.595 338.8622,167.4046 Q339.2812,167.2142 339.7265,166.804 Z " fill="#000000"/><text fill="#000000" font-family="Arial" font-size="12" lengthAdjust="spacing" textLength="82.7109" x="355.3925" y="168.8343">PipelineService</text><line style="stroke:#000000;stroke-width:1;" x1="240.08" x2="525.9159" y1="178.4779" y2="178.4779"/><rect fill="none" height="6" style="stroke:#000000;stroke-width:1;" width="6" x="247.08" y="187.8773"/><text fill="#000000" font-family="Arial" font-size="12" lengthAdjust="spacing" textLength="214.1074" x="257.08" y="193.7337">repository: Arc&lt;dyn PipelineRepository&gt;</text><line style="stroke:#000000;stroke-width:1;" x1="240.08" x2="525.9159" y1="200.2767" y2="200.2767"/><ellipse cx="250.08" cy="212.6761" fill="#FFFFFF" rx="3" ry="3" style="stroke:#000000;stroke-width:1;"/><text fill="#000000" font-family="Arial" font-size="12" lengthAdjust="spacing" textLength="263.8359" x="257.08" y="215.5325">create_pipeline(input, output) -&gt; Result&lt;Pipeline&gt;</text><ellipse cx="250.08" cy="226.4749" fill="#FFFFFF" rx="3" ry="3" style="stroke:#000000;stroke-width:1;"/><text fill="#000000" font-family="Arial" font-size="12" lengthAdjust="spacing" textLength="249.8262" x="257.08" y="229.3314">get_pipeline(id: PipelineId) -&gt; Result&lt;Pipeline&gt;</text><ellipse cx="250.08" cy="240.2738" fill="#FFFFFF" rx="3" ry="3" style="stroke:#000000;stroke-width:1;"/><text fill="#000000" font-family="Arial" font-size="12" lengthAdjust="spacing" textLength="240.4688" x="257.08" y="243.1302">execute_pipeline(id: PipelineId) -&gt; Result&lt;()&gt;</text></g><!--class SQLitePipelineRepository--><g id="elem_SQLitePipelineRepository"><rect codeLine="40" fill="#E3F2FD" height="140.5918" id="SQLitePipelineRepository" rx="2.5" ry="2.5" style="stroke:#000000;stroke-width:1;" width="321.1875" x="600.41" y="361.9579"/><ellipse cx="688.8836" cy="375.9579" fill="#FFFFFF" rx="9" ry="9" style="stroke:#000000;stroke-width:1;"/><path d="M690.7176,380.2059 Q690.3075,380.4168 689.8563,380.5223 Q689.4051,380.6278 688.9071,380.6278 Q687.1375,380.6278 686.2059,379.4618 Q685.2743,378.2957 685.2743,376.0926 Q685.2743,373.8836 686.2059,372.7176 Q687.1375,371.5516 688.9071,371.5516 Q689.4051,371.5516 689.8621,371.6571 Q690.3192,371.7625 690.7176,371.9735 L690.7176,373.8954 Q690.2723,373.4852 689.8534,373.2948 Q689.4344,373.1043 688.9891,373.1043 Q688.0399,373.1043 687.5565,373.8573 Q687.0731,374.6102 687.0731,376.0926 Q687.0731,377.5692 687.5565,378.3221 Q688.0399,379.075 688.9891,379.075 Q689.4344,379.075 689.8534,378.8846 Q690.2723,378.6942 690.7176,378.284 Z " fill="#000000"/><text fill="#000000" font-family="Arial" font-size="12" lengthAdjust="spacing" textLength="136.7402" x="706.3836" y="380.3143">SQLitePipelineRepository</text><line style="stroke:#000000;stroke-width:1;" x1="601.41" x2="920.5975" y1="389.9579" y2="389.9579"/><rect fill="none" height="6" style="stroke:#000000;stroke-width:1;" width="6" x="608.41" y="399.3573"/><text fill="#000000" font-family="Arial" font-size="12" lengthAdjust="spacing" textLength="83.3906" x="618.41" y="405.2137">pool: SqlitePool</text><rect fill="none" height="6" style="stroke:#000000;stroke-width:1;" width="6" x="608.41" y="413.1561"/><text fill="#000000" font-family="Arial" font-size="12" lengthAdjust="spacing" textLength="130.7402" x="618.41" y="419.0125">mapper: PipelineMapper</text><line style="stroke:#000000;stroke-width:1;" x1="601.41" x2="920.5975" y1="425.5555" y2="425.5555"/><ellipse cx="611.41" cy="437.9549" fill="#FFFFFF" rx="3" ry="3" style="stroke:#000000;stroke-width:1;"/><text fill="#000000" font-family="Arial" font-size="12" lengthAdjust="spacing" textLength="151.7461" x="618.41" y="440.8114">new(pool: SqlitePool) -&gt; Self</text><ellipse cx="611.41" cy="451.7538" fill="#FFFFFF" rx="3" ry="3" style="stroke:#000000;stroke-width:1;"/><text fill="#000000" font-family="Arial" font-size="12" lengthAdjust="spacing" textLength="213.7734" x="618.41" y="454.6102">create(pipeline: &amp;Pipeline) -&gt; Result&lt;()&gt;</text><ellipse cx="611.41" cy="465.5526" fill="#FFFFFF" rx="3" ry="3" style="stroke:#000000;stroke-width:1;"/><text fill="#000000" font-family="Arial" font-size="12" lengthAdjust="spacing" textLength="297.1875" x="618.41" y="468.409">find_by_id(id: &amp;PipelineId) -&gt; Result&lt;Option&lt;Pipeline&gt;&gt;</text><ellipse cx="611.41" cy="479.3514" fill="#FFFFFF" rx="3" ry="3" style="stroke:#000000;stroke-width:1;"/><text fill="#000000" font-family="Arial" font-size="12" lengthAdjust="spacing" textLength="217.125" x="618.41" y="482.2079">update(pipeline: &amp;Pipeline) -&gt; Result&lt;()&gt;</text><ellipse cx="611.41" cy="493.1502" fill="#FFFFFF" rx="3" ry="3" style="stroke:#000000;stroke-width:1;"/><text fill="#000000" font-family="Arial" font-size="12" lengthAdjust="spacing" textLength="191.0977" x="618.41" y="496.0067">delete(id: &amp;PipelineId) -&gt; Result&lt;()&gt;</text></g><!--class PipelineRepositoryAdapter--><g id="elem_PipelineRepositoryAdapter"><rect codeLine="51" fill="#E3F2FD" height="71.5977" id="PipelineRepositoryAdapter" rx="2.5" ry="2.5" style="stroke:#000000;stroke-width:1;" width="288.4512" x="607.77" y="164.2779"/><ellipse cx="677.2036" cy="178.2779" fill="#FFFFFF" rx="9" ry="9" style="stroke:#000000;stroke-width:1;"/><path d="M679.0376,182.5259 Q678.6274,182.7368 678.1763,182.8423 Q677.7251,182.9478 677.227,182.9478 Q675.4575,182.9478 674.5259,181.7818 Q673.5942,180.6157 673.5942,178.4126 Q673.5942,176.2036 674.5259,175.0376 Q675.4575,173.8716 677.227,173.8716 Q677.7251,173.8716 678.1821,173.9771 Q678.6391,174.0825 679.0376,174.2935 L679.0376,176.2154 Q678.5923,175.8052 678.1733,175.6148 Q677.7544,175.4243 677.3091,175.4243 Q676.3598,175.4243 675.8764,176.1773 Q675.393,176.9302 675.393,178.4126 Q675.393,179.8892 675.8764,180.6421 Q676.3598,181.395 677.3091,181.395 Q677.7544,181.395 678.1733,181.2046 Q678.5923,181.0142 679.0376,180.604 Z " fill="#000000"/><text fill="#000000" font-family="Arial" font-size="12" lengthAdjust="spacing" textLength="142.084" x="694.7036" y="182.6343">PipelineRepositoryAdapter</text><line style="stroke:#000000;stroke-width:1;" x1="608.77" x2="895.2212" y1="192.2779" y2="192.2779"/><rect fill="none" height="6" style="stroke:#000000;stroke-width:1;" width="6" x="615.77" y="201.6773"/><text fill="#000000" font-family="Arial" font-size="12" lengthAdjust="spacing" textLength="196.0957" x="625.77" y="207.5337">repository: SQLitePipelineRepository</text><line style="stroke:#000000;stroke-width:1;" x1="608.77" x2="895.2212" y1="214.0767" y2="214.0767"/><ellipse cx="618.77" cy="226.4761" fill="#FFFFFF" rx="3" ry="3" style="stroke:#000000;stroke-width:1;"/><text fill="#000000" font-family="Arial" font-size="12" lengthAdjust="spacing" textLength="264.4512" x="625.77" y="229.3325">new(repository: SQLitePipelineRepository) -&gt; Self</text></g><!--class PipelineMapper--><g id="elem_PipelineMapper"><rect codeLine="57" fill="#E3F2FD" height="71.5977" id="PipelineMapper" rx="2.5" ry="2.5" style="stroke:#000000;stroke-width:1;" width="293.1504" x="623.42" y="577.5479"/><ellipse cx="724.5528" cy="591.5479" fill="#FFFFFF" rx="9" ry="9" style="stroke:#000000;stroke-width:1;"/><path d="M726.3868,595.7959 Q725.9766,596.0068 725.5255,596.1123 Q725.0743,596.2178 724.5763,596.2178 Q722.8067,596.2178 721.8751,595.0518 Q720.9434,593.8857 720.9434,591.6826 Q720.9434,589.4736 721.8751,588.3076 Q722.8067,587.1416 724.5763,587.1416 Q725.0743,587.1416 725.5313,587.2471 Q725.9884,587.3525 726.3868,587.5635 L726.3868,589.4854 Q725.9415,589.0752 725.5225,588.8848 Q725.1036,588.6943 724.6583,588.6943 Q723.7091,588.6943 723.2257,589.4473 Q722.7423,590.2002 722.7423,591.6826 Q722.7423,593.1592 723.2257,593.9121 Q723.7091,594.665 724.6583,594.665 Q725.1036,594.665 725.5225,594.4746 Q725.9415,594.2842 726.3868,593.874 Z " fill="#000000"/><text fill="#000000" font-family="Arial" font-size="12" lengthAdjust="spacing" textLength="83.3848" x="742.0528" y="595.9043">PipelineMapper</text><line style="stroke:#000000;stroke-width:1;" x1="624.42" x2="915.5704" y1="605.5479" y2="605.5479"/><line style="stroke:#000000;stroke-width:1;" x1="624.42" x2="915.5704" y1="613.5479" y2="613.5479"/><ellipse cx="634.42" cy="625.9473" fill="#FFFFFF" rx="3" ry="3" style="stroke:#000000;stroke-width:1;"/><text fill="#000000" font-family="Arial" font-size="12" lengthAdjust="spacing" textLength="252.457" x="641.42" y="628.8037">to_domain(row: SqliteRow) -&gt; Result&lt;Pipeline&gt;</text><ellipse cx="634.42" cy="639.7461" fill="#FFFFFF" rx="3" ry="3" style="stroke:#000000;stroke-width:1;"/><text fill="#000000" font-family="Arial" font-size="12" lengthAdjust="spacing" textLength="269.1504" x="641.42" y="642.6025">to_persistence(pipeline: &amp;Pipeline) -&gt; PipelineRow</text></g><!--class db--><g id="elem_db"><rect codeLine="65" fill="#E3F2FD" height="150.9746" id="db" rx="2.5" ry="2.5" style="stroke:#000000;stroke-width:1;" width="121.3828" x="1213.31" y="124.5879"/><ellipse cx="1227.2074" cy="143.7793" fill="#FFFFFF" rx="9" ry="9" style="stroke:#000000;stroke-width:1;"/><path d="M1229.0413,148.0273 Q1228.6312,148.2382 1228.18,148.3437 Q1227.7288,148.4492 1227.2308,148.4492 Q1225.4613,148.4492 1224.5296,147.2832 Q1223.598,146.1171 1223.598,143.914 Q1223.598,141.705 1224.5296,140.539 Q1225.4613,139.373 1227.2308,139.373 Q1227.7288,139.373 1228.1859,139.4785 Q1228.6429,139.5839 1229.0413,139.7949 L1229.0413,141.7168 Q1228.596,141.3066 1228.1771,141.1162 Q1227.7581,140.9257 1227.3128,140.9257 Q1226.3636,140.9257 1225.8802,141.6787 Q1225.3968,142.4316 1225.3968,143.914 Q1225.3968,145.3906 1225.8802,146.1435 Q1226.3636,146.8964 1227.3128,146.8964 Q1227.7581,146.8964 1228.1771,146.706 Q1228.596,146.5156 1229.0413,146.1054 Z " fill="#000000"/><text fill="#000000" font-family="Verdana" font-size="12" font-style="italic" lengthAdjust="spacing" textLength="70.1719" x="1250.0152" y="141.6523">&#171;database&#187;</text><text fill="#000000" font-family="Arial" font-size="12" lengthAdjust="spacing" textLength="91.3887" x="1239.4068" y="155.4277">SQLite Database</text><line style="stroke:#000000;stroke-width:1;" x1="1214.31" x2="1333.6928" y1="162.9707" y2="162.9707"/><text fill="#000000" font-family="Arial" font-size="12" lengthAdjust="spacing" textLength="84.0527" x="1219.31" y="178.2265">Table: pipelines</text><line style="stroke:#000000;stroke-width:1;" x1="1214.31" x2="1333.6928" y1="184.7695" y2="184.7695"/><text fill="#000000" font-family="Arial" font-size="12" lengthAdjust="spacing" textLength="74.0098" x="1219.31" y="200.0254">id: TEXT (PK)</text><text fill="#000000" font-family="Arial" font-size="12" lengthAdjust="spacing" textLength="93.3867" x="1219.31" y="213.8242">input_path: TEXT</text><text fill="#000000" font-family="Arial" font-size="12" lengthAdjust="spacing" textLength="100.7285" x="1219.31" y="227.623">output_path: TEXT</text><text fill="#000000" font-family="Arial" font-size="12" lengthAdjust="spacing" textLength="69.3516" x="1219.31" y="241.4218">status: TEXT</text><text fill="#000000" font-family="Arial" font-size="12" lengthAdjust="spacing" textLength="94.043" x="1219.31" y="255.2207">created_at: TEXT</text><text fill="#000000" font-family="Arial" font-size="12" lengthAdjust="spacing" textLength="109.3828" x="1219.31" y="269.0195">completed_at: TEXT</text></g><!--class pipelines--><g id="elem_pipelines"><rect fill="#E3F2FD" height="44" id="pipelines" rx="2.5" ry="2.5" style="stroke:#000000;stroke-width:1;" width="75.3672" x="1245.32" y="591.3479"/><ellipse cx="1258.32" cy="605.3479" fill="#FFFFFF" rx="9" ry="9" style="stroke:#000000;stroke-width:1;"/><path d="M1260.154,609.5959 Q1259.7438,609.8068 1259.2927,609.9123 Q1258.8415,610.0178 1258.3434,610.0178 Q1256.5739,610.0178 1255.6423,608.8518 Q1254.7106,607.6857 1254.7106,605.4826 Q1254.7106,603.2736 1255.6423,602.1076 Q1256.5739,600.9416 1258.3434,600.9416 Q1258.8415,600.9416 1259.2985,601.0471 Q1259.7555,601.1525 1260.154,601.3635 L1260.154,603.2854 Q1259.7087,602.8752 1259.2897,602.6848 Q1258.8708,602.4943 1258.4255,602.4943 Q1257.4763,602.4943 1256.9929,603.2473 Q1256.5095,604.0002 1256.5095,605.4826 Q1256.5095,606.9592 1256.9929,607.7121 Q1257.4763,608.465 1258.4255,608.465 Q1258.8708,608.465 1259.2897,608.2746 Q1259.7087,608.0842 1260.154,607.674 Z " fill="#000000"/><text fill="#000000" font-family="Arial" font-size="12" lengthAdjust="spacing" textLength="47.3672" x="1270.32" y="609.7043">pipelines</text><line style="stroke:#000000;stroke-width:1;" x1="1246.32" x2="1319.6872" y1="619.3479" y2="619.3479"/><line style="stroke:#000000;stroke-width:1;" x1="1246.32" x2="1319.6872" y1="627.3479" y2="627.3479"/></g><g id="elem_GMN20"><path d="M956.12,392.7579 L956.12,471.752 L1125.8778,471.752 L1125.8778,402.7579 L1115.8778,392.7579 L956.12,392.7579 " fill="#FFFFFF" style="stroke:#000000;stroke-width:1;"/><path d="M1115.8778,392.7579 L1115.8778,402.7579 L1125.8778,402.7579 L1115.8778,392.7579 " fill="#FFFFFF" style="stroke:#000000;stroke-width:1;"/><text fill="#000000" font-family="Arial" font-size="12" font-weight="bold" lengthAdjust="spacing" textLength="134.6895" x="962.12" y="409.0137">Domain Interface (Trait)</text><text fill="#000000" font-family="Arial" font-size="12" lengthAdjust="spacing" textLength="133.4004" x="962.12" y="422.8125">- Defined in domain layer</text><text fill="#000000" font-family="Arial" font-size="12" lengthAdjust="spacing" textLength="118.0605" x="962.12" y="436.6114">- Technology-agnostic</text><text fill="#000000" font-family="Arial" font-size="12" lengthAdjust="spacing" textLength="148.7578" x="962.12" y="450.4102">- Focused on domain needs</text><text fill="#000000" font-family="Arial" font-size="12" lengthAdjust="spacing" textLength="134.0508" x="962.12" y="464.209">- No infrastructure details</text></g><g id="elem_GMN23"><path d="M1160.49,392.7579 L1160.49,471.752 L1351.5173,471.752 L1351.5173,402.7579 L1341.5173,392.7579 L1160.49,392.7579 " fill="#FFFFFF" style="stroke:#000000;stroke-width:1;"/><path d="M1341.5173,392.7579 L1341.5173,402.7579 L1351.5173,402.7579 L1341.5173,392.7579 " fill="#FFFFFF" style="stroke:#000000;stroke-width:1;"/><text fill="#000000" font-family="Arial" font-size="12" font-weight="bold" lengthAdjust="spacing" textLength="170.0273" x="1166.49" y="409.0137">Infrastructure Implementation</text><text fill="#000000" font-family="Arial" font-size="12" lengthAdjust="spacing" textLength="135.3809" x="1166.49" y="422.8125">- Implements domain trait</text><text fill="#000000" font-family="Arial" font-size="12" lengthAdjust="spacing" textLength="161.3906" x="1166.49" y="436.6114">- Technology-specific (SQLite)</text><text fill="#000000" font-family="Arial" font-size="12" lengthAdjust="spacing" textLength="154.0781" x="1166.49" y="450.4102">- Handles persistence details</text><text fill="#000000" font-family="Arial" font-size="12" lengthAdjust="spacing" textLength="145.418" x="1166.49" y="464.209">- Maps domain to database</text></g><g id="elem_GMN26"><path d="M954.1,580.7479 L954.1,609.3479 L916.86,613.3479 L954.1,617.3479 L954.1,645.9432 A0,0 0 0 0 954.1,645.9432 L1209.8969,645.9432 A0,0 0 0 0 1209.8969,645.9432 L1209.8969,590.7479 L1199.8969,580.7479 L954.1,580.7479 A0,0 0 0 0 954.1,580.7479 " fill="#FFFFFF" style="stroke:#000000;stroke-width:1;"/><path d="M1199.8969,580.7479 L1199.8969,590.7479 L1209.8969,590.7479 L1199.8969,580.7479 " fill="#FFFFFF" style="stroke:#000000;stroke-width:1;"/><text fill="#000000" font-family="Arial" font-size="12" font-weight="bold" lengthAdjust="spacing" textLength="72.0176" x="960.1" y="597.0037">Data Mapper</text><text fill="#000000" font-family="Arial" font-size="12" lengthAdjust="spacing" textLength="234.7969" x="960.1" y="610.8025">- Converts between domain and persistence</text><text fill="#000000" font-family="Arial" font-size="12" lengthAdjust="spacing" textLength="216.7734" x="960.1" y="624.6014">- Isolates domain from database schema</text><text fill="#000000" font-family="Arial" font-size="12" lengthAdjust="spacing" textLength="146.7305" x="960.1" y="638.4002">- Maintains domain integrity</text></g><g id="elem_GMN29"><path d="M953.78,167.4779 L953.78,232.6732 L1178.2234,232.6732 L1178.2234,177.4779 L1168.2234,167.4779 L953.78,167.4779 " fill="#FFFFFF" style="stroke:#000000;stroke-width:1;"/><path d="M1168.2234,167.4779 L1168.2234,177.4779 L1178.2234,177.4779 L1168.2234,167.4779 " fill="#FFFFFF" style="stroke:#000000;stroke-width:1;"/><text fill="#000000" font-family="Arial" font-size="12" font-weight="bold" lengthAdjust="spacing" textLength="111.3691" x="959.78" y="183.7337">Application Service</text><text fill="#000000" font-family="Arial" font-size="12" lengthAdjust="spacing" textLength="203.4434" x="959.78" y="197.5325">- Depends on trait, not implementation</text><text fill="#000000" font-family="Arial" font-size="12" lengthAdjust="spacing" textLength="194.748" x="959.78" y="211.3314">- Can be tested with mock repository</text><text fill="#000000" font-family="Arial" font-size="12" lengthAdjust="spacing" textLength="168.7559" x="959.78" y="225.1302">- Infrastructure can be swapped</text></g><!--link PipelineService to PipelineRepository--><g id="link_PipelineService_PipelineRepository"><path codeLine="78" d="M383,250.1779 C383,285.2979 383,326.7979 383,364.3379 " fill="none" id="PipelineService-to-PipelineRepository" style="stroke:#000000;stroke-width:1;"/><polygon fill="#000000" points="383,370.3379,387,361.3379,383,365.3379,379,361.3379,383,370.3379" style="stroke:#000000;stroke-width:1;"/><text fill="#000000" font-family="Arial" font-size="12" lengthAdjust="spacing" textLength="62.7246" x="384" y="319.8237">depends on</text></g><!--link PipelineService to Pipeline--><g id="link_PipelineService_Pipeline"><path codeLine="79" d="M309.85,250.0679 C276.83,273.2379 237.93,302.0379 205,330.5679 C188.5,344.8579 175.7342,357.1578 160.6742,372.7078 " fill="none" id="PipelineService-to-Pipeline" style="stroke:#000000;stroke-width:1;stroke-dasharray:7.0,7.0;"/><polygon fill="#000000" points="156.5,377.0179,165.6346,373.3356,159.9785,373.4262,159.8879,367.7701,156.5,377.0179" style="stroke:#000000;stroke-width:1;"/><text fill="#000000" font-family="Arial" font-size="12" lengthAdjust="spacing" textLength="25.3477" x="228.95" y="319.8237">uses</text></g><!--link PipelineRepositoryAdapter to PipelineRepository--><g id="link_PipelineRepositoryAdapter_PipelineRepository"><path codeLine="81" d="M695.56,236.2879 C638.62,271.7979 564.8629,317.8121 496.3529,360.5421 " fill="none" id="PipelineRepositoryAdapter-to-PipelineRepository" style="stroke:#000000;stroke-width:1;stroke-dasharray:7.0,7.0;"/><polygon fill="none" points="481.08,370.0679,499.5281,365.6331,493.1776,355.4512,481.08,370.0679" style="stroke:#000000;stroke-width:1;"/><text fill="#000000" font-family="Arial" font-size="12" lengthAdjust="spacing" textLength="61.3535" x="579.56" y="319.8237">implements</text></g><!--link PipelineRepositoryAdapter to SQLitePipelineRepository--><g id="link_PipelineRepositoryAdapter_SQLitePipelineRepository"><path codeLine="82" d="M753.38,236.2879 C754.68,269.5379 756.4255,314.3324 758.0455,355.7424 " fill="none" id="PipelineRepositoryAdapter-to-SQLitePipelineRepository" style="stroke:#000000;stroke-width:1;"/><polygon fill="#000000" points="758.28,361.7379,761.9251,352.5884,758.0845,356.7417,753.9312,352.9011,758.28,361.7379" style="stroke:#000000;stroke-width:1;"/><text fill="#000000" font-family="Arial" font-size="12" lengthAdjust="spacing" textLength="65.3848" x="757.5" y="319.8237">delegates to</text></g><!--link SQLitePipelineRepository to PipelineMapper--><g id="link_SQLitePipelineRepository_PipelineMapper"><path codeLine="84" d="M764.51,503.0079 C765.79,528.5479 766.8901,550.3454 767.9501,571.5254 " fill="none" id="SQLitePipelineRepository-to-PipelineMapper" style="stroke:#000000;stroke-width:1;"/><polygon fill="#000000" points="768.25,577.5179,771.7951,568.3292,768.0001,572.5241,763.8051,568.729,768.25,577.5179" style="stroke:#000000;stroke-width:1;"/><text fill="#000000" font-family="Arial" font-size="12" lengthAdjust="spacing" textLength="25.3477" x="767.57" y="544.8037">uses</text></g><!--link SQLitePipelineRepository to pipelines--><g id="link_SQLitePipelineRepository_pipelines"><path codeLine="85" d="M899.11,502.8679 C912.43,508.3879 925.86,513.5279 939,517.9379 C1062.91,559.5679 1105.61,529.0579 1227,577.5479 C1235.82,581.0779 1239.7037,582.8173 1247.8237,587.8273 " fill="none" id="SQLitePipelineRepository-to-pipelines" style="stroke:#000000;stroke-width:1;"/><polygon fill="#000000" points="1252.93,590.9779,1247.371,582.8478,1248.6748,588.3524,1243.1702,589.6562,1252.93,590.9779" style="stroke:#000000;stroke-width:1;"/><text fill="#000000" font-family="Arial" font-size="12" lengthAdjust="spacing" textLength="39.3574" x="1104.85" y="544.8037">queries</text></g><!--link PipelineRepository to GMN20--><g id="link_PipelineRepository_GMN20"><path d="M474.56,370.1579 C512.18,348.1879 557.25,326.1879 601.5,315.0679 C635.88,306.4279 887.36,302.4979 920.5,315.0679 C959.38,329.8079 992.31,364.4479 1013.87,392.2679 " fill="none" id="PipelineRepository-GMN20" style="stroke:#000000;stroke-width:1;stroke-dasharray:7.0,7.0;"/></g><!--link SQLitePipelineRepository to GMN23--><g id="link_SQLitePipelineRepository_GMN23"><path d="M855.7,361.5479 C886.3,342.6379 921.41,324.7779 956.5,315.0679 C992.69,305.0479 1090.38,301.7479 1125.5,315.0679 C1165.93,330.3979 1201.66,364.7779 1225.47,392.3579 " fill="none" id="SQLitePipelineRepository-GMN23" style="stroke:#000000;stroke-width:1;stroke-dasharray:7.0,7.0;"/></g><!--link GMN29 to PipelineService--><g id="link_GMN29_PipelineService"><path d="M1041.69,167.0379 C1015.8,134.9779 971.58,88.4879 920.5,69.5879 C887.26,57.2979 635.67,60.1679 601.5,69.5879 C544.43,85.3379 487.24,120.3479 445.69,150.1479 " fill="none" id="GMN29-PipelineService" style="stroke:#000000;stroke-width:1;stroke-dasharray:7.0,7.0;"/></g><!--SRC=[tLPDZzis4BthLx1Re9NTUD4cDyCmiCtQwA9fkbaRHMy6LnpPnD8aGr9nt3R_FKEAaYZv0-srXrtOyq6-UVDcp6_S3lP0jA1SPlQ5IqqDtHC69Qs4MohftbFqtnbEnNd_Yly5vAVNYPDB1wQa1VnCYvUjKPLaRvLGXdoxN2xVB7vCGWj1hJq9MxnPlbxUPvdZJW1v0gqiTyeSoIDrUBJCik_9lTeZPFAE7i5a6a-WMo0tgVM6_9sH3Wnvv1e4bv2SDvivGxcRpqCe8J-GmW1raEiOEoNVDMaZCfaZ5ejbp_BHFCQNNBBDyt73MSvP4lt0qlZVjUDApXhdlCckDFjFjp4GWF5NRXeWeqBagViFAFeelcJuBtIXvGTPMKYa_jZICY7-nkx2nYXrvJOb5x3HrEscP8aViKMxw5ULknvW7NMLxKvUXUy1rHVVupkj1I-evsxOw1DNtUr-9IimdpXslgd2j9sVegAB6JlACwge2PnCUehOD3tAGzMlOd4fjoslCN4BBidg4NWj3Jv3KVKkl9XQDpkIzI1BGwqpLU4g0qE-pdbJobOVtd47PqQauKuh9QPazL7uCFmSpNkgDPWEu6_XUvz12OTyc1xAM84e_rTpTsQQEYhl6DMuYywgyHBzfqJ-cwoKt3EGwXurE9h3dTgmi3rpemvDgvxKuPfMCGTFijmwaCLbFbk4wj3ejHNcuhFVw5IaOhof2oFtrD5dQk66K4lOCouc5YtjQbhJPu7tDJVRj2RVhlNYppN97tyTrPQmiUfTv3t16DVKmDhifjPGAnHNgakDQg-zD7hcE91F8C9-iZkkRJRSIPEKbsxSfgWr3P9PekH9pkrjbuEHbSLwiyj2kxtzvy8TtAFUWtJsIhf7U74jJCDCR94HYoh8iek1QPrHU17vrPIseHZziGB3VQbIeIWCt-uSKIKvEotZSNm2FBI_-_dQ_yQFnkFCJzqzuEe0Xb8WjTo929lI-zPGx2G-GRR72TrAPHqlWdsf2aJCi2LDZWHWDlZUApogjriPECg5pR2Bn2CUuhuow-FnO4y_D8qAIeebj4RRm0clc649LaF1IrwGlBvn509-eP89f3MPsnQnzsEFkcCLQGRkOZKdYnyxW3ca_XuHlrNo4nZ4-mpk0D3IY5XI87LrLeaWgnXJ6hLlOH1Ru7kLHgJujiE_Dj8_zRO67ov3i0BA7jOuJm5i-f28zbOfpI3M_BxoHtQZ4rBgwgZ4mWXYnaL03jpjo5uLByc2hmlhjxQei-p14yKwo5y1]--></g></svg>